<svg xmlns="http://www.w3.org/2000/svg" xmlns:xlink="http://www.w3.org/1999/xlink" width="113" height="113" viewBox="0 0 113 113">
  <defs>
    <filter id="Trazado_982547" x="0" y="0" width="113" height="113" filterUnits="userSpaceOnUse">
      <feOffset dy="3" input="SourceAlpha"/>
      <feGaussianBlur stdDeviation="3" result="blur"/>
      <feFlood flood-opacity="0.161"/>
      <feComposite operator="in" in2="blur"/>
      <feComposite in="SourceGraphic"/>
    </filter>
  </defs>
  <g id="Grupo_1177675" data-name="Grupo 1177675" transform="translate(-5286.49 -1920.273)">
    <g id="Grupo_1176928" data-name="Grupo 1176928" transform="translate(5295.49 1926.273)">
      <g id="Grupo_1172322" data-name="Grupo 1172322" transform="translate(0 0)">
        <g id="Grupo_1164700" data-name="Grupo 1164700">
          <g id="Grupo_1160931" data-name="Grupo 1160931">
            <g id="Grupo_1160749" data-name="Grupo 1160749">
              <g id="Grupo_1158891" data-name="Grupo 1158891">
                <g id="Grupo_1157406" data-name="Grupo 1157406">
                  <g id="Grupo_1155793" data-name="Grupo 1155793">
                    <g id="Grupo_1154704" data-name="Grupo 1154704">
                      <g id="Grupo_1150790" data-name="Grupo 1150790">
                        <g id="Grupo_1154214" data-name="Grupo 1154214">
                          <g id="Grupo_1152583" data-name="Grupo 1152583">
                            <g id="Grupo_1146973" data-name="Grupo 1146973">
                              <g id="Grupo_1146954" data-name="Grupo 1146954">
                                <g transform="matrix(1, 0, 0, 1, -9, -6)" filter="url(#Trazado_982547)">
                                  <g id="Trazado_982547-2" data-name="Trazado 982547" transform="translate(9 6)" fill="#ebe9f0">
                                    <path d="M 47.5000114440918 93.49987030029297 C 41.28938293457031 93.49987030029297 35.26534652709961 92.28384399414062 29.5951976776123 89.88558959960938 C 24.11773109436035 87.56881713867188 19.19814491271973 84.25183868408203 14.97310447692871 80.02680206298828 C 10.74805164337158 75.80176544189453 7.43107795715332 70.88218688964844 5.114304542541504 65.40472412109375 C 2.716038227081299 59.73458862304688 1.500011444091797 53.71054840087891 1.500011444091797 47.49993515014648 C 1.500011444091797 41.28932189941406 2.716038227081299 35.26528167724609 5.114304542541504 29.59514808654785 C 7.43107795715332 24.1176815032959 10.74805164337158 19.1981086730957 14.97310447692871 14.97306823730469 C 19.19814491271973 10.74802875518799 24.11773109436035 7.431055068969727 29.5951976776123 5.11428165435791 C 35.26534652709961 2.716028451919556 41.28938293457031 1.500001788139343 47.5000114440918 1.500001788139343 C 53.71063995361328 1.500001788139343 59.73467636108398 2.716028451919556 65.40482330322266 5.11428165435791 C 70.88229370117188 7.431055068969727 75.8018798828125 10.74802875518799 80.02691650390625 14.97306823730469 C 84.25196838378906 19.1981086730957 87.56894683837891 24.1176815032959 89.88571929931641 29.59514808654785 C 92.28398132324219 35.26528167724609 93.50001525878906 41.28932189941406 93.50001525878906 47.49993515014648 C 93.50001525878906 53.71054840087891 92.28398132324219 59.73458862304688 89.88571929931641 65.40472412109375 C 87.56894683837891 70.88218688964844 84.25196838378906 75.80176544189453 80.02691650390625 80.02680206298828 C 75.8018798828125 84.25183868408203 70.88229370117188 87.56881713867188 65.40482330322266 89.88558959960938 C 59.73467636108398 92.28384399414062 53.71063995361328 93.49987030029297 47.5000114440918 93.49987030029297 Z" stroke="none"/>
                                    <path d="M 47.5000114440918 3 C 41.49122619628906 3 35.66378021240234 4.1761474609375 30.17951965332031 6.495796203613281 C 24.880859375 8.7369384765625 20.12153625488281 11.94596862792969 16.03376770019531 16.03373718261719 C 11.94598388671875 20.12149047851562 8.736968994140625 24.88081359863281 6.495811462402344 30.17947387695312 C 4.176162719726562 35.66371917724609 3.000007629394531 41.49116516113281 3.000007629394531 47.49993515014648 C 3.000007629394531 53.50870513916016 4.176162719726562 59.33615112304688 6.495811462402344 64.82039642333984 C 8.736968994140625 70.11905670166016 11.94598388671875 74.87837982177734 16.03376770019531 78.96613311767578 C 20.12153625488281 83.05390167236328 24.880859375 86.26293182373047 30.17951965332031 88.50407409667969 C 35.66378021240234 90.82372283935547 41.49122619628906 91.99987030029297 47.5000114440918 91.99987030029297 C 53.50879669189453 91.99987030029297 59.33624267578125 90.82372283935547 64.82050323486328 88.50407409667969 C 70.11916351318359 86.26293182373047 74.87848663330078 83.05390167236328 78.96625518798828 78.96613311767578 C 83.05403900146484 74.87837982177734 86.2630615234375 70.11905670166016 88.50421142578125 64.82039642333984 C 90.82386016845703 59.33615112304688 92.00001525878906 53.50870513916016 92.00001525878906 47.49993515014648 C 92.00001525878906 41.49116516113281 90.82386016845703 35.66371917724609 88.50421142578125 30.17947387695312 C 86.2630615234375 24.88081359863281 83.05403900146484 20.12149047851562 78.96625518798828 16.03373718261719 C 74.87848663330078 11.94596862792969 70.11916351318359 8.7369384765625 64.82050323486328 6.495796203613281 C 59.33624267578125 4.1761474609375 53.50879669189453 3 47.5000114440918 3 M 47.5000114440918 0 C 73.73353576660156 0 95.00001525878906 21.26644134521484 95.00001525878906 47.49993515014648 C 95.00001525878906 73.73342895507812 73.73353576660156 94.99987030029297 47.5000114440918 94.99987030029297 C 21.26648712158203 94.99987030029297 7.62939453125e-06 73.73342895507812 7.62939453125e-06 47.49993515014648 C 7.62939453125e-06 21.26644134521484 21.26648712158203 0 47.5000114440918 0 Z" stroke="none" fill="#453179"/>
                                  </g>
                                </g>
                              </g>
                            </g>
                          </g>
                        </g>
                      </g>
                    </g>
                  </g>
                </g>
              </g>
            </g>
          </g>
        </g>
      </g>
    </g>
    <g id="lesson_1575406" transform="translate(5314.736 1948.408)">
      <path id="Trazado_1045724" data-name="Trazado 1045724" d="M276.909,56.238v32H254.3v1.884a1.907,1.907,0,0,1-.226.895l.226.047h25.431V56.238Zm0,0" transform="translate(-224.167 -49.617)" fill="#00ccb3"/>
      <path id="Trazado_1045725" data-name="Trazado 1045725" d="M262.076,40H256V73.908h22.605V40Zm0,0" transform="translate(-225.863 -35.291)" fill="#e6e7e8"/>
      <path id="Trazado_1045726" data-name="Trazado 1045726" d="M308.721,16.477v3.768l-2.214.443a7.872,7.872,0,0,1-.744,1.789l1.253,1.874-2.666,2.666-1.874-1.253a7.873,7.873,0,0,1-1.789.744l-.443,2.214h-3.768l-.443-2.214a7.874,7.874,0,0,1-1.789-.744l-1.874,1.253L289.7,24.351l1.253-1.874a7.875,7.875,0,0,1-.744-1.789L288,20.244V16.477l2.214-.443a7.875,7.875,0,0,1,.744-1.789L289.7,12.37,292.37,9.7l1.874,1.253a7.874,7.874,0,0,1,1.789-.744L296.477,8h3.768l.443,2.214a7.872,7.872,0,0,1,1.789.744L304.351,9.7l2.666,2.666-1.253,1.874a7.873,7.873,0,0,1,.744,1.789Zm0,0" transform="translate(-254.095 -7.058)" fill="#ffa733"/>
      <path id="Trazado_1045727" data-name="Trazado 1045727" d="M33.431,90.118V88.234H10.826v-32H8V91.059H33.431l.226-.047A1.906,1.906,0,0,1,33.431,90.118Zm0,0" transform="translate(-7.061 -49.617)" fill="#00ccb3"/>
      <path id="Trazado_1045728" data-name="Trazado 1045728" d="M32,40H54.605V73.908H32Zm0,0" transform="translate(-28.235 -35.291)" fill="#e6e7e8"/>
      <path id="Trazado_1045729" data-name="Trazado 1045729" d="M216,392h20.721v3.768H216Zm0,0" transform="translate(-190.572 -345.848)" fill="#5aaae7"/>
      <path id="Trazado_1045730" data-name="Trazado 1045730" d="M393.884,392a1.884,1.884,0,1,1,0,3.768H392V392Zm0,0" transform="translate(-345.85 -345.848)" fill="#3d9ae2"/>
      <path id="Trazado_1045731" data-name="Trazado 1045731" d="M173.651,392v3.768h-.942L168,393.884,172.709,392Zm0,0" transform="translate(-148.223 -345.848)" fill="#1e81ce"/>
      <path id="Trazado_1045732" data-name="Trazado 1045732" d="M48,416h5.651A2.826,2.826,0,0,1,48,416Zm0,0" transform="translate(-42.351 -367.022)" fill="#898890"/>
      <path id="Trazado_1045733" data-name="Trazado 1045733" d="M40.147,384.1a1.883,1.883,0,0,1-.612,3.664H33.883A1.89,1.89,0,0,1,32,385.884a1.841,1.841,0,0,1,.556-1.328,1.8,1.8,0,0,1,.716-.452,1.862,1.862,0,0,1,.612-.1h5.651a1.862,1.862,0,0,1,.612.1Zm0,0" transform="translate(-28.235 -338.79)" fill="#acabb1"/>
      <path id="Trazado_1045734" data-name="Trazado 1045734" d="M64,152H79.07v7.535H64Zm0,0" transform="translate(-56.467 -134.104)" fill="#78b9eb"/>
      <path id="Trazado_1045735" data-name="Trazado 1045735" d="M345.419,60.709A4.709,4.709,0,1,1,340.709,56,4.71,4.71,0,0,1,345.419,60.709Zm0,0" transform="translate(-296.444 -49.407)" fill="#ff6243"/>
      <path id="Trazado_1045736" data-name="Trazado 1045736" d="M227.768,88.024v1.884a1.884,1.884,0,1,1-3.768,0V56h3.768Zm0,0" transform="translate(-197.63 -49.407)" fill="#ff9811"/>
      <path id="Trazado_1045737" data-name="Trazado 1045737" d="M15.535,264A7.544,7.544,0,0,0,8,271.535a7.415,7.415,0,0,0,.556,2.826,7.522,7.522,0,0,0,3.542,3.871,1.861,1.861,0,0,1,.612-.1h5.651a1.861,1.861,0,0,1,.612.1,7.522,7.522,0,0,0,3.542-3.871,7.415,7.415,0,0,0,.556-2.826A7.535,7.535,0,0,0,15.535,264Zm0,0" transform="translate(-7.06 -232.918)" fill="#ffd422"/>
      <path id="Trazado_1045738" data-name="Trazado 1045738" d="M25.884,33.884H46.605V65.908H40.012v1.884h6.593v.942a2.826,2.826,0,0,0,5.651,0v-.942H73.919a.942.942,0,0,0,.942-.942V50.838H72.978v15.07H52.256V33.884H54.14V32H51.314a.942.942,0,0,0-.942.942v.942H48.489v-.942A.942.942,0,0,0,47.547,32H24.942a.942.942,0,0,0-.942.942V57.431h1.884Zm24.489,1.884V68.733a.942.942,0,0,1-1.884,0V35.768Zm0,0" transform="translate(-21.177 -28.232)"/>
      <path id="Trazado_1045739" data-name="Trazado 1045739" d="M160,344h5.651v1.884H160Zm0,0" transform="translate(-141.165 -303.499)"/>
      <path id="Trazado_1045740" data-name="Trazado 1045740" d="M0,56.23H1.884V80.692H0Zm0,0" transform="translate(-0.002 -49.61)"/>
      <path id="Trazado_1045741" data-name="Trazado 1045741" d="M56,80h3.768v1.884H56Zm0,0" transform="translate(-49.409 -70.581)"/>
      <path id="Trazado_1045742" data-name="Trazado 1045742" d="M104,80h11.3v1.884H104Zm0,0" transform="translate(-91.758 -70.581)"/>
      <path id="Trazado_1045743" data-name="Trazado 1045743" d="M56,112H72.954v1.884H56Zm0,0" transform="translate(-49.409 -98.814)"/>
      <path id="Trazado_1045744" data-name="Trazado 1045744" d="M294.605,160.23v21.636H272v1.884h23.547a.942.942,0,0,0,.942-.942V160.23Zm0,0" transform="translate(-239.979 -141.365)"/>
      <path id="Trazado_1045745" data-name="Trazado 1045745" d="M56,152.477a.942.942,0,0,0,.942.942h15.07a.942.942,0,0,0,.942-.942v-7.535a.942.942,0,0,0-.942-.942H56.942a.942.942,0,0,0-.942.942Zm1.884-6.593H71.07v5.651H57.884Zm0,0" transform="translate(-49.409 -127.046)"/>
      <path id="Trazado_1045746" data-name="Trazado 1045746" d="M120,176h1.884v1.884H120Zm0,0" transform="translate(-105.874 -155.279)"/>
      <path id="Trazado_1045747" data-name="Trazado 1045747" d="M152,176h1.884v1.884H152Zm0,0" transform="translate(-134.107 -155.279)"/>
      <path id="Trazado_1045748" data-name="Trazado 1045748" d="M88,176h1.884v1.884H88Zm0,0" transform="translate(-77.642 -155.279)"/>
      <path id="Trazado_1045749" data-name="Trazado 1045749" d="M304,240h13.186v1.884H304Zm0,0" transform="translate(-268.211 -211.744)"/>
      <path id="Trazado_1045750" data-name="Trazado 1045750" d="M304,272h13.186v1.884H304Zm0,0" transform="translate(-268.211 -239.976)"/>
      <path id="Trazado_1045751" data-name="Trazado 1045751" d="M333.651,59.3A5.651,5.651,0,1,0,328,53.651,5.652,5.652,0,0,0,333.651,59.3Zm0-9.419a3.768,3.768,0,1,1-3.768,3.768A3.768,3.768,0,0,1,333.651,49.884Zm0,0" transform="translate(-289.385 -42.349)"/>
      <path id="Trazado_1045752" data-name="Trazado 1045752" d="M280,13.186a.942.942,0,0,0,.753.923l1.671.334a9.367,9.367,0,0,0,.377.915l-.942,1.413a.941.941,0,0,0,.118,1.188l2.666,2.667a.941.941,0,0,0,1.188.118l1.413-.942a9.368,9.368,0,0,0,.915.377l.337,1.672a.942.942,0,0,0,.923.753h3.767a.942.942,0,0,0,.923-.753l.334-1.671a9.374,9.374,0,0,0,.915-.377l1.413.942a.941.941,0,0,0,1.188-.118l2.667-2.666a.941.941,0,0,0,.118-1.188l-.942-1.413a9.359,9.359,0,0,0,.377-.915l1.672-.337a.942.942,0,0,0,.753-.923V9.419a.942.942,0,0,0-.753-.923l-1.671-.334a9.375,9.375,0,0,0-.377-.915l.942-1.413a.941.941,0,0,0-.119-1.191l-2.665-2.665a.941.941,0,0,0-1.188-.118l-1.413.942a9.365,9.365,0,0,0-.915-.377L294.109.753A.942.942,0,0,0,293.186,0h-3.768a.942.942,0,0,0-.923.753l-.334,1.671a9.374,9.374,0,0,0-.915.377l-1.413-.942a.941.941,0,0,0-1.188.118l-2.667,2.666a.941.941,0,0,0-.118,1.188l.942,1.413a9.367,9.367,0,0,0-.377.915l-1.672.337a.942.942,0,0,0-.753.923Zm1.884-3,1.458-.292a.941.941,0,0,0,.721-.665,7.518,7.518,0,0,1,.659-1.591.943.943,0,0,0-.039-.981l-.823-1.234,1.573-1.573,1.234.823a.941.941,0,0,0,.98.039,7.539,7.539,0,0,1,1.591-.659.943.943,0,0,0,.665-.721l.288-1.454h2.223l.292,1.458a.941.941,0,0,0,.665.721,7.515,7.515,0,0,1,1.591.659.943.943,0,0,0,.981-.039l1.234-.823,1.573,1.573-.823,1.234a.941.941,0,0,0-.039.981,7.536,7.536,0,0,1,.659,1.591.943.943,0,0,0,.721.665l1.454.288v2.223l-1.458.292a.941.941,0,0,0-.721.665,7.518,7.518,0,0,1-.659,1.591.943.943,0,0,0,.039.981l.823,1.234-1.573,1.573-1.234-.823a.941.941,0,0,0-.981-.039,7.538,7.538,0,0,1-1.591.659.943.943,0,0,0-.665.721l-.288,1.454h-2.223l-.292-1.458a.941.941,0,0,0-.665-.721,7.516,7.516,0,0,1-1.591-.659.943.943,0,0,0-.981.039l-1.234.823-1.573-1.573.823-1.234a.941.941,0,0,0,.039-.981,7.543,7.543,0,0,1-.659-1.591.943.943,0,0,0-.721-.665l-1.454-.288Zm0,0" transform="translate(-247.037)"/>
      <path id="Trazado_1045753" data-name="Trazado 1045753" d="M268.063,157.205a15.232,15.232,0,0,0,1.5,1.968l1.4-1.259a13.247,13.247,0,0,1-1.311-1.723Zm0,0" transform="translate(-236.505 -137.802)"/>
      <path id="Trazado_1045754" data-name="Trazado 1045754" d="M306.464,182.237A13.2,13.2,0,0,1,292.551,180l-1.247,1.413a15.084,15.084,0,0,0,15.905,2.555Zm0,0" transform="translate(-257.01 -158.808)"/>
      <path id="Trazado_1045755" data-name="Trazado 1045755" d="M189.184,384H165.637a.953.953,0,0,0-.35.067l-4.709,1.884a.942.942,0,0,0,0,1.75l4.709,1.884a.952.952,0,0,0,.35.067h23.547a2.826,2.826,0,1,0,0-5.651Zm-21.663,1.884h18.838v1.884H167.521Zm-4.058.942,2.174-.869v1.738Zm25.721.942h-.942v-1.884h.942a.942.942,0,1,1,0,1.884Zm0,0" transform="translate(-141.151 -338.79)"/>
      <path id="Trazado_1045756" data-name="Trazado 1045756" d="M8.474,256a8.463,8.463,0,0,0-5.066,15.252A2.8,2.8,0,0,0,4.8,275.634a3.767,3.767,0,0,0,7.357,0,2.8,2.8,0,0,0,1.388-4.382A8.463,8.463,0,0,0,8.474,256Zm0,20.721a1.877,1.877,0,0,1-1.622-.942H10.1a1.877,1.877,0,0,1-1.622.942ZM11.3,273.9H5.649a.942.942,0,0,1,0-1.884H11.3a.942.942,0,0,1,0,1.884Zm.451-3.722a2.907,2.907,0,0,0-.451-.045H5.649a2.907,2.907,0,0,0-.451.045,6.593,6.593,0,1,1,6.554,0Zm0,0" transform="translate(0 -225.86)"/>
      <path id="Trazado_1045757" data-name="Trazado 1045757" d="M39.779,314.293l-1.1-1.65a.978.978,0,0,0-1.567,0l-1.1,1.65-1.1-1.653-1.567,1.046,1.884,2.826a.979.979,0,0,0,1.567,0l1.1-1.653,1.1,1.65a.942.942,0,0,0,1.567,0l1.884-2.826-1.567-1.045Zm0,0" transform="translate(-29.42 -275.488)"/>
    </g>
  </g>
</svg>
