<svg xmlns="http://www.w3.org/2000/svg" xmlns:xlink="http://www.w3.org/1999/xlink" width="113" height="113" viewBox="0 0 113 113">
  <defs>
    <filter id="Trazado_982547" x="0" y="0" width="113" height="113" filterUnits="userSpaceOnUse">
      <feOffset dy="3" input="SourceAlpha"/>
      <feGaussianBlur stdDeviation="3" result="blur"/>
      <feFlood flood-opacity="0.161"/>
      <feComposite operator="in" in2="blur"/>
      <feComposite in="SourceGraphic"/>
    </filter>
  </defs>
  <g id="Grupo_1177676" data-name="Grupo 1177676" transform="translate(-1112 -1163.623)">
    <g id="Grupo_1177337" data-name="Grupo 1177337" transform="translate(318.51 -325.812)">
      <g id="Grupo_1176922" data-name="Grupo 1176922" transform="translate(802.49 1495.435)">
        <g id="Grupo_1172322" data-name="Grupo 1172322" transform="translate(0 0)">
          <g id="Grupo_1164700" data-name="Grupo 1164700">
            <g id="Grupo_1160931" data-name="Grupo 1160931">
              <g id="Grupo_1160749" data-name="Grupo 1160749">
                <g id="Grupo_1158891" data-name="Grupo 1158891">
                  <g id="Grupo_1157406" data-name="Grupo 1157406">
                    <g id="Grupo_1155793" data-name="Grupo 1155793">
                      <g id="Grupo_1154704" data-name="Grupo 1154704">
                        <g id="Grupo_1150790" data-name="Grupo 1150790">
                          <g id="Grupo_1154214" data-name="Grupo 1154214">
                            <g id="Grupo_1152583" data-name="Grupo 1152583">
                              <g id="Grupo_1146973" data-name="Grupo 1146973">
                                <g id="Grupo_1146954" data-name="Grupo 1146954">
                                  <g transform="matrix(1, 0, 0, 1, -9, -6)" filter="url(#Trazado_982547)">
                                    <g id="Trazado_982547-2" data-name="Trazado 982547" transform="translate(9 6)" fill="#ebe9f0">
                                      <path d="M 47.5000114440918 93.49987030029297 C 41.28938293457031 93.49987030029297 35.26534652709961 92.28384399414062 29.5951976776123 89.88558959960938 C 24.11773109436035 87.56881713867188 19.19814491271973 84.25183868408203 14.97310447692871 80.02680206298828 C 10.74805164337158 75.80176544189453 7.43107795715332 70.88218688964844 5.114304542541504 65.40472412109375 C 2.716038227081299 59.73458862304688 1.500011444091797 53.71054840087891 1.500011444091797 47.49993515014648 C 1.500011444091797 41.28932189941406 2.716038227081299 35.26528167724609 5.114304542541504 29.59514808654785 C 7.43107795715332 24.1176815032959 10.74805164337158 19.1981086730957 14.97310447692871 14.97306823730469 C 19.19814491271973 10.74802875518799 24.11773109436035 7.431055068969727 29.5951976776123 5.11428165435791 C 35.26534652709961 2.716028451919556 41.28938293457031 1.500001788139343 47.5000114440918 1.500001788139343 C 53.71063995361328 1.500001788139343 59.73467636108398 2.716028451919556 65.40482330322266 5.11428165435791 C 70.88229370117188 7.431055068969727 75.8018798828125 10.74802875518799 80.02691650390625 14.97306823730469 C 84.25196838378906 19.1981086730957 87.56894683837891 24.1176815032959 89.88571929931641 29.59514808654785 C 92.28398132324219 35.26528167724609 93.50001525878906 41.28932189941406 93.50001525878906 47.49993515014648 C 93.50001525878906 53.71054840087891 92.28398132324219 59.73458862304688 89.88571929931641 65.40472412109375 C 87.56894683837891 70.88218688964844 84.25196838378906 75.80176544189453 80.02691650390625 80.02680206298828 C 75.8018798828125 84.25183868408203 70.88229370117188 87.56881713867188 65.40482330322266 89.88558959960938 C 59.73467636108398 92.28384399414062 53.71063995361328 93.49987030029297 47.5000114440918 93.49987030029297 Z" stroke="none"/>
                                      <path d="M 47.5000114440918 3 C 41.49122619628906 3 35.66378021240234 4.1761474609375 30.17951965332031 6.495796203613281 C 24.880859375 8.7369384765625 20.12153625488281 11.94596862792969 16.03376770019531 16.03373718261719 C 11.94598388671875 20.12149047851562 8.736968994140625 24.88081359863281 6.495811462402344 30.17947387695312 C 4.176162719726562 35.66371917724609 3.000007629394531 41.49116516113281 3.000007629394531 47.49993515014648 C 3.000007629394531 53.50870513916016 4.176162719726562 59.33615112304688 6.495811462402344 64.82039642333984 C 8.736968994140625 70.11905670166016 11.94598388671875 74.87837982177734 16.03376770019531 78.96613311767578 C 20.12153625488281 83.05390167236328 24.880859375 86.26293182373047 30.17951965332031 88.50407409667969 C 35.66378021240234 90.82372283935547 41.49122619628906 91.99987030029297 47.5000114440918 91.99987030029297 C 53.50879669189453 91.99987030029297 59.33624267578125 90.82372283935547 64.82050323486328 88.50407409667969 C 70.11916351318359 86.26293182373047 74.87848663330078 83.05390167236328 78.96625518798828 78.96613311767578 C 83.05403900146484 74.87837982177734 86.2630615234375 70.11905670166016 88.50421142578125 64.82039642333984 C 90.82386016845703 59.33615112304688 92.00001525878906 53.50870513916016 92.00001525878906 47.49993515014648 C 92.00001525878906 41.49116516113281 90.82386016845703 35.66371917724609 88.50421142578125 30.17947387695312 C 86.2630615234375 24.88081359863281 83.05403900146484 20.12149047851562 78.96625518798828 16.03373718261719 C 74.87848663330078 11.94596862792969 70.11916351318359 8.7369384765625 64.82050323486328 6.495796203613281 C 59.33624267578125 4.1761474609375 53.50879669189453 3 47.5000114440918 3 M 47.5000114440918 0 C 73.73353576660156 0 95.00001525878906 21.26644134521484 95.00001525878906 47.49993515014648 C 95.00001525878906 73.73342895507812 73.73353576660156 94.99987030029297 47.5000114440918 94.99987030029297 C 21.26648712158203 94.99987030029297 7.62939453125e-06 73.73342895507812 7.62939453125e-06 47.49993515014648 C 7.62939453125e-06 21.26644134521484 21.26648712158203 0 47.5000114440918 0 Z" stroke="none" fill="#453179"/>
                                    </g>
                                  </g>
                                </g>
                              </g>
                            </g>
                          </g>
                        </g>
                      </g>
                    </g>
                  </g>
                </g>
              </g>
            </g>
          </g>
        </g>
      </g>
    </g>
    <g id="_06-education" data-name="06-education" transform="translate(1139.095 1191.295)">
      <path id="Trazado_1045758" data-name="Trazado 1045758" d="M13.513,50.919v1.838H8V50h5.513Z" transform="translate(-0.649 -3.649)" fill="#a1aaad"/>
      <rect id="Rectángulo_416202" data-name="Rectángulo 416202" width="5.51" height="2.755" transform="translate(7.364 50.014)" fill="#c1ced1"/>
      <path id="Trazado_1045759" data-name="Trazado 1045759" d="M10.757,14l2.757,6.432-1.838.919H9.838L8,20.432Z" transform="translate(-0.649 -0.73)" fill="#c1ced1"/>
      <path id="Trazado_1045760" data-name="Trazado 1045760" d="M13.513,45.81v1.838H8V21l1.838.919h1.838L13.513,21Z" transform="translate(-0.649 -1.298)" fill="#81ecec"/>
      <path id="Trazado_1045761" data-name="Trazado 1045761" d="M49.351,50.757v4.595l-3.676-3.676L42,55.351V48h7.351Z" transform="translate(-3.406 -3.487)" fill="#8fccff"/>
      <path id="Trazado_1045762" data-name="Trazado 1045762" d="M29.729,44.594H13.189V19.784l-2.757-6.432L7.676,19.784v24.81H4V6H29.729Z" transform="translate(-0.324 -0.081)" fill="#ffeaa7"/>
      <path id="Trazado_1045763" data-name="Trazado 1045763" d="M32,44.594V6H57.729V44.594ZM45.894,10.65c-.414.368-.616.551-1.029.919-.414-.368-.616-.551-1.029-.919a9.189,9.189,0,0,0-4.484,16.485,9.066,9.066,0,0,0,4.484,1.783c.414-.368.616-.551,1.029-.919.414.368.616.551,1.029.919a9.2,9.2,0,0,0,8.16-9.134c0-.312-.018-.616-.046-.919a9.177,9.177,0,0,0-8.114-8.215Z" transform="translate(-2.595 -0.081)" fill="#fdcb6e"/>
      <path id="Trazado_1045764" data-name="Trazado 1045764" d="M45.189,26.184v2.7c-.414.368-.616.551-1.029.919a9.066,9.066,0,0,1-4.484-1.783A9.189,9.189,0,0,1,36.79,16.94l.129.055h4.595v2.757h3.676Z" transform="translate(-2.919 -0.968)" fill="#fab1a0"/>
      <path id="Trazado_1045765" data-name="Trazado 1045765" d="M46,21.345V16.75h3.676V13.994h2.757l.064-.074a9.189,9.189,0,0,1,2.646,5.587c.028.3.046.606.046.919a9.2,9.2,0,0,1-5.458,8.4l-.055-.129V25.02H46Z" transform="translate(-3.73 -0.723)" fill="#fab1a0"/>
      <path id="Trazado_1045766" data-name="Trazado 1045766" d="M47.029,11.06A9.229,9.229,0,0,1,52.5,13.688l-.064.074H49.676v2.757H46V11.979C46.414,11.611,46.616,11.428,47.029,11.06Z" transform="translate(-3.73 -0.491)" fill="#ff7675"/>
      <path id="Trazado_1045767" data-name="Trazado 1045767" d="M49.676,29.676l.055.129a9.11,9.11,0,0,1-2.7.735c-.414-.368-.616-.551-1.029-.919V26h3.676Z" transform="translate(-3.73 -1.703)" fill="#ff7675"/>
      <path id="Trazado_1045768" data-name="Trazado 1045768" d="M45.259,16.518v2.757H41.583V16.518H36.989l-.129-.055a9.2,9.2,0,0,1,7.37-5.4c.414.368.616.551,1.029.919Z" transform="translate(-2.989 -0.491)" fill="#ff7675"/>
      <path id="Trazado_1045769" data-name="Trazado 1045769" d="M7.432,46.594v.919H1V8H3.757V44.756H7.432Z" transform="translate(-0.081 -0.243)" fill="#ff7675"/>
      <path id="Trazado_1045770" data-name="Trazado 1045770" d="M39.729,50.757H14V48H39.729Z" transform="translate(-1.135 -3.487)" fill="#ff7675"/>
      <path id="Trazado_1045771" data-name="Trazado 1045771" d="M61.946,8V47.513H50V44.756h9.189V8Z" transform="translate(-4.055 -0.243)" fill="#ff7675"/>
      <path id="Trazado_1045772" data-name="Trazado 1045772" d="M52.251,12.955a10.181,10.181,0,0,0-6.011-2.889.924.924,0,0,0-.713.226l-.419.375-.419-.375a.919.919,0,0,0-.712-.226,10.112,10.112,0,0,0,0,20.1.919.919,0,0,0,.71-.226l.416-.377.419.375a.919.919,0,0,0,.61.232.815.815,0,0,0,.106-.006,10.026,10.026,0,0,0,2.97-.808,10.128,10.128,0,0,0,6-9.239c0-.341-.019-.671-.051-1.011a10.147,10.147,0,0,0-2.914-6.147Zm-5.819-1.011a8.316,8.316,0,0,1,2.46.818h-.109a.919.919,0,0,0-.919.919v1.838H46.027V12.309Zm-5.92,1.313V14.6h1.838V12.33a8.219,8.219,0,0,1,1.432-.383l.406.363v5.966H42.351V16.437a.919.919,0,0,0-.919-.919H38.249A8.3,8.3,0,0,1,40.513,13.257ZM43.782,28.28a8.166,8.166,0,0,1-3.269-1.308V23.788h1.838V21.951H39.594a.919.919,0,0,0-.919.919V25.3a8.323,8.323,0,0,1-1.784-4.266h1.784V19.194H36.891a8.178,8.178,0,0,1,.427-1.838h3.2v1.838a.919.919,0,0,0,.919.919h2.757v4.595H42.351v1.838h1.838v1.371Zm2.245-.368V25.626h1.838v2.269a8.158,8.158,0,0,1-1.433.383Zm6.856-5.043H50.621v1.838h1.351a8.282,8.282,0,0,1-2.27,2.265V24.707a.919.919,0,0,0-.919-.919H46.027V21.951h2.757a.919.919,0,0,0,.919-.919V18.275H47.864v1.838H46.027V17.356h2.757a.919.919,0,0,0,.919-.919V14.6h1.562a8.323,8.323,0,0,1,1.9,3.676H51.54v1.838h1.838A8.188,8.188,0,0,1,52.882,22.87Z" transform="translate(-2.838 -0.41)"/>
      <rect id="Rectángulo_416203" data-name="Rectángulo 416203" width="14.694" height="0.918" transform="translate(32.16 32.565)"/>
      <rect id="Rectángulo_416204" data-name="Rectángulo 416204" width="14.694" height="1.837" transform="translate(37.67 35.321)"/>
      <rect id="Rectángulo_416205" data-name="Rectángulo 416205" width="20.204" height="0.918" transform="translate(32.16 38.994)"/>
      <rect id="Rectángulo_416206" data-name="Rectángulo 416206" width="4.592" height="1.837" transform="translate(32.16 35.321)"/>
      <rect id="Rectángulo_416207" data-name="Rectángulo 416207" width="2.755" height="0.918" transform="translate(49.609 32.565)"/>
      <path id="Trazado_1045773" data-name="Trazado 1045773" d="M57.891,6.838H56.053V5.919A.919.919,0,0,0,55.134,5H3.676a.919.919,0,0,0-.919.919v.919H.919A.919.919,0,0,0,0,7.757V47.27a.919.919,0,0,0,.919.919H6.432V53.7a.919.919,0,0,0,.919.919h5.513a.919.919,0,0,0,.919-.919V48.188H37.675v3.676a.919.919,0,0,0,1.569.65l3.026-3.026L45.3,52.514a.919.919,0,0,0,1.569-.65V48.188H57.891a.919.919,0,0,0,.919-.919V7.757A.919.919,0,0,0,57.891,6.838Zm-27.567,0H54.215V43.594H30.324Zm-25.729,0H28.486V43.594h-14.7V19.7a.9.9,0,0,0-.081-.359h.006l-2.757-6.432a.919.919,0,0,0-1.689,0L6.507,19.343h.006a.9.9,0,0,0-.081.359V43.594H4.595Zm7.351,38.594H8.27V21.189l.508.255a.919.919,0,0,0,.411.1h1.838a.919.919,0,0,0,.411-.1l.508-.255ZM10.81,19.7h-1.4l-.869-.435L10.108,15.6l1.571,3.665ZM8.27,47.27h3.676v.919H8.27Zm-6.432-.919V8.676h.919V44.513a.919.919,0,0,0,.919.919H6.432v.919ZM8.27,52.783V50.026h3.676v2.757Zm5.513-6.432v-.919H37.675v.919Zm29.136,1.188a.919.919,0,0,0-1.3,0l-2.107,2.107V45.432h5.513v4.214Zm14.053-1.188H46.864v-.919h8.27a.919.919,0,0,0,.919-.919V8.676h.919Z"/>
      <path id="Trazado_1045774" data-name="Trazado 1045774" d="M25.27,30.135H19.757a2.757,2.757,0,0,0,0,5.513H25.27a.9.9,0,0,1,.654.281.879.879,0,0,1,.265.638.919.919,0,0,1-.919.919H21.595a.919.919,0,0,0-.919.919v3.676h1.838V39.324H25.27a2.757,2.757,0,0,0,0-5.513H19.757a.919.919,0,0,1-.919-.919.9.9,0,0,1,.281-.654.879.879,0,0,1,.638-.265H25.27a2.757,2.757,0,0,0,0-5.513H19.757a.919.919,0,0,1-.919-.919V22.784a.919.919,0,0,1,.919-.919H25.27a2.757,2.757,0,0,0,0-5.513H23.432V12.137l1.188,1.188,1.3-1.3L23.163,9.269a.891.891,0,0,0-1.293.006l-.006-.006-2.757,2.757,1.3,1.3,1.187-1.189V17.27a.919.919,0,0,0,.919.919H25.27a.9.9,0,0,1,.654.281.879.879,0,0,1,.265.638.919.919,0,0,1-.919.919H19.757A2.757,2.757,0,0,0,17,22.784V25.54A2.757,2.757,0,0,0,19.757,28.3H25.27a.9.9,0,0,1,.654.281.879.879,0,0,1,.265.638.919.919,0,0,1-.919.919Z" transform="translate(-1.379 -0.324)"/>
    </g>
  </g>
</svg>
