<svg xmlns="http://www.w3.org/2000/svg" xmlns:xlink="http://www.w3.org/1999/xlink" width="113" height="113" viewBox="0 0 113 113">
  <defs>
    <filter id="Trazado_982547" x="0" y="0" width="113" height="113" filterUnits="userSpaceOnUse">
      <feOffset dy="3" input="SourceAlpha"/>
      <feGaussianBlur stdDeviation="3" result="blur"/>
      <feFlood flood-opacity="0.161"/>
      <feComposite operator="in" in2="blur"/>
      <feComposite in="SourceGraphic"/>
    </filter>
  </defs>
  <g id="Grupo_1201528" data-name="Grupo 1201528" transform="translate(1457.51 -1150.518)">
    <g id="Grupo_1177678" data-name="Grupo 1177678" transform="translate(-6744 -769.755)">
      <g id="Grupo_1176928" data-name="Grupo 1176928" transform="translate(5295.49 1926.273)">
        <g id="Grupo_1172322" data-name="Grupo 1172322" transform="translate(0 0)">
          <g id="Grupo_1164700" data-name="Grupo 1164700">
            <g id="Grupo_1160931" data-name="Grupo 1160931">
              <g id="Grupo_1160749" data-name="Grupo 1160749">
                <g id="Grupo_1158891" data-name="Grupo 1158891">
                  <g id="Grupo_1157406" data-name="Grupo 1157406">
                    <g id="Grupo_1155793" data-name="Grupo 1155793">
                      <g id="Grupo_1154704" data-name="Grupo 1154704">
                        <g id="Grupo_1150790" data-name="Grupo 1150790">
                          <g id="Grupo_1154214" data-name="Grupo 1154214">
                            <g id="Grupo_1152583" data-name="Grupo 1152583">
                              <g id="Grupo_1146973" data-name="Grupo 1146973">
                                <g id="Grupo_1146954" data-name="Grupo 1146954">
                                  <g transform="matrix(1, 0, 0, 1, -9, -6)" filter="url(#Trazado_982547)">
                                    <g id="Trazado_982547-2" data-name="Trazado 982547" transform="translate(9 6)" fill="#ebe9f0">
                                      <path d="M 47.5000114440918 93.49987030029297 C 41.28938293457031 93.49987030029297 35.26534652709961 92.28384399414062 29.5951976776123 89.88558959960938 C 24.11773109436035 87.56881713867188 19.19814491271973 84.25183868408203 14.97310447692871 80.02680206298828 C 10.74805164337158 75.80176544189453 7.43107795715332 70.88218688964844 5.114304542541504 65.40472412109375 C 2.716038227081299 59.73458862304688 1.500011444091797 53.71054840087891 1.500011444091797 47.49993515014648 C 1.500011444091797 41.28932189941406 2.716038227081299 35.26528167724609 5.114304542541504 29.59514808654785 C 7.43107795715332 24.1176815032959 10.74805164337158 19.1981086730957 14.97310447692871 14.97306823730469 C 19.19814491271973 10.74802875518799 24.11773109436035 7.431055068969727 29.5951976776123 5.11428165435791 C 35.26534652709961 2.716028451919556 41.28938293457031 1.500001788139343 47.5000114440918 1.500001788139343 C 53.71063995361328 1.500001788139343 59.73467636108398 2.716028451919556 65.40482330322266 5.11428165435791 C 70.88229370117188 7.431055068969727 75.8018798828125 10.74802875518799 80.02691650390625 14.97306823730469 C 84.25196838378906 19.1981086730957 87.56894683837891 24.1176815032959 89.88571929931641 29.59514808654785 C 92.28398132324219 35.26528167724609 93.50001525878906 41.28932189941406 93.50001525878906 47.49993515014648 C 93.50001525878906 53.71054840087891 92.28398132324219 59.73458862304688 89.88571929931641 65.40472412109375 C 87.56894683837891 70.88218688964844 84.25196838378906 75.80176544189453 80.02691650390625 80.02680206298828 C 75.8018798828125 84.25183868408203 70.88229370117188 87.56881713867188 65.40482330322266 89.88558959960938 C 59.73467636108398 92.28384399414062 53.71063995361328 93.49987030029297 47.5000114440918 93.49987030029297 Z" stroke="none"/>
                                      <path d="M 47.5000114440918 3 C 41.49122619628906 3 35.66378021240234 4.1761474609375 30.17951965332031 6.495796203613281 C 24.880859375 8.7369384765625 20.12153625488281 11.94596862792969 16.03376770019531 16.03373718261719 C 11.94598388671875 20.12149047851562 8.736968994140625 24.88081359863281 6.495811462402344 30.17947387695312 C 4.176162719726562 35.66371917724609 3.000007629394531 41.49116516113281 3.000007629394531 47.49993515014648 C 3.000007629394531 53.50870513916016 4.176162719726562 59.33615112304688 6.495811462402344 64.82039642333984 C 8.736968994140625 70.11905670166016 11.94598388671875 74.87837982177734 16.03376770019531 78.96613311767578 C 20.12153625488281 83.05390167236328 24.880859375 86.26293182373047 30.17951965332031 88.50407409667969 C 35.66378021240234 90.82372283935547 41.49122619628906 91.99987030029297 47.5000114440918 91.99987030029297 C 53.50879669189453 91.99987030029297 59.33624267578125 90.82372283935547 64.82050323486328 88.50407409667969 C 70.11916351318359 86.26293182373047 74.87848663330078 83.05390167236328 78.96625518798828 78.96613311767578 C 83.05403900146484 74.87837982177734 86.2630615234375 70.11905670166016 88.50421142578125 64.82039642333984 C 90.82386016845703 59.33615112304688 92.00001525878906 53.50870513916016 92.00001525878906 47.49993515014648 C 92.00001525878906 41.49116516113281 90.82386016845703 35.66371917724609 88.50421142578125 30.17947387695312 C 86.2630615234375 24.88081359863281 83.05403900146484 20.12149047851562 78.96625518798828 16.03373718261719 C 74.87848663330078 11.94596862792969 70.11916351318359 8.7369384765625 64.82050323486328 6.495796203613281 C 59.33624267578125 4.1761474609375 53.50879669189453 3 47.5000114440918 3 M 47.5000114440918 0 C 73.73353576660156 0 95.00001525878906 21.26644134521484 95.00001525878906 47.49993515014648 C 95.00001525878906 73.73342895507812 73.73353576660156 94.99987030029297 47.5000114440918 94.99987030029297 C 21.26648712158203 94.99987030029297 7.62939453125e-06 73.73342895507812 7.62939453125e-06 47.49993515014648 C 7.62939453125e-06 21.26644134521484 21.26648712158203 0 47.5000114440918 0 Z" stroke="none" fill="#453179"/>
                                    </g>
                                  </g>
                                </g>
                              </g>
                            </g>
                          </g>
                        </g>
                      </g>
                    </g>
                  </g>
                </g>
              </g>
            </g>
          </g>
        </g>
      </g>
    </g>
    <g id="education_4694357" transform="translate(-1432 1173)">
      <g id="Grupo_1201526" data-name="Grupo 1201526">
        <g id="Grupo_1201512" data-name="Grupo 1201512">
          <path id="Trazado_1045775" data-name="Trazado 1045775" d="M61,46v2a1,1,0,0,1-1,1H39.62a1,1,0,0,0-.9.55L37,53l-.21.42a6.472,6.472,0,0,1-11.58,0L25,53l-1.72-3.45a1,1,0,0,0-.9-.55H2a1,1,0,0,1-1-1V46a1,1,0,0,1,1-1H22.78a4.023,4.023,0,0,1,3.4,1.88l3.29,5.27a1.8,1.8,0,0,0,3.06,0l3.29-5.27A4.023,4.023,0,0,1,39.22,45H60a1,1,0,0,1,1,1Z" fill="#e6e9ed"/>
        </g>
        <g id="Grupo_1201513" data-name="Grupo 1201513">
          <path id="Trazado_1045776" data-name="Trazado 1045776" d="M60,49v4H37l1.72-3.45a1,1,0,0,1,.9-.55Z" fill="#ccd1d9"/>
        </g>
        <g id="Grupo_1201514" data-name="Grupo 1201514">
          <path id="Trazado_1045777" data-name="Trazado 1045777" d="M23.28,49.55,25,53H2V49H22.38a1,1,0,0,1,.9.55Z" fill="#ccd1d9"/>
        </g>
        <g id="Grupo_1201515" data-name="Grupo 1201515">
          <path id="Trazado_1045778" data-name="Trazado 1045778" d="M25.21,53.42a6.477,6.477,0,0,0,11.58,0L37,53H60a1,1,0,0,1,1,1v2a1,1,0,0,1-1,1H39.24a10.487,10.487,0,0,1-16.48,0H2a1,1,0,0,1-1-1V54a1,1,0,0,1,1-1H25Z" fill="#cf9e76"/>
        </g>
        <g id="Grupo_1201516" data-name="Grupo 1201516">
          <path id="Trazado_1045779" data-name="Trazado 1045779" d="M51,24v4a1,1,0,0,1-1,1H48a1,1,0,0,1-1-1V24a1,1,0,0,1,1-1h2A1,1,0,0,1,51,24Z" fill="#fcd770"/>
        </g>
        <g id="Grupo_1201517" data-name="Grupo 1201517">
          <path id="Trazado_1045780" data-name="Trazado 1045780" d="M51,6V8a1,1,0,0,1-1,1H12a1,1,0,0,1-1-1V6a1,1,0,0,1,1-1H50A1,1,0,0,1,51,6Z" fill="#969faa"/>
        </g>
        <g id="Grupo_1201518" data-name="Grupo 1201518">
          <path id="Trazado_1045781" data-name="Trazado 1045781" d="M35,5H27a4,4,0,1,1,8,0Z" fill="#aab2bd"/>
        </g>
        <g id="Grupo_1201519" data-name="Grupo 1201519">
          <path id="Trazado_1045782" data-name="Trazado 1045782" d="M41,9V20a1,1,0,0,1-1,1H22a1,1,0,0,1-1-1V9Z" fill="#aab2bd"/>
        </g>
        <g id="Grupo_1201520" data-name="Grupo 1201520">
          <circle id="Elipse_12487" data-name="Elipse 12487" cx="10" cy="10" r="10" transform="translate(1 13)" fill="#69d6f4"/>
        </g>
        <g id="Grupo_1201521" data-name="Grupo 1201521">
          <path id="Trazado_1045783" data-name="Trazado 1045783" d="M33,21h4V37H33Z" fill="#b4dd7f"/>
        </g>
        <g id="Grupo_1201522" data-name="Grupo 1201522">
          <path id="Trazado_1045784" data-name="Trazado 1045784" d="M25,21h4V37H25Z" fill="#b4dd7f"/>
        </g>
        <g id="Grupo_1201523" data-name="Grupo 1201523">
          <path id="Trazado_1045785" data-name="Trazado 1045785" d="M29,21h4V37H29Z" fill="#ff826e"/>
        </g>
        <g id="Grupo_1201524" data-name="Grupo 1201524">
          <path id="Trazado_1045786" data-name="Trazado 1045786" d="M37,37l-3,6H28l-3-6H37Z" fill="#ccd1d9"/>
        </g>
        <g id="Grupo_1201525" data-name="Grupo 1201525">
          <path id="Trazado_1045787" data-name="Trazado 1045787" d="M34,43l-1.55,3.11a1.626,1.626,0,0,1-2.9,0L28,43Z" fill="#969faa"/>
        </g>
      </g>
      <g id="Grupo_1201527" data-name="Grupo 1201527">
        <path id="Trazado_1045788" data-name="Trazado 1045788" d="M35.9,52.975a5.473,5.473,0,0,1-9.79,0L25.618,52H2a2,2,0,0,0-2,2v2a2,2,0,0,0,2,2H22.289a11.485,11.485,0,0,0,17.422,0H62V52H36.382ZM37.617,54H60v2H38.75l-.3.384a9.482,9.482,0,0,1-14.9,0L23.25,56H2V54H24.383a7.473,7.473,0,0,0,13.234,0Z"/>
        <path id="Trazado_1045789" data-name="Trazado 1045789" d="M60,44H39.217a4.971,4.971,0,0,0-4.24,2.35l-3.3,5.272a.831.831,0,0,1-1.363,0l-3.3-5.272A4.973,4.973,0,0,0,22.784,44H2a2,2,0,0,0-2,2v2a2,2,0,0,0,2,2H22V48H2V46H22.783a2.98,2.98,0,0,1,2.543,1.41l3.3,5.271a2.8,2.8,0,0,0,4.757,0l3.3-5.272A2.981,2.981,0,0,1,39.216,46H60v2H40v2H60a2,2,0,0,0,2-2V46a2,2,0,0,0-2-2Z"/>
        <path id="Trazado_1045790" data-name="Trazado 1045790" d="M44,40h6v2H44Z"/>
        <path id="Trazado_1045791" data-name="Trazado 1045791" d="M52,40h2v2H52Z"/>
        <path id="Trazado_1045792" data-name="Trazado 1045792" d="M56,40h2v2H56Z"/>
        <path id="Trazado_1045793" data-name="Trazado 1045793" d="M44,36H58v2H44Z"/>
        <path id="Trazado_1045794" data-name="Trazado 1045794" d="M44,32H58v2H44Z"/>
        <path id="Trazado_1045795" data-name="Trazado 1045795" d="M10,36h2v2H10Z"/>
        <path id="Trazado_1045796" data-name="Trazado 1045796" d="M14,36h2v2H14Z"/>
        <path id="Trazado_1045797" data-name="Trazado 1045797" d="M6,36H8v2H6Z"/>
        <path id="Trazado_1045798" data-name="Trazado 1045798" d="M11,34A11.013,11.013,0,0,0,22,23c0-.339-.021-.674-.051-1,.017,0,.034,0,.051,0h2V37.236l4.658,9.316a2.618,2.618,0,0,0,4.684,0L38,37.236V22h2a2,2,0,0,0,2-2V10h6V22a2,2,0,0,0-2,2v4a2,2,0,0,0,2,2h2a2,2,0,0,0,2-2V24a2,2,0,0,0-2-2V10a2,2,0,0,0,2-2V6a2,2,0,0,0-2-2H35.9a5,5,0,0,0-9.8,0H12a2,2,0,0,0-2,2V8a2,2,0,0,0,2,2h8v6.695A11,11,0,1,0,11,34Zm39-6H48V24h2ZM28,22V36H26V22ZM26.618,38h8.764l-2,4H28.618ZM30,36V22h2V36Zm.447,9.658L29.618,44h2.764l-.829,1.659a.642.642,0,0,1-1.106,0ZM36,36H34V22h2ZM31,2a3,3,0,0,1,2.816,2H28.185A2.994,2.994,0,0,1,31,2ZM12,6H50V8H12Zm28,4V20H22V10ZM3.522,28H6.91a14.27,14.27,0,0,0,1.476,2.883l.586.878A9.024,9.024,0,0,1,3.522,28ZM2,23a8.936,8.936,0,0,1,.525-3h3.8a14.136,14.136,0,0,0,0,6h-3.8A8.936,8.936,0,0,1,2,23Zm9-8.2.949,1.424A12.256,12.256,0,0,1,12.924,18H9.076a12.2,12.2,0,0,1,.975-1.773ZM13.62,20A12.193,12.193,0,0,1,14,23a12.241,12.241,0,0,1-.38,3H8.38a12.032,12.032,0,0,1,0-6ZM20,23a8.936,8.936,0,0,1-.525,3h-3.8a14.136,14.136,0,0,0,0-6h3.8A8.936,8.936,0,0,1,20,23Zm-9,8.2-.949-1.424A12.2,12.2,0,0,1,9.076,28h3.848a12.2,12.2,0,0,1-.975,1.773Zm2.028.564.586-.878A14.193,14.193,0,0,0,15.09,28h3.388a9.024,9.024,0,0,1-5.45,3.761ZM18.478,18H15.09a14.27,14.27,0,0,0-1.476-2.883l-.586-.878A9.024,9.024,0,0,1,18.478,18ZM8.972,14.239l-.586.878A14.27,14.27,0,0,0,6.91,18H3.522a9.024,9.024,0,0,1,5.45-3.761Z"/>
      </g>
    </g>
  </g>
</svg>
