<svg xmlns="http://www.w3.org/2000/svg" xmlns:xlink="http://www.w3.org/1999/xlink" width="108" height="108" viewBox="0 0 108 108">
  <defs>
    <filter id="Trazado_904820" x="0" y="0" width="108" height="108" filterUnits="userSpaceOnUse">
      <feOffset dy="3" input="SourceAlpha"/>
      <feGaussianBlur stdDeviation="3" result="blur"/>
      <feFlood flood-opacity="0.161"/>
      <feComposite operator="in" in2="blur"/>
      <feComposite in="SourceGraphic"/>
    </filter>
  </defs>
  <g id="Grupo_1177681" data-name="Grupo 1177681" transform="translate(9 6)">
    <g id="Grupo_1173585" data-name="Grupo 1173585" transform="translate(0 0)">
      <g id="Grupo_1173428" data-name="Grupo 1173428">
        <g id="Grupo_1171958" data-name="Grupo 1171958">
          <g id="Grupo_1167341" data-name="Grupo 1167341">
            <g id="Grupo_1166792" data-name="Grupo 1166792">
              <g transform="matrix(1, 0, 0, 1, -9, -6)" filter="url(#Trazado_904820)">
                <g id="Trazado_904820-2" data-name="Trazado 904820" transform="translate(9 6)" fill="#fdfbec">
                  <path d="M 44.99999618530273 88.49999237060547 C 39.12687301635742 88.49999237060547 33.43022155761719 87.35006713867188 28.06829643249512 85.08216857910156 C 22.88852119445801 82.89130401611328 18.23629570007324 79.75457763671875 14.24084663391113 75.75914001464844 C 10.24540901184082 71.76369476318359 7.108683586120605 67.11146545410156 4.917821407318115 61.93169403076172 C 2.649921178817749 56.56976699829102 1.499996185302734 50.87311553955078 1.499996185302734 44.99999237060547 C 1.499996185302734 39.12686920166016 2.649921178817749 33.43021774291992 4.917821407318115 28.06829261779785 C 7.108683586120605 22.88851737976074 10.24540901184082 18.23630523681641 14.24084663391113 14.24085521697998 C 18.23629570007324 10.24540519714355 22.88852119445801 7.108692169189453 28.06829643249512 4.917829990386963 C 33.43022155761719 2.649929761886597 39.12687301635742 1.500004887580872 44.99999618530273 1.500004887580872 C 50.87311935424805 1.500004887580872 56.56977081298828 2.649929761886597 61.93169784545898 4.917829990386963 C 67.11147308349609 7.108692169189453 71.76369476318359 10.24540519714355 75.75914764404297 14.24085521697998 C 79.75458526611328 18.23630523681641 82.89131164550781 22.88851737976074 85.08216857910156 28.06829261779785 C 87.35007476806641 33.43021774291992 88.5 39.12686920166016 88.5 44.99999237060547 C 88.5 50.87311553955078 87.35007476806641 56.56976699829102 85.08216857910156 61.93169403076172 C 82.89131164550781 67.11146545410156 79.75458526611328 71.76369476318359 75.75914764404297 75.75914001464844 C 71.76369476318359 79.75457763671875 67.11147308349609 82.89130401611328 61.93169784545898 85.08216857910156 C 56.56977081298828 87.35006713867188 50.87311935424805 88.49999237060547 44.99999618530273 88.49999237060547 Z" stroke="none"/>
                  <path d="M 44.99999618530273 2.999992370605469 C 39.32870864868164 2.999992370605469 33.82865142822266 4.11004638671875 28.65262603759766 6.299331665039062 C 23.65165710449219 8.414566040039062 19.15968322753906 11.44333648681641 15.301513671875 15.30150604248047 C 11.44333648681641 19.15967559814453 8.414566040039062 23.65164947509766 6.299339294433594 28.65262222290039 C 4.110054016113281 33.82864761352539 2.999992370605469 39.32870483398438 2.999992370605469 44.99999237060547 C 2.999992370605469 50.67127990722656 4.110054016113281 56.17132186889648 6.299339294433594 61.34736633300781 C 8.414566040039062 66.34833526611328 11.44333648681641 70.84029388427734 15.301513671875 74.69846343994141 C 19.15968322753906 78.55663299560547 23.65165710449219 81.58540344238281 28.65262603759766 83.70063781738281 C 33.82865142822266 85.88992309570312 39.32870864868164 86.99997711181641 44.99999618530273 86.99997711181641 C 50.67128372192383 86.99997711181641 56.17134094238281 85.88992309570312 61.34736633300781 83.70063781738281 C 66.34834289550781 81.58540344238281 70.84030914306641 78.55663299560547 74.69847869873047 74.69846343994141 C 78.55665588378906 70.84029388427734 81.58542633056641 66.34833526611328 83.70065307617188 61.34736633300781 C 85.88993835449219 56.17132186889648 87 50.67127990722656 87 44.99999237060547 C 87 39.32870483398438 85.88993835449219 33.82864761352539 83.70065307617188 28.65262222290039 C 81.58542633056641 23.65164947509766 78.55665588378906 19.15967559814453 74.69847869873047 15.30150604248047 C 70.84030914306641 11.44333648681641 66.34834289550781 8.414566040039062 61.34736633300781 6.299331665039062 C 56.17134094238281 4.11004638671875 50.67128372192383 2.999992370605469 44.99999618530273 2.999992370605469 M 44.99999618530273 -7.62939453125e-06 C 69.85281372070312 -7.62939453125e-06 90 20.14717864990234 90 44.99999237060547 C 90 69.85279083251953 69.85281372070312 89.99997711181641 44.99999618530273 89.99997711181641 C 20.14717864990234 89.99997711181641 -7.62939453125e-06 69.85279083251953 -7.62939453125e-06 44.99999237060547 C -7.62939453125e-06 20.14717864990234 20.14717864990234 -7.62939453125e-06 44.99999618530273 -7.62939453125e-06 Z" stroke="none" fill="#83793c"/>
                </g>
              </g>
            </g>
          </g>
        </g>
      </g>
    </g>
    <g id="book_1963590_1_" data-name="book_1963590 (1)" transform="translate(16.382 16.178)">
      <path id="Trazado_1045832" data-name="Trazado 1045832" d="M3,18H54.8V54.614H3Z" transform="translate(-0.107 -1.498)" fill="#ff5023"/>
      <path id="Trazado_1045833" data-name="Trazado 1045833" d="M54.326,14V50.614H35.572A3.572,3.572,0,0,0,32,54.186V17.572A3.572,3.572,0,0,1,35.572,14Z" transform="translate(-3.209 -1.07)" fill="#ffdaaa"/>
      <path id="Trazado_1045834" data-name="Trazado 1045834" d="M29.326,17.572V54.186a3.572,3.572,0,0,0-3.572-3.572H7V14H25.754A3.572,3.572,0,0,1,29.326,17.572Z" transform="translate(-0.535 -1.07)" fill="#ffb655"/>
      <circle id="Elipse_12491" data-name="Elipse 12491" cx="5.5" cy="5.5" r="5.5" transform="translate(18.791 35.005)" fill="#bdfdff"/>
      <circle id="Elipse_12492" data-name="Elipse 12492" cx="5.5" cy="5.5" r="5.5" transform="translate(32.791 35.005)" fill="#bdfdff"/>
      <path id="Trazado_1045835" data-name="Trazado 1045835" d="M11,11h5.358v3.572H11Z" transform="translate(-0.963 -0.749)" fill="#a7adf0"/>
      <path id="Trazado_1045836" data-name="Trazado 1045836" d="M16.358,7.679v2.679H11V7.679a2.679,2.679,0,1,1,5.358,0Z" transform="translate(-0.963 -0.107)" fill="#57565c"/>
      <path id="Trazado_1045837" data-name="Trazado 1045837" d="M16.107,37l-2.393,5.358L11.32,37Z" transform="translate(-0.997 -3.53)" fill="#57565c"/>
      <path id="Trazado_1045838" data-name="Trazado 1045838" d="M16.358,15V34.065l-.286.581H11.286L11,34.065V15Z" transform="translate(-0.963 -1.177)" fill="#d80027"/>
      <path id="Trazado_1045839" data-name="Trazado 1045839" d="M13,15h1.786V34.647H13Z" transform="translate(-1.177 -1.177)" fill="#e03352"/>
      <path id="Trazado_1045840" data-name="Trazado 1045840" d="M54.689,15.609H52.01V12.93a.893.893,0,0,0-.893-.893H32.363a4.449,4.449,0,0,0-3.572,1.814,4.449,4.449,0,0,0-3.572-1.814h-8.93V7.572a3.572,3.572,0,1,0-7.144,0v4.465H6.465a.893.893,0,0,0-.893.893v2.679H2.893A.893.893,0,0,0,2,16.5V53.116a.893.893,0,0,0,.893.893h51.8a.893.893,0,0,0,.893-.893V16.5A.893.893,0,0,0,54.689,15.609ZM32.363,13.823H50.223V48.651H32.363a4.441,4.441,0,0,0-2.679.893V43.817a6.2,6.2,0,0,0,.822-2.31h1.929a6.243,6.243,0,0,0,12.359,0h2.054l.447,1.786H45.758v1.786h2.679A.893.893,0,0,0,49.3,43.97L48.411,40.4a.893.893,0,0,0-.866-.677H44.794a6.243,6.243,0,0,0-12.359,0H30.505a6.2,6.2,0,0,0-.822-2.31V16.5a2.679,2.679,0,0,1,2.679-2.679ZM28.791,40.614a4.465,4.465,0,1,1-4.465-4.465A4.465,4.465,0,0,1,28.791,40.614Zm5.358,0a4.465,4.465,0,1,1,4.465,4.465,4.465,4.465,0,0,1-4.465-4.465ZM14.5,12.93H10.93V11.144H14.5Zm0,19.647H10.93V14.716H14.5Zm-.767,1.786-1.019,2.278L11.7,34.363ZM12.716,5.786A1.786,1.786,0,0,1,14.5,7.572V9.358H10.93V7.572A1.786,1.786,0,0,1,12.716,5.786ZM7.358,13.823H9.144V32.839a.881.881,0,0,0,.078.364L11.9,39.192a.893.893,0,0,0,1.631,0L16.211,33.2a.881.881,0,0,0,.078-.364V13.823h8.93A2.679,2.679,0,0,1,27.9,16.5V35.492a6.236,6.236,0,0,0-9.752,4.229H15.4a.893.893,0,0,0-.866.677l-.893,3.572a.893.893,0,0,0,.866,1.109h2.679V43.293H15.646l.447-1.786h2.054A6.236,6.236,0,0,0,27.9,45.737v3.831a4.419,4.419,0,0,0-2.679-.916H7.358ZM3.786,17.4H5.572V49.544a.893.893,0,0,0,.893.893H25.219a2.679,2.679,0,0,1,2.515,1.786H3.786ZM53.8,52.223H29.848a2.679,2.679,0,0,1,2.515-1.786H51.116a.893.893,0,0,0,.893-.893V17.4H53.8Z"/>
      <path id="Trazado_1045841" data-name="Trazado 1045841" d="M23,44.572h1.786a1.786,1.786,0,0,1,1.786-1.786V41A3.572,3.572,0,0,0,23,44.572Z" transform="translate(-2.246 -3.958)"/>
      <path id="Trazado_1045842" data-name="Trazado 1045842" d="M42.572,42.786V41A3.572,3.572,0,0,0,39,44.572h1.786A1.786,1.786,0,0,1,42.572,42.786Z" transform="translate(-3.958 -3.958)"/>
      <path id="Trazado_1045843" data-name="Trazado 1045843" d="M35,17H51.968v1.786H35Z" transform="translate(-3.53 -1.391)"/>
      <path id="Trazado_1045844" data-name="Trazado 1045844" d="M35,23h7.144v1.786H35Z" transform="translate(-3.53 -2.032)"/>
      <path id="Trazado_1045845" data-name="Trazado 1045845" d="M35,29H46.609v1.786H35Z" transform="translate(-3.53 -2.674)"/>
      <path id="Trazado_1045846" data-name="Trazado 1045846" d="M35,35h3.572v1.786H35Z" transform="translate(-3.53 -3.316)"/>
      <path id="Trazado_1045847" data-name="Trazado 1045847" d="M45,23h8.037v1.786H45Z" transform="translate(-4.6 -2.032)"/>
      <path id="Trazado_1045848" data-name="Trazado 1045848" d="M50,29h3.572v1.786H50Z" transform="translate(-5.135 -2.674)"/>
      <path id="Trazado_1045849" data-name="Trazado 1045849" d="M41,35H52.609v1.786H41Z" transform="translate(-4.172 -3.316)"/>
    </g>
  </g>
</svg>
