<svg xmlns="http://www.w3.org/2000/svg" xmlns:xlink="http://www.w3.org/1999/xlink" width="113" height="113" viewBox="0 0 113 113">
  <defs>
    <filter id="Trazado_982547" x="0" y="0" width="113" height="113" filterUnits="userSpaceOnUse">
      <feOffset dy="3" input="SourceAlpha"/>
      <feGaussianBlur stdDeviation="3" result="blur"/>
      <feFlood flood-opacity="0.161"/>
      <feComposite operator="in" in2="blur"/>
      <feComposite in="SourceGraphic"/>
    </filter>
  </defs>
  <g id="Grupo_1177685" data-name="Grupo 1177685" transform="translate(-5286.49 -1920.273)">
    <g id="Grupo_1176928" data-name="Grupo 1176928" transform="translate(5295.49 1926.273)">
      <g id="Grupo_1172322" data-name="Grupo 1172322" transform="translate(0 0)">
        <g id="Grupo_1164700" data-name="Grupo 1164700">
          <g id="Grupo_1160931" data-name="Grupo 1160931">
            <g id="Grupo_1160749" data-name="Grupo 1160749">
              <g id="Grupo_1158891" data-name="Grupo 1158891">
                <g id="Grupo_1157406" data-name="Grupo 1157406">
                  <g id="Grupo_1155793" data-name="Grupo 1155793">
                    <g id="Grupo_1154704" data-name="Grupo 1154704">
                      <g id="Grupo_1150790" data-name="Grupo 1150790">
                        <g id="Grupo_1154214" data-name="Grupo 1154214">
                          <g id="Grupo_1152583" data-name="Grupo 1152583">
                            <g id="Grupo_1146973" data-name="Grupo 1146973">
                              <g id="Grupo_1146954" data-name="Grupo 1146954">
                                <g transform="matrix(1, 0, 0, 1, -9, -6)" filter="url(#Trazado_982547)">
                                  <g id="Trazado_982547-2" data-name="Trazado 982547" transform="translate(9 6)" fill="#f2f7e5">
                                    <path d="M 47.5000114440918 93.49987030029297 C 41.28938293457031 93.49987030029297 35.26534652709961 92.28384399414062 29.5951976776123 89.88558959960938 C 24.11773109436035 87.56881713867188 19.19814491271973 84.25183868408203 14.97310447692871 80.02680206298828 C 10.74805164337158 75.80176544189453 7.43107795715332 70.88218688964844 5.114304542541504 65.40472412109375 C 2.716038227081299 59.73458862304688 1.500011444091797 53.71054840087891 1.500011444091797 47.49993515014648 C 1.500011444091797 41.28932189941406 2.716038227081299 35.26528167724609 5.114304542541504 29.59514808654785 C 7.43107795715332 24.1176815032959 10.74805164337158 19.1981086730957 14.97310447692871 14.97306823730469 C 19.19814491271973 10.74802875518799 24.11773109436035 7.431055068969727 29.5951976776123 5.11428165435791 C 35.26534652709961 2.716028451919556 41.28938293457031 1.500001788139343 47.5000114440918 1.500001788139343 C 53.71063995361328 1.500001788139343 59.73467636108398 2.716028451919556 65.40482330322266 5.11428165435791 C 70.88229370117188 7.431055068969727 75.8018798828125 10.74802875518799 80.02691650390625 14.97306823730469 C 84.25196838378906 19.1981086730957 87.56894683837891 24.1176815032959 89.88571929931641 29.59514808654785 C 92.28398132324219 35.26528167724609 93.50001525878906 41.28932189941406 93.50001525878906 47.49993515014648 C 93.50001525878906 53.71054840087891 92.28398132324219 59.73458862304688 89.88571929931641 65.40472412109375 C 87.56894683837891 70.88218688964844 84.25196838378906 75.80176544189453 80.02691650390625 80.02680206298828 C 75.8018798828125 84.25183868408203 70.88229370117188 87.56881713867188 65.40482330322266 89.88558959960938 C 59.73467636108398 92.28384399414062 53.71063995361328 93.49987030029297 47.5000114440918 93.49987030029297 Z" stroke="none"/>
                                    <path d="M 47.5000114440918 3 C 41.49122619628906 3 35.66378021240234 4.1761474609375 30.17951965332031 6.495796203613281 C 24.880859375 8.7369384765625 20.12153625488281 11.94596862792969 16.03376770019531 16.03373718261719 C 11.94598388671875 20.12149047851562 8.736968994140625 24.88081359863281 6.495811462402344 30.17947387695312 C 4.176162719726562 35.66371917724609 3.000007629394531 41.49116516113281 3.000007629394531 47.49993515014648 C 3.000007629394531 53.50870513916016 4.176162719726562 59.33615112304688 6.495811462402344 64.82039642333984 C 8.736968994140625 70.11905670166016 11.94598388671875 74.87837982177734 16.03376770019531 78.96613311767578 C 20.12153625488281 83.05390167236328 24.880859375 86.26293182373047 30.17951965332031 88.50407409667969 C 35.66378021240234 90.82372283935547 41.49122619628906 91.99987030029297 47.5000114440918 91.99987030029297 C 53.50879669189453 91.99987030029297 59.33624267578125 90.82372283935547 64.82050323486328 88.50407409667969 C 70.11916351318359 86.26293182373047 74.87848663330078 83.05390167236328 78.96625518798828 78.96613311767578 C 83.05403900146484 74.87837982177734 86.2630615234375 70.11905670166016 88.50421142578125 64.82039642333984 C 90.82386016845703 59.33615112304688 92.00001525878906 53.50870513916016 92.00001525878906 47.49993515014648 C 92.00001525878906 41.49116516113281 90.82386016845703 35.66371917724609 88.50421142578125 30.17947387695312 C 86.2630615234375 24.88081359863281 83.05403900146484 20.12149047851562 78.96625518798828 16.03373718261719 C 74.87848663330078 11.94596862792969 70.11916351318359 8.7369384765625 64.82050323486328 6.495796203613281 C 59.33624267578125 4.1761474609375 53.50879669189453 3 47.5000114440918 3 M 47.5000114440918 0 C 73.73353576660156 0 95.00001525878906 21.26644134521484 95.00001525878906 47.49993515014648 C 95.00001525878906 73.73342895507812 73.73353576660156 94.99987030029297 47.5000114440918 94.99987030029297 C 21.26648712158203 94.99987030029297 7.62939453125e-06 73.73342895507812 7.62939453125e-06 47.49993515014648 C 7.62939453125e-06 21.26644134521484 21.26648712158203 0 47.5000114440918 0 Z" stroke="none" fill="#86b60c"/>
                                  </g>
                                </g>
                              </g>
                            </g>
                          </g>
                        </g>
                      </g>
                    </g>
                  </g>
                </g>
              </g>
            </g>
          </g>
        </g>
      </g>
    </g>
    <g id="task-list_5862301" transform="translate(5315.868 1946.054)">
      <g id="Grupo_1201618" data-name="Grupo 1201618" transform="translate(0.864 0.864)">
        <g id="Grupo_1201605" data-name="Grupo 1201605" transform="translate(2.592 43.198)">
          <path id="Trazado_1045887" data-name="Trazado 1045887" d="M50.653,51v3.456H30.99a8.185,8.185,0,0,0-3.663.864,8.185,8.185,0,0,0-3.663-.864H4V51H23.664a8.185,8.185,0,0,1,3.663.864A8.185,8.185,0,0,1,30.99,51Z" transform="translate(-4 -51)" fill="#f0d0b4"/>
        </g>
        <g id="Grupo_1201606" data-name="Grupo 1201606" transform="translate(0 46.653)">
          <path id="Trazado_1045888" data-name="Trazado 1045888" d="M52.837,55.864v1.728a.866.866,0,0,1-.864.864H29.51l-.1.181a2.789,2.789,0,0,1-4.994,0l-.1-.181H1.864A.866.866,0,0,1,1,57.592V55.864A.866.866,0,0,1,1.864,55H23.255a8.185,8.185,0,0,1,3.663.864A8.185,8.185,0,0,1,30.582,55H51.973A.866.866,0,0,1,52.837,55.864Z" transform="translate(-1 -55)" fill="#cf9e76"/>
        </g>
        <g id="Grupo_1201607" data-name="Grupo 1201607" transform="translate(3.456 34.558)">
          <path id="Trazado_1045889" data-name="Trazado 1045889" d="M15.367,41l-3.931,7.871a1.4,1.4,0,0,1-2.505,0L5,41H15.367Z" transform="translate(-5 -41)" fill="#ccd1d9"/>
        </g>
        <g id="Grupo_1201608" data-name="Grupo 1201608" transform="translate(10.367 19.007)">
          <path id="Trazado_1045890" data-name="Trazado 1045890" d="M16.456,33.367v5.184H13v-14A8.614,8.614,0,0,0,16.456,23Z" transform="translate(-13 -23)" fill="#b4dd7f"/>
        </g>
        <g id="Grupo_1201609" data-name="Grupo 1201609" transform="translate(3.456 19.007)">
          <path id="Trazado_1045891" data-name="Trazado 1045891" d="M8.456,24.555v14H5V23A8.614,8.614,0,0,0,8.456,24.555Z" transform="translate(-5 -23)" fill="#b4dd7f"/>
        </g>
        <g id="Grupo_1201610" data-name="Grupo 1201610" transform="translate(6.912 20.562)">
          <path id="Trazado_1045892" data-name="Trazado 1045892" d="M12.456,24.8v14H9v-14a8.726,8.726,0,0,0,3.456,0Z" transform="translate(-9 -24.8)" fill="#ff826e"/>
        </g>
        <g id="Grupo_1201611" data-name="Grupo 1201611" transform="translate(13.823 5.184)">
          <path id="Trazado_1045893" data-name="Trazado 1045893" d="M49.83,9.592V28.6a2.588,2.588,0,0,1-2.592,2.592H33.415l-2.246,3a1.166,1.166,0,0,1-.924.458A1.154,1.154,0,0,1,29.1,33.5V31.191H17V20.823A8.64,8.64,0,0,0,17,7H47.238A2.588,2.588,0,0,1,49.83,9.592Z" transform="translate(-17 -7)" fill="#e6e9ed"/>
        </g>
        <g id="Grupo_1201612" data-name="Grupo 1201612" transform="translate(6.912)">
          <path id="Trazado_1045894" data-name="Trazado 1045894" d="M12.456,1V4.629A8.726,8.726,0,0,0,9,4.629V1Z" transform="translate(-9 -1)" fill="#ccd1d9"/>
        </g>
        <g id="Grupo_1201613" data-name="Grupo 1201613" transform="translate(0 3.456)">
          <path id="Trazado_1045895" data-name="Trazado 1045895" d="M14.823,6.728a8.6,8.6,0,1,1-3.456-1.555A8.631,8.631,0,0,1,14.823,6.728Z" transform="translate(-1 -5)" fill="#75b1f2"/>
        </g>
        <g id="Grupo_1201614" data-name="Grupo 1201614" transform="translate(6.912 10.367)">
          <ellipse id="Elipse_12494" data-name="Elipse 12494" cx="1.5" cy="2" rx="1.5" ry="2" transform="translate(0.007 -0.449)" fill="#ff826e"/>
        </g>
        <g id="Grupo_1201615" data-name="Grupo 1201615" transform="translate(38.878 36.286)">
          <ellipse id="Elipse_12495" data-name="Elipse 12495" cx="1.5" cy="2" rx="1.5" ry="2" transform="translate(0.04 -0.367)" fill="#ff826e"/>
        </g>
        <g id="Grupo_1201616" data-name="Grupo 1201616" transform="translate(31.966 36.286)">
          <circle id="Elipse_12496" data-name="Elipse 12496" cx="2" cy="2" r="2" transform="translate(-0.048 -0.367)" fill="#ff826e"/>
        </g>
        <g id="Grupo_1201617" data-name="Grupo 1201617" transform="translate(25.055 36.286)">
          <circle id="Elipse_12497" data-name="Elipse 12497" cx="2" cy="2" r="2" transform="translate(-0.136 -0.367)" fill="#ff826e"/>
        </g>
      </g>
      <g id="Grupo_1201619" data-name="Grupo 1201619">
        <path id="Trazado_1045896" data-name="Trazado 1045896" d="M3.456,20.285V35.626L7.242,43.2H3.456v1.728H23.123A7.345,7.345,0,0,1,26.4,45.7l.386.193.386-.194a7.357,7.357,0,0,1,3.274-.773H50.109V43.2H30.442a9.109,9.109,0,0,0-3.66.773,9.123,9.123,0,0,0-3.66-.772H11.765l3.786-7.572V31.1H25.919v1.44a2.016,2.016,0,0,0,3.629,1.21l1.987-2.65H44.925a3.459,3.459,0,0,0,3.456-3.456V8.64a3.459,3.459,0,0,0-3.456-3.456H14.951A9.467,9.467,0,0,0,12.1,3.824v-2.1h1.728V0H5.184V1.728H6.912v2.1A9.493,9.493,0,0,0,3.456,20.285Zm3.456,1.81V34.558H5.184V21.414A9.481,9.481,0,0,0,6.912,22.095Zm6.378,14.191L9.981,42.9a.553.553,0,0,1-.955,0L5.718,36.286ZM12.1,34.558V22.095a9.419,9.419,0,0,0,1.728-.681V34.558Zm-1.728,0H8.64V22.419c.285.026.572.044.864.044s.579-.018.864-.044ZM46.653,8.64V27.646a1.73,1.73,0,0,1-1.728,1.728H30.67l-2.5,3.34a.3.3,0,0,1-.519-.173V29.374h-12.1v-9.09A9.489,9.489,0,0,0,16.829,6.912h28.1A1.73,1.73,0,0,1,46.653,8.64ZM8.64,1.728h1.728V3.5c-.285-.026-.572-.044-.864-.044s-.579.018-.864.044ZM9.5,5.184a7.776,7.776,0,1,1-7.776,7.776A7.784,7.784,0,0,1,9.5,5.184Z"/>
        <path id="Trazado_1045897" data-name="Trazado 1045897" d="M10.592,16.64a2.588,2.588,0,0,0,2.433-1.728h1.887V13.184H13.025a2.589,2.589,0,0,0-1.569-1.569V8H9.728v3.615a2.586,2.586,0,0,0,.864,5.025Zm0-3.456a.864.864,0,1,1-.864.864A.865.865,0,0,1,10.592,13.184Z" transform="translate(-1.088 -1.088)"/>
        <path id="Trazado_1045898" data-name="Trazado 1045898" d="M51.837,54H30.442a9.109,9.109,0,0,0-3.66.773A9.109,9.109,0,0,0,23.123,54H1.728A1.73,1.73,0,0,0,0,55.728v1.728a1.73,1.73,0,0,0,1.728,1.728H23.673a3.662,3.662,0,0,0,6.219,0H51.837a1.73,1.73,0,0,0,1.728-1.728V55.728A1.73,1.73,0,0,0,51.837,54Zm0,3.456h-23l-.33.66a1.932,1.932,0,0,1-3.456,0l-.33-.66h-23V55.728H23.123A7.345,7.345,0,0,1,26.4,56.5l.386.193.386-.194a7.357,7.357,0,0,1,3.274-.773H51.837Z" transform="translate(0 -7.347)"/>
        <path id="Trazado_1045899" data-name="Trazado 1045899" d="M31.592,42a2.592,2.592,0,1,0,2.592,2.592A2.6,2.6,0,0,0,31.592,42Zm0,3.456a.864.864,0,1,1,.864-.864A.865.865,0,0,1,31.592,45.456Z" transform="translate(-3.945 -5.714)"/>
        <path id="Trazado_1045900" data-name="Trazado 1045900" d="M37,44.592A2.592,2.592,0,1,0,39.592,42,2.6,2.6,0,0,0,37,44.592Zm3.456,0a.864.864,0,1,1-.864-.864A.865.865,0,0,1,40.456,44.592Z" transform="translate(-5.034 -5.714)"/>
        <path id="Trazado_1045901" data-name="Trazado 1045901" d="M45,44.592A2.592,2.592,0,1,0,47.592,42,2.6,2.6,0,0,0,45,44.592Zm3.456,0a.864.864,0,1,1-.864-.864A.865.865,0,0,1,48.456,44.592Z" transform="translate(-6.122 -5.714)"/>
        <path id="Trazado_1045902" data-name="Trazado 1045902" d="M51.7,27.515l-1.222-1.222-2.845,2.845-1.117-1.117-1.222,1.222,2.339,2.339Z" transform="translate(-6.162 -3.577)"/>
        <path id="Trazado_1045903" data-name="Trazado 1045903" d="M24,30H41.279v1.728H24Z" transform="translate(-3.265 -4.081)"/>
        <path id="Trazado_1045904" data-name="Trazado 1045904" d="M24,26h1.728v1.728H24Z" transform="translate(-3.265 -3.537)"/>
        <path id="Trazado_1045905" data-name="Trazado 1045905" d="M28,26H41.823v1.728H28Z" transform="translate(-3.809 -3.537)"/>
        <path id="Trazado_1045906" data-name="Trazado 1045906" d="M51.7,19.515l-1.222-1.222-2.845,2.845-1.117-1.117-1.222,1.222,2.339,2.339Z" transform="translate(-6.162 -2.489)"/>
        <path id="Trazado_1045907" data-name="Trazado 1045907" d="M24,22H41.279v1.728H24Z" transform="translate(-3.265 -2.993)"/>
        <path id="Trazado_1045908" data-name="Trazado 1045908" d="M24,18h1.728v1.728H24Z" transform="translate(-3.265 -2.449)"/>
        <path id="Trazado_1045909" data-name="Trazado 1045909" d="M28,18H41.823v1.728H28Z" transform="translate(-3.809 -2.449)"/>
        <path id="Trazado_1045910" data-name="Trazado 1045910" d="M51.7,11.515l-1.222-1.222-2.845,2.845-1.117-1.117-1.222,1.222,2.339,2.339Z" transform="translate(-6.162 -1.4)"/>
        <path id="Trazado_1045911" data-name="Trazado 1045911" d="M24,14H41.279v1.728H24Z" transform="translate(-3.265 -1.905)"/>
        <path id="Trazado_1045912" data-name="Trazado 1045912" d="M24,10h1.728v1.728H24Z" transform="translate(-3.265 -1.36)"/>
        <path id="Trazado_1045913" data-name="Trazado 1045913" d="M28,10H41.823v1.728H28Z" transform="translate(-3.809 -1.36)"/>
      </g>
    </g>
  </g>
</svg>
