<svg xmlns="http://www.w3.org/2000/svg" xmlns:xlink="http://www.w3.org/1999/xlink" width="109.601" height="109.601" viewBox="0 0 109.601 109.601">
  <defs>
    <filter id="Trazado_982547" x="0" y="0" width="109.601" height="109.601" filterUnits="userSpaceOnUse">
      <feOffset dy="3" input="SourceAlpha"/>
      <feGaussianBlur stdDeviation="3" result="blur"/>
      <feFlood flood-opacity="0.161"/>
      <feComposite operator="in" in2="blur"/>
      <feComposite in="SourceGraphic"/>
    </filter>
  </defs>
  <g id="Grupo_1201644" data-name="Grupo 1201644" transform="translate(-196.478 -828.725)">
    <g id="Grupo_1177505" data-name="Grupo 1177505" transform="translate(0.978 -4419)">
      <g id="Grupo_1177424" data-name="Grupo 1177424" transform="translate(204.5 5253.725)">
        <g id="Grupo_1172010" data-name="Grupo 1172010">
          <g id="Grupo_1171046" data-name="Grupo 1171046">
            <g id="Grupo_1148525" data-name="Grupo 1148525">
              <g transform="matrix(1, 0, 0, 1, -9, -6)" filter="url(#Trazado_982547)">
                <g id="Trazado_982547-2" data-name="Trazado 982547" transform="translate(9 6)" fill="#effbfe">
                  <path d="M 45.80029296875 90.10059356689453 C 39.81912994384766 90.10059356689453 34.01768112182617 88.92950439453125 28.55708122253418 86.61986541748047 C 23.28201866149902 84.38870239257812 18.54420471191406 81.19428253173828 14.47525501251221 77.12534332275391 C 10.40631771087646 73.056396484375 7.211893081665039 68.31858062744141 4.980730533599854 63.04350662231445 C 2.671092987060547 57.58291625976562 1.500005483627319 51.78145599365234 1.500005483627319 45.80029296875 C 1.500005483627319 39.81912994384766 2.671092987060547 34.01768112182617 4.980730533599854 28.55708122253418 C 7.211893081665039 23.28201866149902 10.40631771087646 18.54420471191406 14.47525501251221 14.47525501251221 C 18.54420471191406 10.40631771087646 23.28201866149902 7.211893081665039 28.55708122253418 4.980730533599854 C 34.01768112182617 2.671092987060547 39.81912994384766 1.500005483627319 45.80029296875 1.500005483627319 C 51.78145599365234 1.500005483627319 57.58291625976562 2.671092987060547 63.04350662231445 4.980730533599854 C 68.31858062744141 7.211893081665039 73.056396484375 10.40631771087646 77.12534332275391 14.47525501251221 C 81.19428253173828 18.54420471191406 84.38870239257812 23.28201866149902 86.61986541748047 28.55708122253418 C 88.92950439453125 34.01768112182617 90.10059356689453 39.81912994384766 90.10059356689453 45.80029296875 C 90.10059356689453 51.78145599365234 88.92950439453125 57.58291625976562 86.61986541748047 63.04350662231445 C 84.38870239257812 68.31858062744141 81.19428253173828 73.056396484375 77.12534332275391 77.12534332275391 C 73.056396484375 81.19428253173828 68.31858062744141 84.38870239257812 63.04350662231445 86.61986541748047 C 57.58291625976562 88.92950439453125 51.78145599365234 90.10059356689453 45.80029296875 90.10059356689453 Z" stroke="none"/>
                  <path d="M 45.80029296875 2.999992370605469 C 40.02096557617188 2.999992370605469 34.41610717773438 4.131210327148438 29.14140701293945 6.362220764160156 C 24.04513549804688 8.51776123046875 19.46759033203125 11.60423278808594 15.53590393066406 15.53590393066406 C 11.60423278808594 19.46759033203125 8.51776123046875 24.04513549804688 6.362220764160156 29.14140701293945 C 4.131210327148438 34.41610717773438 2.999992370605469 40.02096557617188 2.999992370605469 45.80029296875 C 2.999992370605469 51.57962036132812 4.131210327148438 57.18447875976562 6.362220764160156 62.45917892456055 C 8.51776123046875 67.55545043945312 11.60423278808594 72.13299560546875 15.53590393066406 76.06466674804688 C 19.46759033203125 79.996337890625 24.04513549804688 83.08280944824219 29.14140701293945 85.23834991455078 C 34.41610717773438 87.4693603515625 40.02096557617188 88.60057830810547 45.80029296875 88.60057830810547 C 51.57962036132812 88.60057830810547 57.18447875976562 87.4693603515625 62.45917892456055 85.23834991455078 C 67.55545043945312 83.08280944824219 72.13299560546875 79.996337890625 76.06466674804688 76.06466674804688 C 79.996337890625 72.13299560546875 83.08280944824219 67.55545043945312 85.23834991455078 62.45917892456055 C 87.4693603515625 57.18447875976562 88.60057830810547 51.57962036132812 88.60057830810547 45.80029296875 C 88.60057830810547 40.02096557617188 87.4693603515625 34.41610717773438 85.23834991455078 29.14140701293945 C 83.08280944824219 24.04513549804688 79.996337890625 19.46759033203125 76.06466674804688 15.53590393066406 C 72.13299560546875 11.60423278808594 67.55545043945312 8.51776123046875 62.45917892456055 6.362220764160156 C 57.18447875976562 4.131210327148438 51.57962036132812 2.999992370605469 45.80029296875 2.999992370605469 M 45.80029296875 -7.62939453125e-06 C 71.0950927734375 -7.62939453125e-06 91.60057830810547 20.5054931640625 91.60057830810547 45.80029296875 C 91.60057830810547 71.0950927734375 71.0950927734375 91.60057830810547 45.80029296875 91.60057830810547 C 20.5054931640625 91.60057830810547 -7.62939453125e-06 71.0950927734375 -7.62939453125e-06 45.80029296875 C -7.62939453125e-06 20.5054931640625 20.5054931640625 -7.62939453125e-06 45.80029296875 -7.62939453125e-06 Z" stroke="none" fill="#2cc3dc"/>
                </g>
              </g>
            </g>
          </g>
        </g>
      </g>
    </g>
    <g id="think-question_14781837" transform="translate(217.581 844.158)">
      <g id="Grupo_1177480" data-name="Grupo 1177480" transform="translate(7.5 7.547)">
        <path id="Trazado_1035292" data-name="Trazado 1035292" d="M55.949,401.71s-1.6,2.662-2.31,3.952l-11.189,4.3H18.314l-4.324-2.8v-5.65a49.448,49.448,0,0,1,6.8-2.14l2.906-.755,3.225-.758,14.238,1.4L44.034,398c.969.252,3.783.936,4.751,1.188C51.22,399.823,53.854,400.244,55.949,401.71Z" transform="translate(-13.254 -353.611)" fill="#8ac9fe"/>
        <path id="Trazado_1035293" data-name="Trazado 1035293" d="M12.561,436.76V438.5H7.84a.34.34,0,0,1-.34-.34v-7.412a.341.341,0,0,1,.133-.27c.082-.064.163-.125.227-.171.124-.089.25-.174.377-.254l.256.128A7.361,7.361,0,0,1,12.561,436.76Z" transform="translate(-7.5 -382.151)" fill="#60b7ff"/>
        <path id="Trazado_1035294" data-name="Trazado 1035294" d="M358.648,439.376v.342a.341.341,0,0,1-.34.34h-7.8v-4.893a7.345,7.345,0,0,1,3.161-3.048l.614-.307.078.054.126.092A9.189,9.189,0,0,1,358.648,439.376Z" transform="translate(-311.59 -383.711)" fill="#60b7ff"/>
        <path id="Trazado_1035295" data-name="Trazado 1035295" d="M96.577,20.469c-2.361,4.471-4.738,8.655-10.14,8.918l-16.7.049V20.785a10.873,10.873,0,0,1,1.69-5.842,15.393,15.393,0,0,1,5.427-5.165A14.457,14.457,0,0,1,83.947,7.91h.6A14.393,14.393,0,0,1,90.5,9.2C95.213,12.8,97.827,18.1,96.577,20.469Z" transform="translate(-62.678 -7.91)" fill="#73788c"/>
        <path id="Trazado_1035296" data-name="Trazado 1035296" d="M229.2,30.883V39.45l-12.313.035A15.459,15.459,0,0,0,220.949,19.3a15.281,15.281,0,0,1,6.565,5.74,10.7,10.7,0,0,1,1.258,2.788A11,11,0,0,1,229.2,30.883Z" transform="translate(-193.131 -18.008)" fill="#5e6577"/>
        <path id="Trazado_1035297" data-name="Trazado 1035297" d="M76.042,195.83a6.3,6.3,0,0,0,4.8-6.12h0a2.506,2.506,0,0,0-2.506-2.506H49.083a2.506,2.506,0,0,0-2.506,2.506h0a6.3,6.3,0,0,0,4.8,6.12Z" transform="translate(-42.143 -166.86)" fill="#ffb09e"/>
        <path id="Trazado_1035298" data-name="Trazado 1035298" d="M107.617,126.264a2.431,2.431,0,0,1,3.335,1.412l1.069,4.166a1.651,1.651,0,0,0,1.534,1.128v9.322a7.775,7.775,0,0,1-2.656,5.853l-4.83,4.226a5.185,5.185,0,0,1-3.414,1.282H99.791a5.184,5.184,0,0,1-3.414-1.282l-4.83-4.226a7.775,7.775,0,0,1-2.656-5.853v-9.322a1.651,1.651,0,0,0,1.534-1.128l1.064-4.149a2.431,2.431,0,0,1,3.349-1.405l.155.074,1.251.479a13.856,13.856,0,0,0,9.914,0l1.251-.479Z" transform="translate(-79.656 -112.629)" fill="#ffcebf"/>
        <g id="Grupo_1177477" data-name="Grupo 1177477" transform="translate(10.412 33.676)">
          <path id="Trazado_1035299" data-name="Trazado 1035299" d="M120,318.5l-.42.517-4.568,5.637-1.634-1.035a7.655,7.655,0,0,0-3.809-1.195,6.294,6.294,0,0,1-3.117-.974l-4.043-2.568a1.429,1.429,0,0,1-.665-1.208c0-.016,0-.031,0-.047,0,0,.2-.413.306-.607a5.437,5.437,0,0,1,.719-.433c.2.11.749-.4,1.188-.123l-.919-.583a1.479,1.479,0,0,1-.664-1.239c0-.015,0,.014,0,0,.044-.236.61-.33.712-.525.019-.039-.032-.051.169-.15,0,0,.891-.783,1.33-.5L104,313.1a1.43,1.43,0,0,1-.666-1.211c0-.016,0-.031,0-.047.007-.207.316-.332.416-.525a1.8,1.8,0,0,1,.481-.425s.874-.489,1.314-.21l-5.619-3.569a1.428,1.428,0,0,1-.506-1.864c.566-.508.927-.636,1.164-.485l9.046,5.984c2.708,1.45,3.851.36,3.853.351.019-.093.323-.6.343-.692a1.707,1.707,0,0,0,.184-.48.179.179,0,0,0,.006-.026c.053-.255.109-.49.168-.709a7.184,7.184,0,0,1,1.238-2.549,3.159,3.159,0,0,1,.563-.622,2.148,2.148,0,0,1,.59-.326,4.283,4.283,0,0,1,1.312.089c.068.043-.851,3.311-.8,3.858,0,0,.155,4.34.183,4.663a3.314,3.314,0,0,0,1.821,2.868Z" transform="translate(-99.264 -304.7)" fill="#ffb09e"/>
        </g>
        <path id="Trazado_1035300" data-name="Trazado 1035300" d="M251.01,430.111H235.757a.1.1,0,0,1-.057-.018l-3.659-2.714a.094.094,0,0,1-.024-.126l4.205-6.663h1.542l13.113,8.631Z" transform="translate(-206.529 -373.764)" fill="#60b7ff"/>
        <path id="Trazado_1035301" data-name="Trazado 1035301" d="M286.233,421.174h-2.256l-14.787-9.521.693-1.1a.1.1,0,0,1,.132-.029L286.285,421A.094.094,0,0,1,286.233,421.174Z" transform="translate(-239.497 -364.827)" fill="#26a6fe"/>
        <path id="Trazado_1035302" data-name="Trazado 1035302" d="M223.023,405.5l-4.888,6.555a1,1,0,0,1-1.391.2l-1.7-1.256a.991.991,0,0,1-.205-1.387l4.852-6.505c.632-.515,1.356-1.357,1.679-1.118l1.82,1.348C223.495,403.563,223.606,404.535,223.023,405.5Z" transform="translate(-191.143 -357.239)" fill="#eaf6ff"/>
        <path id="Trazado_1035303" data-name="Trazado 1035303" d="M263.391,400.031l-.934,1.252a1.087,1.087,0,0,0-.447-.9l-1.82-1.348a1.084,1.084,0,0,0-1.061-.141l.97-1.3a1,1,0,0,1,1.39-.2l1.7,1.255A.992.992,0,0,1,263.391,400.031Z" transform="translate(-230.577 -353.024)" fill="#d8ecfe"/>
        <g id="Grupo_1177479" data-name="Grupo 1177479" transform="translate(30.507 0.18)">
          <g id="Grupo_1177478" data-name="Grupo 1177478">
            <path id="Trazado_1035304" data-name="Trazado 1035304" d="M297.1,12.134c-.1-.011-.206-.019-.311-.023a.351.351,0,0,1-.273-.148c-.1-.143-.209-.281-.323-.414a5.871,5.871,0,0,0-6.868-1.531.349.349,0,0,1-.31-.011,4.285,4.285,0,0,0-6.1,2.458.336.336,0,0,1-.319.235,5.233,5.233,0,0,0-4.667,7.629.344.344,0,0,1-.1.443,3.341,3.341,0,0,0-.343,5.256.342.342,0,0,1,.1.318,4.831,4.831,0,0,0,.1,2.142c2.265,2.939,6.819,3.7,9.4,3.7,7.376,0,12.036-3.812,12.036-11.188C299.112,19.23,299.112,14.468,297.1,12.134Z" transform="translate(-276.36 -9.5)" fill="#eaf6ff"/>
            <path id="Trazado_1035305" data-name="Trazado 1035305" d="M311.934,43.738a.333.333,0,0,0-.019.347,5.224,5.224,0,0,1-2.113,7.093c-.044.024-.121.062-.193.1a.335.335,0,0,0-.189.269,4.6,4.6,0,0,1-.163.873,0,0,0,0,0,0,0,4.586,4.586,0,0,1-6.427,2.815.336.336,0,0,0-.382.06,5.534,5.534,0,0,1-9.143-2.4.337.337,0,0,0-.341-.241,4.911,4.911,0,0,1-4.982-3.595A13.36,13.36,0,0,0,307.4,32.711a4.711,4.711,0,0,1,3.99,6.161.335.335,0,0,0,.087.346,3.522,3.522,0,0,1,.46,4.52Z" transform="translate(-286.662 -30.077)" fill="#d8ecfe"/>
            <path id="Trazado_1035306" data-name="Trazado 1035306" d="M339.391,62.487c-1.178,9.408-6.109,9.278-10.417,9.278a7.961,7.961,0,1,1,10.417-9.278Z" transform="translate(-318.258 -50.99)" fill="#73788c"/>
            <path id="Trazado_1035307" data-name="Trazado 1035307" d="M381.415,112.6a7.992,7.992,0,0,1-10.615,7.512,13.37,13.37,0,0,0,10.417-9.278A7.953,7.953,0,0,1,381.415,112.6Z" transform="translate(-360.084 -99.332)" fill="#5e6577"/>
          </g>
          <path id="Trazado_1035308" data-name="Trazado 1035308" d="M427.042,272.606c0,1.264-1.516,1.821-2.784,1.821-.6,0-1.067-.6-1.485-1.206a2.37,2.37,0,0,1-.055-.511,2.454,2.454,0,0,1,3.707-2.1A3.11,3.11,0,0,1,427.042,272.606Z" transform="translate(-406.112 -240.679)" fill="#eaf6ff"/>
          <path id="Trazado_1035309" data-name="Trazado 1035309" d="M428.052,275.4a2.454,2.454,0,0,1-4.852.511,2.3,2.3,0,0,0,3.849-1.685,2.268,2.268,0,0,0-.2-.925A2.437,2.437,0,0,1,428.052,275.4Z" transform="translate(-406.539 -243.367)" fill="#d8ecfe"/>
          <path id="Trazado_1035310" data-name="Trazado 1035310" d="M401.246,335.375a1.627,1.627,0,0,1-1.743,1.454c-.462,0-.833-.234-1.317-1.027a1.784,1.784,0,0,1,2.548-1.834A1.972,1.972,0,0,1,401.246,335.375Z" transform="translate(-384.349 -296.993)" fill="#eaf6ff"/>
          <path id="Trazado_1035311" data-name="Trazado 1035311" d="M401.859,336.967a1.783,1.783,0,0,1-3.549.236,1.584,1.584,0,0,0,2.749-1.064,1.562,1.562,0,0,0-.2-.769A1.776,1.776,0,0,1,401.859,336.967Z" transform="translate(-384.473 -298.394)" fill="#d8ecfe"/>
        </g>
      </g>
      <g id="Grupo_1177487" data-name="Grupo 1177487" transform="translate(7.5 7.5)">
        <path id="Trazado_1035312" data-name="Trazado 1035312" d="M214.69,8.741A14.8,14.8,0,0,1,223.9,13.5" transform="translate(-191.181 -8.6)" fill="none" stroke="#000" stroke-linecap="round" stroke-linejoin="round" stroke-miterlimit="10" stroke-width="1.5"/>
        <path id="Trazado_1035313" data-name="Trazado 1035313" d="M69.741,22.1V21.6a10.879,10.879,0,0,1,1.689-5.842h0A14.992,14.992,0,0,1,82.215,8.834" transform="translate(-62.679 -8.683)" fill="none" stroke="#000" stroke-linecap="round" stroke-linejoin="round" stroke-miterlimit="10" stroke-width="1.5"/>
        <line id="Línea_988" data-name="Línea 988" y1="2.924" transform="translate(7.062 17.386)" fill="none" stroke="#000" stroke-linecap="round" stroke-linejoin="round" stroke-miterlimit="10" stroke-width="1.5"/>
        <path id="Trazado_1035314" data-name="Trazado 1035314" d="M51.378,195.83a6.3,6.3,0,0,1-4.8-6.12h0a2.506,2.506,0,0,1,2.506-2.506h2.3" transform="translate(-42.143 -166.814)" fill="none" stroke="#000" stroke-linecap="round" stroke-linejoin="round" stroke-miterlimit="10" stroke-width="1.5"/>
        <path id="Trazado_1035315" data-name="Trazado 1035315" d="M310.645,229.131A6.313,6.313,0,0,1,306.258,233" transform="translate(-272.359 -203.983)" fill="none" stroke="#000" stroke-linecap="round" stroke-linejoin="round" stroke-miterlimit="10" stroke-width="1.5"/>
        <path id="Trazado_1035316" data-name="Trazado 1035316" d="M90.315,146.779a7.777,7.777,0,0,1-1.424-4.486v-9.322a1.651,1.651,0,0,0,1.534-1.128l1.064-4.149a2.431,2.431,0,0,1,3.349-1.405l.155.074,1.251.479a13.856,13.856,0,0,0,9.914,0l1.251-.479.208-.1a2.428,2.428,0,0,1,2.419.2" transform="translate(-79.656 -112.584)" fill="none" stroke="#000" stroke-linecap="round" stroke-linejoin="round" stroke-miterlimit="10" stroke-width="1.5"/>
        <path id="Trazado_1035317" data-name="Trazado 1035317" d="M266.6,201.93v7.647a7.775,7.775,0,0,1-2.656,5.853l-2.42,2.117" transform="translate(-232.7 -179.869)" fill="none" stroke="#000" stroke-linecap="round" stroke-linejoin="round" stroke-miterlimit="10" stroke-width="1.5"/>
        <g id="Grupo_1177482" data-name="Grupo 1177482" transform="translate(0 43.969)">
          <g id="Grupo_1177481" data-name="Grupo 1177481">
            <path id="Trazado_1035318" data-name="Trazado 1035318" d="M93.711,396.1l.727-.189,3.064-.9" transform="translate(-83.929 -395.006)" fill="none" stroke="#000" stroke-linecap="round" stroke-linejoin="round" stroke-miterlimit="10" stroke-width="1.5"/>
            <path id="Trazado_1035319" data-name="Trazado 1035319" d="M7.5,415.666c.121-.1.261-.2.36-.275a15.617,15.617,0,0,1,5.569-2.163" transform="translate(-7.5 -411.16)" fill="none" stroke="#000" stroke-linecap="round" stroke-linejoin="round" stroke-miterlimit="10" stroke-width="1.5"/>
            <path id="Trazado_1035320" data-name="Trazado 1035320" d="M10.674,432.294l.833.416a6.413,6.413,0,0,1,3.545,5.736v2.04" transform="translate(-10.314 -428.063)" fill="none" stroke="#000" stroke-linecap="round" stroke-linejoin="round" stroke-miterlimit="10" stroke-width="1.5"/>
          </g>
        </g>
        <ellipse id="Elipse_12462" data-name="Elipse 12462" cx="2.453" cy="2.456" rx="2.453" ry="2.456" transform="translate(47.113 29.757)" fill="none" stroke="#000" stroke-linecap="round" stroke-linejoin="round" stroke-miterlimit="10" stroke-width="1.5"/>
        <ellipse id="Elipse_12463" data-name="Elipse 12463" cx="1.783" cy="1.785" rx="1.783" ry="1.785" transform="translate(44.329 37.001)" fill="none" stroke="#000" stroke-linecap="round" stroke-linejoin="round" stroke-miterlimit="10" stroke-width="1.5"/>
        <path id="Trazado_1035321" data-name="Trazado 1035321" d="M301.51,21.4a3.551,3.551,0,0,0-.5-4.856,4.728,4.728,0,0,0-4.4-6.419,5.559,5.559,0,0,0-.423-.561,5.849,5.849,0,0,0-7.026-1.465h0a4.275,4.275,0,0,0-6.319,2.626,5.261,5.261,0,0,0-4.759,7.944,3.368,3.368,0,0,0-.461,5.567,4.9,4.9,0,0,0,5.308,5.94,5.522,5.522,0,0,0,9.384,2.5,4.577,4.577,0,0,0,6.639-2.717,0,0,0,0,1,0,0,4.62,4.62,0,0,0,.175-1.063l.077-.035a5.265,5.265,0,0,0,2.3-7.458Z" transform="translate(-245.853 -7.5)" fill="none" stroke="#000" stroke-linecap="round" stroke-linejoin="round" stroke-miterlimit="10" stroke-width="1.5"/>
        <g id="Grupo_1177484" data-name="Grupo 1177484" transform="translate(35.848 5.336)">
          <path id="Trazado_1035322" data-name="Trazado 1035322" d="M338.867,59.594a8,8,0,1,1-2.354-3.237" transform="translate(-323.437 -54.531)" fill="none" stroke="#000" stroke-linecap="round" stroke-linejoin="round" stroke-miterlimit="10" stroke-width="1.5"/>
          <g id="Grupo_1177483" data-name="Grupo 1177483" transform="translate(5.871 3.85)">
            <path id="Trazado_1035323" data-name="Trazado 1035323" d="M375.179,90.585a2.121,2.121,0,1,1,2.121,2.122v1.765" transform="translate(-375.179 -88.463)" fill="none" stroke="#000" stroke-linecap="round" stroke-linejoin="round" stroke-miterlimit="10" stroke-width="1.5"/>
            <line id="Línea_989" data-name="Línea 989" transform="translate(2.121 8.517)" fill="none" stroke="#000" stroke-linecap="round" stroke-linejoin="round" stroke-miterlimit="10" stroke-width="1.5"/>
          </g>
        </g>
        <g id="Grupo_1177485" data-name="Grupo 1177485" transform="translate(14.456 18.792)">
          <path id="Trazado_1035324" data-name="Trazado 1035324" d="M191.082,269.751a2.673,2.673,0,0,1-2.427,0" transform="translate(-182.556 -258.786)" fill="none" stroke="#000" stroke-linecap="round" stroke-linejoin="round" stroke-miterlimit="10" stroke-width="1.5"/>
          <line id="Línea_990" data-name="Línea 990" x1="4.633" transform="translate(4.996 15.579)" fill="none" stroke="#000" stroke-linecap="round" stroke-linejoin="round" stroke-miterlimit="10" stroke-width="1.5"/>
          <path id="Trazado_1035325" data-name="Trazado 1035325" d="M139.343,173.686a4.612,4.612,0,0,0-4.439,0" transform="translate(-134.904 -173.117)" fill="none" stroke="#000" stroke-linecap="round" stroke-linejoin="round" stroke-miterlimit="10" stroke-width="1.5"/>
          <path id="Trazado_1035326" data-name="Trazado 1035326" d="M224.673,187.293a4.613,4.613,0,0,1,4.439,0" transform="translate(-214.487 -185.18)" fill="none" stroke="#000" stroke-linecap="round" stroke-linejoin="round" stroke-miterlimit="10" stroke-width="1.5"/>
          <line id="Línea_991" data-name="Línea 991" y1="1.969" transform="translate(12.406 5.167)" fill="none" stroke="#000" stroke-linecap="round" stroke-linejoin="round" stroke-miterlimit="10" stroke-width="1.5"/>
          <line id="Línea_992" data-name="Línea 992" y1="1.969" transform="translate(2.22 5.167)" fill="none" stroke="#000" stroke-linecap="round" stroke-linejoin="round" stroke-miterlimit="10" stroke-width="1.5"/>
        </g>
        <path id="Trazado_1035327" data-name="Trazado 1035327" d="M290.361,403.718l14.232,9.164V412.2a9.233,9.233,0,0,0-4.284-7.511c-2.108-1.511-4.777-1.934-7.243-2.575-.726-.189-2.352-.639-3.529-.958" transform="translate(-257.536 -356.489)" fill="none" stroke="#000" stroke-linecap="round" stroke-linejoin="round" stroke-miterlimit="10" stroke-width="1.5"/>
        <line id="Línea_993" data-name="Línea 993" x1="2.035" y1="1.495" transform="translate(27.196 54.898)" fill="none" stroke="#000" stroke-linecap="round" stroke-linejoin="round" stroke-miterlimit="10" stroke-width="1.5"/>
        <g id="Grupo_1177486" data-name="Grupo 1177486" transform="translate(39.183 48.202)">
          <path id="Trazado_1035328" data-name="Trazado 1035328" d="M356.408,432.314l-.828.414a6.409,6.409,0,0,0-2.759,2.659" transform="translate(-352.821 -432.314)" fill="none" stroke="#000" stroke-linecap="round" stroke-linejoin="round" stroke-miterlimit="10" stroke-width="1.5"/>
        </g>
        <path id="Trazado_1035329" data-name="Trazado 1035329" d="M118.693,314.18a4.593,4.593,0,0,1-.355-2.448,8.737,8.737,0,0,0-.008-2.044l-.169-1.882a2.847,2.847,0,0,1,.318-1.586l.56-1.06a.572.572,0,0,0-.053-.614.667.667,0,0,0-.176-.152,1.9,1.9,0,0,0-2.208.16,3.181,3.181,0,0,0-.563.626,7.538,7.538,0,0,0-1.405,3.273l-.006.027a1.723,1.723,0,0,1-2.611,1.076l-9.926-6.334a1.438,1.438,0,0,0-1.986.441h0a1.441,1.441,0,0,0,.44,1.989l8.027,5.122-2.408-1.536a1.438,1.438,0,0,0-1.986.441h0a1.441,1.441,0,0,0,.44,1.989l.588.375,1.82,1.161-1.82-1.161a1.438,1.438,0,0,0-1.986.441h0a1.441,1.441,0,0,0,.44,1.989l.919.586,1.232.786-1.232-.786a1.438,1.438,0,0,0-1.987.441h0a1.442,1.442,0,0,0,.439,1.989l4.043,2.58a6.263,6.263,0,0,0,3.117.978h0a7.619,7.619,0,0,1,2.923.713" transform="translate(-89.397 -269.466)" fill="none" stroke="#000" stroke-linecap="round" stroke-linejoin="round" stroke-miterlimit="10" stroke-width="1.5"/>
        <path id="Trazado_1035330" data-name="Trazado 1035330" d="M222.981,397.351l-6.227,8.391a.993.993,0,0,1-1.386.2l-1.7-1.266a1,1,0,0,1-.2-1.389l6.227-8.391a.993.993,0,0,1,1.386-.2l1.7,1.266A1,1,0,0,1,222.981,397.351Z" transform="translate(-189.921 -350.589)" fill="none" stroke="#000" stroke-linecap="round" stroke-linejoin="round" stroke-miterlimit="10" stroke-width="1.5"/>
      </g>
    </g>
  </g>
</svg>
