<svg xmlns="http://www.w3.org/2000/svg" xmlns:xlink="http://www.w3.org/1999/xlink" width="113" height="113" viewBox="0 0 113 113">
  <defs>
    <filter id="Trazado_982547" x="0" y="0" width="113" height="113" filterUnits="userSpaceOnUse">
      <feOffset dy="3" input="SourceAlpha"/>
      <feGaussianBlur stdDeviation="3" result="blur"/>
      <feFlood flood-opacity="0.161"/>
      <feComposite operator="in" in2="blur"/>
      <feComposite in="SourceGraphic"/>
    </filter>
  </defs>
  <g id="Grupo_1201623" data-name="Grupo 1201623" transform="translate(-1360.84 -2419.436)">
    <g id="Grupo_1177687" data-name="Grupo 1177687" transform="translate(-3925.65 499.164)">
      <g id="Grupo_1176928" data-name="Grupo 1176928" transform="translate(5295.49 1926.273)">
        <g id="Grupo_1172322" data-name="Grupo 1172322" transform="translate(0 0)">
          <g id="Grupo_1164700" data-name="Grupo 1164700">
            <g id="Grupo_1160931" data-name="Grupo 1160931">
              <g id="Grupo_1160749" data-name="Grupo 1160749">
                <g id="Grupo_1158891" data-name="Grupo 1158891">
                  <g id="Grupo_1157406" data-name="Grupo 1157406">
                    <g id="Grupo_1155793" data-name="Grupo 1155793">
                      <g id="Grupo_1154704" data-name="Grupo 1154704">
                        <g id="Grupo_1150790" data-name="Grupo 1150790">
                          <g id="Grupo_1154214" data-name="Grupo 1154214">
                            <g id="Grupo_1152583" data-name="Grupo 1152583">
                              <g id="Grupo_1146973" data-name="Grupo 1146973">
                                <g id="Grupo_1146954" data-name="Grupo 1146954">
                                  <g transform="matrix(1, 0, 0, 1, -9, -6)" filter="url(#Trazado_982547)">
                                    <g id="Trazado_982547-2" data-name="Trazado 982547" transform="translate(9 6)" fill="#f2f7e5">
                                      <path d="M 47.5000114440918 93.49987030029297 C 41.28938293457031 93.49987030029297 35.26534652709961 92.28384399414062 29.5951976776123 89.88558959960938 C 24.11773109436035 87.56881713867188 19.19814491271973 84.25183868408203 14.97310447692871 80.02680206298828 C 10.74805164337158 75.80176544189453 7.43107795715332 70.88218688964844 5.114304542541504 65.40472412109375 C 2.716038227081299 59.73458862304688 1.500011444091797 53.71054840087891 1.500011444091797 47.49993515014648 C 1.500011444091797 41.28932189941406 2.716038227081299 35.26528167724609 5.114304542541504 29.59514808654785 C 7.43107795715332 24.1176815032959 10.74805164337158 19.1981086730957 14.97310447692871 14.97306823730469 C 19.19814491271973 10.74802875518799 24.11773109436035 7.431055068969727 29.5951976776123 5.11428165435791 C 35.26534652709961 2.716028451919556 41.28938293457031 1.500001788139343 47.5000114440918 1.500001788139343 C 53.71063995361328 1.500001788139343 59.73467636108398 2.716028451919556 65.40482330322266 5.11428165435791 C 70.88229370117188 7.431055068969727 75.8018798828125 10.74802875518799 80.02691650390625 14.97306823730469 C 84.25196838378906 19.1981086730957 87.56894683837891 24.1176815032959 89.88571929931641 29.59514808654785 C 92.28398132324219 35.26528167724609 93.50001525878906 41.28932189941406 93.50001525878906 47.49993515014648 C 93.50001525878906 53.71054840087891 92.28398132324219 59.73458862304688 89.88571929931641 65.40472412109375 C 87.56894683837891 70.88218688964844 84.25196838378906 75.80176544189453 80.02691650390625 80.02680206298828 C 75.8018798828125 84.25183868408203 70.88229370117188 87.56881713867188 65.40482330322266 89.88558959960938 C 59.73467636108398 92.28384399414062 53.71063995361328 93.49987030029297 47.5000114440918 93.49987030029297 Z" stroke="none"/>
                                      <path d="M 47.5000114440918 3 C 41.49122619628906 3 35.66378021240234 4.1761474609375 30.17951965332031 6.495796203613281 C 24.880859375 8.7369384765625 20.12153625488281 11.94596862792969 16.03376770019531 16.03373718261719 C 11.94598388671875 20.12149047851562 8.736968994140625 24.88081359863281 6.495811462402344 30.17947387695312 C 4.176162719726562 35.66371917724609 3.000007629394531 41.49116516113281 3.000007629394531 47.49993515014648 C 3.000007629394531 53.50870513916016 4.176162719726562 59.33615112304688 6.495811462402344 64.82039642333984 C 8.736968994140625 70.11905670166016 11.94598388671875 74.87837982177734 16.03376770019531 78.96613311767578 C 20.12153625488281 83.05390167236328 24.880859375 86.26293182373047 30.17951965332031 88.50407409667969 C 35.66378021240234 90.82372283935547 41.49122619628906 91.99987030029297 47.5000114440918 91.99987030029297 C 53.50879669189453 91.99987030029297 59.33624267578125 90.82372283935547 64.82050323486328 88.50407409667969 C 70.11916351318359 86.26293182373047 74.87848663330078 83.05390167236328 78.96625518798828 78.96613311767578 C 83.05403900146484 74.87837982177734 86.2630615234375 70.11905670166016 88.50421142578125 64.82039642333984 C 90.82386016845703 59.33615112304688 92.00001525878906 53.50870513916016 92.00001525878906 47.49993515014648 C 92.00001525878906 41.49116516113281 90.82386016845703 35.66371917724609 88.50421142578125 30.17947387695312 C 86.2630615234375 24.88081359863281 83.05403900146484 20.12149047851562 78.96625518798828 16.03373718261719 C 74.87848663330078 11.94596862792969 70.11916351318359 8.7369384765625 64.82050323486328 6.495796203613281 C 59.33624267578125 4.1761474609375 53.50879669189453 3 47.5000114440918 3 M 47.5000114440918 0 C 73.73353576660156 0 95.00001525878906 21.26644134521484 95.00001525878906 47.49993515014648 C 95.00001525878906 73.73342895507812 73.73353576660156 94.99987030029297 47.5000114440918 94.99987030029297 C 21.26648712158203 94.99987030029297 7.62939453125e-06 73.73342895507812 7.62939453125e-06 47.49993515014648 C 7.62939453125e-06 21.26644134521484 21.26648712158203 0 47.5000114440918 0 Z" stroke="none" fill="#86b60c"/>
                                    </g>
                                  </g>
                                </g>
                              </g>
                            </g>
                          </g>
                        </g>
                      </g>
                    </g>
                  </g>
                </g>
              </g>
            </g>
          </g>
        </g>
      </g>
    </g>
    <g id="list_1935543" transform="translate(1385.824 2440.485)">
      <path id="Trazado_1045932" data-name="Trazado 1045932" d="M54.988,12H46.867a5.7,5.7,0,0,1-4.256,1.9H34.994A5.662,5.662,0,0,1,30.748,12H21.665V36.755A6.66,6.66,0,0,1,15,43.419a11.523,11.523,0,0,1,1.152.057,12.378,12.378,0,0,1,10.625,8.512H54.988a.955.955,0,0,0,.952-.952V12.952A.955.955,0,0,0,54.988,12Z" transform="translate(-0.671 -0.527)" fill="#e6e9ed"/>
      <path id="Trazado_1045933" data-name="Trazado 1045933" d="M37.425,23.808v7.617H26V20H37.425Z" transform="translate(-1.197 -0.91)" fill="#b4dd7f"/>
      <path id="Trazado_1045934" data-name="Trazado 1045934" d="M46,36h5.713V51.234H46Z" transform="translate(-2.155 -1.676)" fill="#b4dd7f"/>
      <path id="Trazado_1045935" data-name="Trazado 1045935" d="M40,36h5.713V51.234H40Z" transform="translate(-1.868 -1.676)" fill="#fcd770"/>
      <path id="Trazado_1045936" data-name="Trazado 1045936" d="M51.425,53.9v1.9a5.658,5.658,0,0,1-1.676,4.037,5.711,5.711,0,0,1-9.426-2.133,5.753,5.753,0,0,1-.324-1.9V52H51.425Z" transform="translate(-1.868 -2.443)" fill="#aab2bd"/>
      <path id="Trazado_1045937" data-name="Trazado 1045937" d="M45.713,28l5.713,7.617H40Z" transform="translate(-1.868 -1.293)" fill="#aab2bd"/>
      <g id="Grupo_1201622" data-name="Grupo 1201622" transform="translate(17.186 7.665)">
        <path id="Trazado_1045938" data-name="Trazado 1045938" d="M39.4,55.9a5.753,5.753,0,0,0,.324,1.9H27.97A12.312,12.312,0,0,0,27.37,54H39.4Z" transform="translate(-18.449 -10.203)" fill="#ffeaa7"/>
        <path id="Trazado_1045939" data-name="Trazado 1045939" d="M21.808,36.563A6.637,6.637,0,0,0,18,30.546V11.808A3.807,3.807,0,0,1,21.808,8h7.617a5.647,5.647,0,0,0,1.466,3.808H21.808Z" transform="translate(-18 -8)" fill="#ffeaa7"/>
        <path id="Trazado_1045940" data-name="Trazado 1045940" d="M61.352,11.808V51.8a3.807,3.807,0,0,1-3.808,3.808H51.507a5.753,5.753,0,0,0,.324-1.9V51.8h4.761a.955.955,0,0,0,.952-.952V12.761a.955.955,0,0,0-.952-.952H48.47A5.685,5.685,0,0,0,49.927,8h7.617A3.807,3.807,0,0,1,61.352,11.808Z" transform="translate(-19.459 -8)" fill="#ffeaa7"/>
      </g>
      <path id="Trazado_1045941" data-name="Trazado 1045941" d="M43.329,5.808h5.713v1.9a5.716,5.716,0,0,1-5.713,5.713H35.713A5.734,5.734,0,0,1,30,7.713v-1.9h5.713a3.808,3.808,0,0,1,7.617,0Z" transform="translate(-1.389 -0.048)" fill="#cf9e76"/>
      <path id="Trazado_1045942" data-name="Trazado 1045942" d="M6.789,47.75a7.6,7.6,0,0,1,1.876,5v8.569H2V57.509a12.341,12.341,0,0,1,3.628-8.75A11.744,11.744,0,0,1,6.78,47.74Z" transform="translate(-0.048 -2.239)" fill="#fc6e51"/>
      <path id="Trazado_1045943" data-name="Trazado 1045943" d="M22.885,47.74a12.364,12.364,0,0,1,4.78,9.769v3.808H21V52.748a7.6,7.6,0,0,1,1.876-5Z" transform="translate(-0.958 -2.239)" fill="#fc6e51"/>
      <path id="Trazado_1045944" data-name="Trazado 1045944" d="M22.216,47.612l-.01.01a7.6,7.6,0,0,0-1.876,5v8.569H8.905V52.62a7.6,7.6,0,0,0-1.876-5l-.01-.01a12.284,12.284,0,0,1,6.446-2.552l-.752,7.56,1.9,1.9,1.9-1.9-.752-7.56A12.284,12.284,0,0,1,22.216,47.612Z" transform="translate(-0.288 -2.11)" fill="#ff826e"/>
      <path id="Trazado_1045945" data-name="Trazado 1045945" d="M16.056,45.057l.752,7.56-1.9,1.9-1.9-1.9.752-7.56a11.644,11.644,0,0,1,2.3,0Z" transform="translate(-0.575 -2.108)" fill="#ffeaa7"/>
      <path id="Trazado_1045946" data-name="Trazado 1045946" d="M17.521,31.647A6.657,6.657,0,1,1,14.665,31,6.516,6.516,0,0,1,17.521,31.647Z" transform="translate(-0.335 -1.437)" fill="#f0d0b4"/>
      <path id="Trazado_1045947" data-name="Trazado 1045947" d="M55.27,6.713H48.605v-1.9H42.8a4.761,4.761,0,0,0-9.329,0H27.659v1.9H20.994a4.766,4.766,0,0,0-4.761,4.761V28.861a7.607,7.607,0,0,0-6.05,13.747A13.346,13.346,0,0,0,1,55.27V60.03H27.659V56.222H37.832a6.65,6.65,0,0,0,12.025,0H55.27a4.766,4.766,0,0,0,4.761-4.761V11.473A4.766,4.766,0,0,0,55.27,6.713ZM40.036,33.371l3.808-5.078,3.808,5.078Zm-.952,1.9h3.808V48.605H39.084Zm5.713,0h3.808V48.605H44.8ZM43.845,25.12,37.18,34.006v16.5H26.765a13.378,13.378,0,0,0-8.29-7.9,7.612,7.612,0,0,0,3.471-6.381v-23.8h7.722a6.641,6.641,0,0,0,4.655,1.9H41.94a6.639,6.639,0,0,0,4.655-1.9h7.722V50.509H50.509v-16.5ZM19.09,58.126H9.569V50.509a8.542,8.542,0,0,0-1.484-4.8,11.347,11.347,0,0,1,4.028-1.649l-.68,6.8,2.9,2.9,2.9-2.9-.68-6.8a11.348,11.348,0,0,1,4.028,1.649,8.542,8.542,0,0,0-1.484,4.8ZM14.329,43.845c.1,0,.188.012.282.014l.63,6.3-.912.912-.912-.912.63-6.3c.094,0,.187-.014.282-.014ZM29.563,6.713h5.713V5.761a2.856,2.856,0,0,1,5.713,0v.952H46.7v.952a4.766,4.766,0,0,1-4.761,4.761H34.324a4.766,4.766,0,0,1-4.761-4.761ZM18.138,11.473a2.86,2.86,0,0,1,2.856-2.856h6.741a6.605,6.605,0,0,0,.576,1.9H20.042V31.206a7.682,7.682,0,0,0-1.9-1.565ZM8.617,36.228a5.713,5.713,0,1,1,5.713,5.713A5.718,5.718,0,0,1,8.617,36.228ZM2.9,55.27a11.383,11.383,0,0,1,3.681-8.376,6.637,6.637,0,0,1,1.08,3.615v7.617H2.9Zm22.85,2.856H20.994V50.509a6.637,6.637,0,0,1,1.08-3.615,11.383,11.383,0,0,1,3.681,8.376Zm1.856-3.808a13.193,13.193,0,0,0-.268-1.9H37.18v.952a6.689,6.689,0,0,0,.076.952Zm16.234,3.808a4.766,4.766,0,0,1-4.761-4.761V50.509h9.521v2.856A4.766,4.766,0,0,1,43.845,58.126Zm14.282-6.665a2.86,2.86,0,0,1-2.856,2.856H50.433a6.689,6.689,0,0,0,.076-.952v-.952h3.808a1.906,1.906,0,0,0,1.9-1.9V12.425a1.906,1.906,0,0,0-1.9-1.9H47.953a6.605,6.605,0,0,0,.576-1.9H55.27a2.86,2.86,0,0,1,2.856,2.856Z"/>
      <path id="Trazado_1045948" data-name="Trazado 1045948" d="M39,9h1.9v1.9H39Z" transform="translate(-1.82 -0.383)"/>
      <path id="Trazado_1045949" data-name="Trazado 1045949" d="M35,9h1.9v1.9H35Z" transform="translate(-1.629 -0.383)"/>
      <path id="Trazado_1045950" data-name="Trazado 1045950" d="M43,9h1.9v1.9H43Z" transform="translate(-2.012 -0.383)"/>
      <path id="Trazado_1045951" data-name="Trazado 1045951" d="M43.369,16.293l-5.039,5.039V18.87H25V32.2H38.329V24.025l6.386-6.386Zm-6.944,14H26.9V20.775h9.521v2.462l-3.808,3.808L29.482,23.91l-1.346,1.346,4.482,4.482,3.808-3.808Z" transform="translate(-1.15 -0.733)"/>
      <path id="Trazado_1045952" data-name="Trazado 1045952" d="M25,35H36.425v1.9H25Z" transform="translate(-1.15 -1.629)"/>
      <path id="Trazado_1045953" data-name="Trazado 1045953" d="M25,39H36.425v1.9H25Z" transform="translate(-1.15 -1.82)"/>
      <path id="Trazado_1045954" data-name="Trazado 1045954" d="M25,43h1.9v1.9H25Z" transform="translate(-1.15 -2.012)"/>
      <path id="Trazado_1045955" data-name="Trazado 1045955" d="M29,43h1.9v1.9H29Z" transform="translate(-1.341 -2.012)"/>
      <path id="Trazado_1045956" data-name="Trazado 1045956" d="M33,43h1.9v1.9H33Z" transform="translate(-1.533 -2.012)"/>
      <path id="Trazado_1045957" data-name="Trazado 1045957" d="M53,15h1.9v1.9H53Z" transform="translate(-2.491 -0.671)"/>
      <path id="Trazado_1045958" data-name="Trazado 1045958" d="M49,15h1.9v1.9H49Z" transform="translate(-2.299 -0.671)"/>
      <path id="Trazado_1045959" data-name="Trazado 1045959" d="M47,19h7.617v1.9H47Z" transform="translate(-2.203 -0.862)"/>
      <path id="Trazado_1045960" data-name="Trazado 1045960" d="M47,23h7.617v1.9H47Z" transform="translate(-2.203 -1.054)"/>
    </g>
  </g>
</svg>
