<svg xmlns="http://www.w3.org/2000/svg" xmlns:xlink="http://www.w3.org/1999/xlink" width="108" height="108" viewBox="0 0 108 108">
  <defs>
    <filter id="Trazado_904820" x="0" y="0" width="108" height="108" filterUnits="userSpaceOnUse">
      <feOffset dy="3" input="SourceAlpha"/>
      <feGaussianBlur stdDeviation="3" result="blur"/>
      <feFlood flood-opacity="0.161"/>
      <feComposite operator="in" in2="blur"/>
      <feComposite in="SourceGraphic"/>
    </filter>
  </defs>
  <g id="Grupo_1177440" data-name="Grupo 1177440" transform="translate(9 6)">
    <g id="Grupo_1173585" data-name="Grupo 1173585" transform="translate(0 0)">
      <g id="Grupo_1173428" data-name="Grupo 1173428">
        <g id="Grupo_1171958" data-name="Grupo 1171958">
          <g id="Grupo_1167341" data-name="Grupo 1167341">
            <g id="Grupo_1166792" data-name="Grupo 1166792">
              <g transform="matrix(1, 0, 0, 1, -9, -6)" filter="url(#Trazado_904820)">
                <g id="Trazado_904820-2" data-name="Trazado 904820" transform="translate(9 6)" fill="#effbfe">
                  <path d="M 44.99999618530273 88.49999237060547 C 39.12687301635742 88.49999237060547 33.43022155761719 87.35006713867188 28.06829643249512 85.08216857910156 C 22.88852119445801 82.89130401611328 18.23629570007324 79.75457763671875 14.24084663391113 75.75914001464844 C 10.24540901184082 71.76369476318359 7.108683586120605 67.11146545410156 4.917821407318115 61.93169403076172 C 2.649921178817749 56.56976699829102 1.499996185302734 50.87311553955078 1.499996185302734 44.99999237060547 C 1.499996185302734 39.12686920166016 2.649921178817749 33.43021774291992 4.917821407318115 28.06829261779785 C 7.108683586120605 22.88851737976074 10.24540901184082 18.23630523681641 14.24084663391113 14.24085521697998 C 18.23629570007324 10.24540519714355 22.88852119445801 7.108692169189453 28.06829643249512 4.917829990386963 C 33.43022155761719 2.649929761886597 39.12687301635742 1.500004887580872 44.99999618530273 1.500004887580872 C 50.87311935424805 1.500004887580872 56.56977081298828 2.649929761886597 61.93169784545898 4.917829990386963 C 67.11147308349609 7.108692169189453 71.76369476318359 10.24540519714355 75.75914764404297 14.24085521697998 C 79.75458526611328 18.23630523681641 82.89131164550781 22.88851737976074 85.08216857910156 28.06829261779785 C 87.35007476806641 33.43021774291992 88.5 39.12686920166016 88.5 44.99999237060547 C 88.5 50.87311553955078 87.35007476806641 56.56976699829102 85.08216857910156 61.93169403076172 C 82.89131164550781 67.11146545410156 79.75458526611328 71.76369476318359 75.75914764404297 75.75914001464844 C 71.76369476318359 79.75457763671875 67.11147308349609 82.89130401611328 61.93169784545898 85.08216857910156 C 56.56977081298828 87.35006713867188 50.87311935424805 88.49999237060547 44.99999618530273 88.49999237060547 Z" stroke="none"/>
                  <path d="M 44.99999618530273 2.999992370605469 C 39.32870864868164 2.999992370605469 33.82865142822266 4.11004638671875 28.65262603759766 6.299331665039062 C 23.65165710449219 8.414566040039062 19.15968322753906 11.44333648681641 15.301513671875 15.30150604248047 C 11.44333648681641 19.15967559814453 8.414566040039062 23.65164947509766 6.299339294433594 28.65262222290039 C 4.110054016113281 33.82864761352539 2.999992370605469 39.32870483398438 2.999992370605469 44.99999237060547 C 2.999992370605469 50.67127990722656 4.110054016113281 56.17132186889648 6.299339294433594 61.34736633300781 C 8.414566040039062 66.34833526611328 11.44333648681641 70.84029388427734 15.301513671875 74.69846343994141 C 19.15968322753906 78.55663299560547 23.65165710449219 81.58540344238281 28.65262603759766 83.70063781738281 C 33.82865142822266 85.88992309570312 39.32870864868164 86.99997711181641 44.99999618530273 86.99997711181641 C 50.67128372192383 86.99997711181641 56.17134094238281 85.88992309570312 61.34736633300781 83.70063781738281 C 66.34834289550781 81.58540344238281 70.84030914306641 78.55663299560547 74.69847869873047 74.69846343994141 C 78.55665588378906 70.84029388427734 81.58542633056641 66.34833526611328 83.70065307617188 61.34736633300781 C 85.88993835449219 56.17132186889648 87 50.67127990722656 87 44.99999237060547 C 87 39.32870483398438 85.88993835449219 33.82864761352539 83.70065307617188 28.65262222290039 C 81.58542633056641 23.65164947509766 78.55665588378906 19.15967559814453 74.69847869873047 15.30150604248047 C 70.84030914306641 11.44333648681641 66.34834289550781 8.414566040039062 61.34736633300781 6.299331665039062 C 56.17134094238281 4.11004638671875 50.67128372192383 2.999992370605469 44.99999618530273 2.999992370605469 M 44.99999618530273 -7.62939453125e-06 C 69.85281372070312 -7.62939453125e-06 90 20.14717864990234 90 44.99999237060547 C 90 69.85279083251953 69.85281372070312 89.99997711181641 44.99999618530273 89.99997711181641 C 20.14717864990234 89.99997711181641 -7.62939453125e-06 69.85279083251953 -7.62939453125e-06 44.99999237060547 C -7.62939453125e-06 20.14717864990234 20.14717864990234 -7.62939453125e-06 44.99999618530273 -7.62939453125e-06 Z" stroke="none" fill="#497f88"/>
                </g>
              </g>
            </g>
          </g>
        </g>
      </g>
    </g>
    <g id="storytelling_5190594" transform="translate(15.772 12.119)">
      <path id="Trazado_1035614" data-name="Trazado 1035614" d="M27.491,30.655a10.568,10.568,0,0,0,.573-1.253V24.124a6.12,6.12,0,0,1,.218-1.619A10.627,10.627,0,1,0,20.895,35.9l2.489,1.437a.343.343,0,0,0,.514-.3v-2.48a10.685,10.685,0,0,0,2.451-2.2,2.8,2.8,0,0,1,1.142-1.708Z" transform="translate(-6.644 -6.645)" fill="#ffd15b"/>
      <g id="Grupo_1177617" data-name="Grupo 1177617" transform="translate(0.856 8.367)">
        <g id="Grupo_1177616" data-name="Grupo 1177616">
          <path id="Trazado_1035615" data-name="Trazado 1035615" d="M12.81,25.487a10.671,10.671,0,0,1,7.977-10.138,10.628,10.628,0,1,0-.013,20.58A10.631,10.631,0,0,1,12.81,25.487Z" transform="translate(-7.5 -15.012)" fill="#fdb441"/>
        </g>
      </g>
      <g id="Grupo_1177627" data-name="Grupo 1177627" transform="translate(17.608 11.361)">
        <g id="Grupo_1177626" data-name="Grupo 1177626" transform="translate(0 0)">
          <g id="Grupo_1177618" data-name="Grupo 1177618" transform="translate(0 24.966)">
            <path id="Trazado_1035616" data-name="Trazado 1035616" d="M178.176,273.729h2.391a1.189,1.189,0,0,1,.64.187V264.77a4.877,4.877,0,0,0-4.494-4.861,4,4,0,0,1-3.32,1.767h-.119v4.185a.571.571,0,0,1-.837.505l-4.455-2.346a.57.57,0,0,0-.532,0L163,266.366a.571.571,0,0,1-.837-.505v-4.185h-.119a4,4,0,0,1-3.322-1.771,4.819,4.819,0,0,0-4.492,4.807v9.2a1.189,1.189,0,0,1,.64-.187h2.391a1.2,1.2,0,0,1,1.2,1.2v3.706a1.2,1.2,0,0,1-1.2,1.2h-2.391a1.188,1.188,0,0,1-.64-.187v3.156a1.142,1.142,0,0,0,1.142,1.142h24.7a1.142,1.142,0,0,0,1.142-1.142v-3.156a1.188,1.188,0,0,1-.64.187h-2.391a1.2,1.2,0,0,1-1.2-1.2v-3.706A1.2,1.2,0,0,1,178.176,273.729Z" transform="translate(-154.225 -259.905)" fill="#0593fc"/>
          </g>
          <g id="Grupo_1177619" data-name="Grupo 1177619" transform="translate(0 24.966)">
            <path id="Trazado_1035617" data-name="Trazado 1035617" d="M158.717,259.9a4.819,4.819,0,0,0-4.492,4.807v9.2a1.189,1.189,0,0,1,.64-.187h1.829V265.16a.342.342,0,0,1,.549-.274l1.828,1.378v-1.551a4.8,4.8,0,0,1,1.374-3.367A4.017,4.017,0,0,1,158.717,259.9Z" transform="translate(-154.225 -259.905)" fill="#0182fc"/>
            <path id="Trazado_1035618" data-name="Trazado 1035618" d="M159.072,435.875V433.6l-1.168-.884a1.189,1.189,0,0,1-.646.191h-2.391a1.188,1.188,0,0,1-.64-.187v3.156a1.142,1.142,0,0,0,1.142,1.142h4.846A1.142,1.142,0,0,1,159.072,435.875Z" transform="translate(-154.226 -412.986)" fill="#0182fc"/>
          </g>
          <path id="Trazado_1035619" data-name="Trazado 1035619" d="M200.715,42.352h-.789a5.284,5.284,0,0,0-3.254-1.115H193.74a6.118,6.118,0,0,0-6.118,6.118V63.973a4,4,0,0,0,4,4h.119v-1.5a.571.571,0,0,1,.227-.456l2.7-2.032a6.438,6.438,0,0,0,2.073.342h1.12a6.438,6.438,0,0,0,2.073-.342l2.7,2.032a.571.571,0,0,1,.227.456v1.5h.119a4,4,0,0,0,4-4V48.615a6.263,6.263,0,0,0-6.263-6.263Z" transform="translate(-183.809 -41.237)" fill="#a44f3e"/>
          <path id="Trazado_1035620" data-name="Trazado 1035620" d="M192.46,62.7a6.434,6.434,0,0,1-2.171-4.825V53.062a1.713,1.713,0,0,1,1.326-1.668l.845-.2V47.355a6.119,6.119,0,0,1,5.132-6.038,5.332,5.332,0,0,0-.921-.08H193.74a6.118,6.118,0,0,0-6.118,6.118V63.973a4,4,0,0,0,4,4h.119v-1.5a.571.571,0,0,1,.227-.456l.769-.579a3.988,3.988,0,0,1-.279-1.467V62.7Z" transform="translate(-183.809 -41.237)" fill="#883f2e"/>
          <path id="Trazado_1035621" data-name="Trazado 1035621" d="M234.6,242.533l-2.7-2.032a6.439,6.439,0,0,1-2.073.342h-1.12a6.439,6.439,0,0,1-2.073-.342l-2.7,2.032a.571.571,0,0,0-.227.456v5.684a.571.571,0,0,0,.837.505L229,246.831a.571.571,0,0,1,.532,0l4.454,2.347a.571.571,0,0,0,.837-.505v-5.684A.571.571,0,0,0,234.6,242.533Z" transform="translate(-215.779 -217.751)" fill="#fff"/>
          <path id="Trazado_1035622" data-name="Trazado 1035622" d="M228.711,240.843a6.439,6.439,0,0,1-2.073-.342l-2.7,2.032a.571.571,0,0,0-.227.456v5.684a.571.571,0,0,0,.837.505l2.05-1.08v-5.109a.571.571,0,0,1,.227-.456l2.243-1.69Z" transform="translate(-215.779 -217.751)" fill="#eaf6ff"/>
          <path id="Trazado_1035623" data-name="Trazado 1035623" d="M252.327,240.777h-1.12a6.438,6.438,0,0,1-2.1-.351V244.3a.571.571,0,0,0,.223.453l2.087,1.6a.571.571,0,0,0,.695,0l2.087-1.6a.571.571,0,0,0,.223-.453v-3.879A6.434,6.434,0,0,1,252.327,240.777Z" transform="translate(-238.276 -217.684)" fill="#fed2a4"/>
          <path id="Trazado_1035624" data-name="Trazado 1035624" d="M251.592,243.507a.571.571,0,0,1-.223-.453v-2.277h-.161a6.438,6.438,0,0,1-2.1-.351V244.3a.571.571,0,0,0,.223.453l2.087,1.6a.571.571,0,0,0,.695,0l1.6-1.227c-.012-.008-.025-.015-.037-.023Z" transform="translate(-238.277 -217.684)" fill="#ffbd86"/>
          <g id="Grupo_1177620" data-name="Grupo 1177620" transform="translate(2.035 12.152)">
            <path id="Trazado_1035625" data-name="Trazado 1035625" d="M176.492,152.165v-4.489h-1.65a2.8,2.8,0,0,0-2.8,2.8v.541a2.8,2.8,0,0,0,2.8,2.8H176.7A6.458,6.458,0,0,1,176.492,152.165Z" transform="translate(-172.046 -147.676)" fill="#ffe5c2"/>
            <path id="Trazado_1035626" data-name="Trazado 1035626" d="M333.8,147.677h-1.65v4.489a6.457,6.457,0,0,1-.212,1.643H333.8a2.8,2.8,0,0,0,2.8-2.8v-.541A2.8,2.8,0,0,0,333.8,147.677Z" transform="translate(-313.685 -147.677)" fill="#ffe5c2"/>
          </g>
          <g id="Grupo_1177621" data-name="Grupo 1177621" transform="translate(6.48 7.827)">
            <path id="Trazado_1035627" data-name="Trazado 1035627" d="M222.369,109.79l-10.059,2.329a1.713,1.713,0,0,0-1.326,1.668V118.6a6.451,6.451,0,0,0,6.451,6.451h1.12a6.451,6.451,0,0,0,6.451-6.451v-6.178A2.637,2.637,0,0,0,222.369,109.79Z" transform="translate(-210.984 -109.79)" fill="#ffe5c2"/>
          </g>
          <g id="Grupo_1177623" data-name="Grupo 1177623" transform="translate(6.48 9.373)">
            <g id="Grupo_1177622" data-name="Grupo 1177622">
              <path id="Trazado_1035628" data-name="Trazado 1035628" d="M214.774,130.6v-5.752a1.713,1.713,0,0,1,.917-1.517l-3.382.783a1.713,1.713,0,0,0-1.326,1.668V130.6a6.451,6.451,0,0,0,6.451,6.451h1.12a6.476,6.476,0,0,0,1.336-.139,6.452,6.452,0,0,1-5.115-6.312Z" transform="translate(-210.983 -123.332)" fill="#fed2a4"/>
            </g>
          </g>
          <g id="Grupo_1177624" data-name="Grupo 1177624" transform="translate(10.616 17.88)">
            <path id="Trazado_1035629" data-name="Trazado 1035629" d="M247.628,197.846a.422.422,0,0,0-.416.5,2.682,2.682,0,0,0,2.635,2.185h.465a2.682,2.682,0,0,0,2.635-2.185.422.422,0,0,0-.416-.5Z" transform="translate(-247.205 -197.846)" fill="#fd8087"/>
          </g>
          <g id="Grupo_1177625" data-name="Grupo 1177625" transform="translate(10.616 17.88)">
            <path id="Trazado_1035630" data-name="Trazado 1035630" d="M249.587,198.341a.422.422,0,0,1,.416-.5h-2.374a.422.422,0,0,0-.416.5,2.682,2.682,0,0,0,2.635,2.185h.465a2.674,2.674,0,0,0,.954-.176A2.685,2.685,0,0,1,249.587,198.341Z" transform="translate(-247.205 -197.845)" fill="#fe646f"/>
          </g>
        </g>
      </g>
      <path id="Trazado_1035631" data-name="Trazado 1035631" d="M196.137,316.47v-3.706a1.2,1.2,0,0,1,1.2-1.2h.562v-8.6a.342.342,0,0,0-.549-.273l-10.266,7.769a.343.343,0,0,1-.413,0L176.4,302.725a.342.342,0,0,0-.549.274v8.569h.562a1.2,1.2,0,0,1,1.2,1.2v3.706a1.193,1.193,0,0,1-.549,1l9.607,7.27a.343.343,0,0,0,.413,0l9.607-7.27A1.194,1.194,0,0,1,196.137,316.47Z" transform="translate(-155.774 -261.418)" fill="#97d729"/>
      <path id="Trazado_1035632" data-name="Trazado 1035632" d="M176.4,302.992a.342.342,0,0,0-.549.274v8.569h.562a1.2,1.2,0,0,1,1.2,1.2v3.706a1.193,1.193,0,0,1-.549,1l9.607,7.27a.342.342,0,0,0,.207.069V310.8a.341.341,0,0,1-.207-.069Z" transform="translate(-155.775 -261.684)" fill="#fd4755"/>
      <path id="Trazado_1035633" data-name="Trazado 1035633" d="M179.826,315.911a.343.343,0,0,1-.136-.273V305.47l-3.289-2.478a.342.342,0,0,0-.549.274v8.569h.562a1.2,1.2,0,0,1,1.2,1.2v3.706a1.193,1.193,0,0,1-.549,1l9.607,7.27a.342.342,0,0,0,.207.069v-3.835Z" transform="translate(-155.776 -261.684)" fill="#fb2b3a"/>
      <g id="Grupo_1177628" data-name="Grupo 1177628" transform="translate(34.559 48.263)">
        <ellipse id="Elipse_12481" data-name="Elipse 12481" cx="3.131" cy="2.29" rx="3.131" ry="2.29" transform="translate(0 6.212) rotate(-82.591)" fill="#fff"/>
      </g>
      <g id="Grupo_1177629" data-name="Grupo 1177629" transform="translate(34.913 48.562)">
        <path id="Trazado_1035634" data-name="Trazado 1035634" d="M307.727,370.121a3.536,3.536,0,0,1,1.505-2.77,1.72,1.72,0,0,0-.893-.283c-1.267-.036-2.4,1.331-2.53,3.053s.792,3.148,2.059,3.184a1.876,1.876,0,0,0,1.024-.283A3.143,3.143,0,0,1,307.727,370.121Z" transform="translate(-305.797 -367.067)" fill="#eaf6ff"/>
      </g>
      <g id="Grupo_1177634" data-name="Grupo 1177634" transform="translate(17.053 50.15)">
        <g id="Grupo_1177630" data-name="Grupo 1177630" transform="translate(0)">
          <path id="Trazado_1035635" data-name="Trazado 1035635" d="M152.95,387.08h-2.391a1.2,1.2,0,0,1-1.2-1.2v-3.706a1.2,1.2,0,0,1,1.2-1.2h2.391a1.2,1.2,0,0,1,1.2,1.2v3.706A1.2,1.2,0,0,1,152.95,387.08Z" transform="translate(-149.364 -380.983)" fill="#ffe5c2"/>
        </g>
        <g id="Grupo_1177631" data-name="Grupo 1177631" transform="translate(0 0)">
          <path id="Trazado_1035636" data-name="Trazado 1035636" d="M151.276,385.885v-3.706a1.2,1.2,0,0,1,1.2-1.2h-1.913a1.2,1.2,0,0,0-1.2,1.2v3.706a1.2,1.2,0,0,0,1.2,1.2h1.913A1.2,1.2,0,0,1,151.276,385.885Z" transform="translate(-149.363 -380.983)" fill="#fed2a4"/>
        </g>
        <g id="Grupo_1177632" data-name="Grupo 1177632" transform="translate(23.31)">
          <path id="Trazado_1035637" data-name="Trazado 1035637" d="M357.118,387.08h-2.391a1.2,1.2,0,0,1-1.2-1.2v-3.706a1.2,1.2,0,0,1,1.2-1.2h2.391a1.2,1.2,0,0,1,1.2,1.2v3.706A1.2,1.2,0,0,1,357.118,387.08Z" transform="translate(-353.532 -380.983)" fill="#ffe5c2"/>
        </g>
        <g id="Grupo_1177633" data-name="Grupo 1177633" transform="translate(23.31 0)">
          <path id="Trazado_1035638" data-name="Trazado 1035638" d="M355.425,385.885v-3.706a1.2,1.2,0,0,1,1.2-1.2h-1.893a1.2,1.2,0,0,0-1.2,1.2v3.706a1.2,1.2,0,0,0,1.2,1.2h1.893A1.2,1.2,0,0,1,355.425,385.885Z" transform="translate(-353.532 -380.983)" fill="#fed2a4"/>
        </g>
      </g>
      <g id="Grupo_1177635" data-name="Grupo 1177635" transform="translate(0 7.511)">
        <path id="Trazado_1035639" data-name="Trazado 1035639" d="M245.889,190.346h-4.9a1.278,1.278,0,0,0-1.258,1.51,3.538,3.538,0,0,0,3.477,2.884h.465a3.538,3.538,0,0,0,3.477-2.884,1.278,1.278,0,0,0-1.258-1.51Zm-2.219,2.681H243.2a1.827,1.827,0,0,1-1.613-.969h3.691A1.827,1.827,0,0,1,243.669,193.027Z" transform="translate(-212.337 -169.471)"/>
        <path id="Trazado_1035640" data-name="Trazado 1035640" d="M237.028,143.369v-1.736a.856.856,0,1,0-1.713,0v1.736a.856.856,0,1,0,1.713,0Z" transform="translate(-208.449 -125.562)"/>
        <path id="Trazado_1035641" data-name="Trazado 1035641" d="M295.32,140.777a.856.856,0,0,0-.856.856v1.736a.856.856,0,1,0,1.713,0v-1.736A.856.856,0,0,0,295.32,140.777Z" transform="translate(-260.845 -125.562)"/>
        <path id="Trazado_1035642" data-name="Trazado 1035642" d="M257.62,153.14A.856.856,0,1,0,258.9,152l-.485-.546.514-.642a.856.856,0,1,0-1.337-1.07l-.965,1.206a.856.856,0,0,0,.029,1.1Z" transform="translate(-227.16 -133.221)"/>
        <path id="Trazado_1035643" data-name="Trazado 1035643" d="M45.446,41.192A5.741,5.741,0,0,0,41.361,35.7q.07-.2.123-.41a.856.856,0,0,0-1.66-.42,3.138,3.138,0,0,1-2.312,2.281V36.6a1.434,1.434,0,0,0-.568-1.14l-1.559-1.174a7.348,7.348,0,0,0,3.14-3.783H39.76c.054,0,.108,0,.161,0v.589a.856.856,0,0,0,1.713,0v-1.1a3.653,3.653,0,0,0,1.778-3.133v-.541a3.653,3.653,0,0,0-1.778-3.133V18.739a7.127,7.127,0,0,0-7.119-7.119h-.508A6.1,6.1,0,0,0,30.471,10.5H27.54a6.973,6.973,0,0,0-5.862,3.2,11.517,11.517,0,0,0-.828-1.356.856.856,0,0,0-1.4.992,9.723,9.723,0,0,1,1.3,2.549,6.966,6.966,0,0,0-.184,1.588V22.6q-.17.427-.379.836a3.662,3.662,0,0,0-1.264,1.889,9.845,9.845,0,0,1-2.133,1.868.856.856,0,0,0-.39.718V29.5l-1.719-.992a.855.855,0,0,0-.651-.085,9.8,9.8,0,0,1-2.546.337A9.77,9.77,0,1,1,16.8,10.8a.856.856,0,0,0,.934-1.436,11.483,11.483,0,1,0-3.611,20.806l2.189,1.264a1.2,1.2,0,0,0,1.8-1.038V28.367q.411-.291.79-.613a3.666,3.666,0,0,0,1.663,2.229V34.1a4.836,4.836,0,0,0,.269,1.592,5.683,5.683,0,0,0-4.082,5.445v8.813a2.042,2.042,0,0,0-.555,1.4v3.706a2.042,2.042,0,0,0,.555,1.4v2.765a2,2,0,0,0,2,2h7.932l3.694,2.8a1.2,1.2,0,0,0,1.447,0l3.694-2.8h7.932a2,2,0,0,0,2-2V56.451a2.042,2.042,0,0,0,.555-1.4V51.346a2.042,2.042,0,0,0-.555-1.4ZM35.8,36.742V41.81l-3.119-1.643,1.373-1.053a1.436,1.436,0,0,0,.559-1.133V35.847Zm-9.4,0,1.187-.894v2.134a1.435,1.435,0,0,0,.559,1.132l1.373,1.053L26.4,41.81Zm-1.144-1.282a1.435,1.435,0,0,0-.568,1.14v.555A3.15,3.15,0,0,1,22.277,34.1V30.5c.053,0,.107,0,.161,0h1.234a7.348,7.348,0,0,0,3.14,3.783ZM29.3,37.84V35.2a7.321,7.321,0,0,0,1.242.107h1.12A7.323,7.323,0,0,0,32.9,35.2V37.84l-1.8,1.382ZM37.254,28A5.6,5.6,0,0,1,31.659,33.6h-1.12A5.6,5.6,0,0,1,24.944,28V23.186a.853.853,0,0,1,.663-.834l9.954-2.305a1.782,1.782,0,0,1,1.692,1.778ZM41.7,26.309v.541a1.942,1.942,0,0,1-1.939,1.939h-.837A7.336,7.336,0,0,0,38.966,28V24.37h.794A1.942,1.942,0,0,1,41.7,26.309ZM22.277,17.48a5.268,5.268,0,0,1,5.262-5.262h2.932a4.408,4.408,0,0,1,2.728.935.857.857,0,0,0,.525.18h.789a5.413,5.413,0,0,1,5.406,5.406v3.922c-.053,0-.107,0-.161,0h-.794v-.833a3.5,3.5,0,0,0-3.493-3.493.854.854,0,0,0-.193.022L25.221,20.683a2.554,2.554,0,0,0-1.933,1.974h-.85c-.054,0-.108,0-.161,0ZM20.5,26.85v-.541a1.942,1.942,0,0,1,1.939-1.939h.794V28a7.364,7.364,0,0,0,.043.787h-.837A1.942,1.942,0,0,1,20.5,26.85ZM18.464,41.134a3.969,3.969,0,0,1,3.255-3.9A4.856,4.856,0,0,0,24.685,38.9v3.384a1.427,1.427,0,0,0,2.092,1.263L31.1,41.269l4.321,2.277a1.427,1.427,0,0,0,2.092-1.263V38.9a4.853,4.853,0,0,0,2.965-1.653,4.027,4.027,0,0,1,3.256,3.947v8.1h-.757V41.547a1.2,1.2,0,0,0-1.922-.956h0L31.1,48.126l-9.957-7.5a1.2,1.2,0,0,0-1.92.957v7.713h-.757v-8.16Zm-.555,13.918V51.346a.34.34,0,0,1,.339-.339h2.391a.34.34,0,0,1,.339.339v3.706a.34.34,0,0,1-.339.339H18.248A.34.34,0,0,1,17.909,55.052ZM18.75,59.5a.286.286,0,0,1-.285-.285V57.1H20.64a2.04,2.04,0,0,0,.519-.069l3.26,2.467Zm13.206,2.26v-3.73a.856.856,0,1,0-1.713,0v3.73L22.5,55.9a2.036,2.036,0,0,0,.188-.853V51.346a2.053,2.053,0,0,0-1.758-2.028V42.612l9.309,7.014v4.409a.856.856,0,0,0,1.713,0v-4.41l9.309-7.045v6.738a2.045,2.045,0,0,0-1.137.56A3.674,3.674,0,0,0,39.4,48.63a2.689,2.689,0,0,0-1.923-.924c-1.746-.049-3.242,1.639-3.408,3.845a4.265,4.265,0,0,0,.966,3.18,2.689,2.689,0,0,0,1.922.924h.075a3.088,3.088,0,0,0,2.471-1.392v.788a2.037,2.037,0,0,0,.188.853Zm6.705-10.08c-.081,1.078-.766,2.262-1.625,2.262h-.027a.971.971,0,0,1-.7-.359,2.6,2.6,0,0,1-.531-1.9c.081-1.078.766-2.262,1.625-2.262h.026a.97.97,0,0,1,.7.359,2.6,2.6,0,0,1,.531,1.9Zm5.073,7.534a.286.286,0,0,1-.285.285H37.78l3.26-2.467a2.041,2.041,0,0,0,.519.069h2.175Zm.555-4.164a.34.34,0,0,1-.339.339H41.559a.34.34,0,0,1-.339-.339V51.346a.34.34,0,0,1,.339-.339H43.95a.34.34,0,0,1,.339.339Z" transform="translate(0 -7.511)"/>
        <path id="Trazado_1035644" data-name="Trazado 1035644" d="M46.361,235.309a.856.856,0,0,0-.856-.856H33.635a.856.856,0,0,0,0,1.713H45.5A.856.856,0,0,0,46.361,235.309Z" transform="translate(-29.037 -208.543)"/>
        <path id="Trazado_1035645" data-name="Trazado 1035645" d="M405.765,234.453H393.9a.856.856,0,1,0,0,1.713h11.869a.856.856,0,1,0,0-1.713Z" transform="translate(-348.165 -208.543)"/>
        <path id="Trazado_1035646" data-name="Trazado 1035646" d="M388.743,47.194a.857.857,0,0,0,1.211,0l8.393-8.393a.856.856,0,0,0-1.211-1.211l-8.393,8.393A.856.856,0,0,0,388.743,47.194Z" transform="translate(-344.138 -33.933)"/>
        <path id="Trazado_1035647" data-name="Trazado 1035647" d="M70.409,58.21a.856.856,0,1,0,0-1.713h-6.96a.856.856,0,1,0,0,1.713Z" transform="translate(-55.447 -50.904)"/>
        <path id="Trazado_1035648" data-name="Trazado 1035648" d="M111.047,85.889h-4.6a.856.856,0,0,0,0,1.713h4.6a.856.856,0,0,0,0-1.713Z" transform="translate(-93.536 -76.94)"/>
        <path id="Trazado_1035649" data-name="Trazado 1035649" d="M40.278,86.745a.856.856,0,0,0,.856.856h4.474a.856.856,0,1,0,0-1.713H41.134A.856.856,0,0,0,40.278,86.745Z" transform="translate(-35.679 -76.94)"/>
        <path id="Trazado_1035650" data-name="Trazado 1035650" d="M54.046,116.136a.856.856,0,0,0-.856-.856H41.134a.856.856,0,0,0,0,1.713H53.19A.856.856,0,0,0,54.046,116.136Z" transform="translate(-35.679 -102.976)"/>
        <path id="Trazado_1035651" data-name="Trazado 1035651" d="M63.45,144.672a.856.856,0,0,0,0,1.713h6.96a.856.856,0,0,0,0-1.713Z" transform="translate(-55.448 -129.012)"/>
        <path id="Trazado_1035652" data-name="Trazado 1035652" d="M412.484,161.147a.856.856,0,0,0,.856-.856v-.749h.749a.856.856,0,0,0,0-1.713h-.749v-.749a.856.856,0,1,0-1.713,0v.749h-.749a.856.856,0,1,0,0,1.713h.749v.749A.856.856,0,0,0,412.484,161.147Z" transform="translate(-363.209 -139.245)"/>
        <path id="Trazado_1035653" data-name="Trazado 1035653" d="M363.53,13.918h.749v.749a.856.856,0,0,0,1.713,0v-.749h.749a.856.856,0,1,0,0-1.713h-.749v-.749a.856.856,0,0,0-1.713,0v.749h-.749a.856.856,0,1,0,0,1.712Z" transform="translate(-321.267 -10.247)"/>
        <path id="Trazado_1035654" data-name="Trazado 1035654" d="M74.087,283.943h-.749v-.749a.856.856,0,1,0-1.713,0v.749h-.749a.856.856,0,0,0,0,1.713h.749v.749a.856.856,0,0,0,1.713,0v-.749h.749a.856.856,0,1,0,0-1.713Z" transform="translate(-62.026 -250.961)"/>
      </g>
    </g>
  </g>
</svg>
