<svg xmlns="http://www.w3.org/2000/svg" xmlns:xlink="http://www.w3.org/1999/xlink" width="108" height="108" viewBox="0 0 108 108">
  <defs>
    <filter id="Trazado_904820" x="0" y="0" width="108" height="108" filterUnits="userSpaceOnUse">
      <feOffset dy="3" input="SourceAlpha"/>
      <feGaussianBlur stdDeviation="3" result="blur"/>
      <feFlood flood-opacity="0.161"/>
      <feComposite operator="in" in2="blur"/>
      <feComposite in="SourceGraphic"/>
    </filter>
  </defs>
  <g id="Grupo_1201643" data-name="Grupo 1201643" transform="translate(-200 -433.513)">
    <g id="Grupo_1177440" data-name="Grupo 1177440" transform="translate(209 439.513)">
      <g id="Grupo_1173585" data-name="Grupo 1173585" transform="translate(0 0)">
        <g id="Grupo_1173428" data-name="Grupo 1173428">
          <g id="Grupo_1171958" data-name="Grupo 1171958">
            <g id="Grupo_1167341" data-name="Grupo 1167341">
              <g id="Grupo_1166792" data-name="Grupo 1166792">
                <g transform="matrix(1, 0, 0, 1, -9, -6)" filter="url(#Trazado_904820)">
                  <g id="Trazado_904820-2" data-name="Trazado 904820" transform="translate(9 6)" fill="#fdfbec">
                    <path d="M 44.99999618530273 88.49999237060547 C 39.12687301635742 88.49999237060547 33.43022155761719 87.35006713867188 28.06829643249512 85.08216857910156 C 22.88852119445801 82.89130401611328 18.23629570007324 79.75457763671875 14.24084663391113 75.75914001464844 C 10.24540901184082 71.76369476318359 7.108683586120605 67.11146545410156 4.917821407318115 61.93169403076172 C 2.649921178817749 56.56976699829102 1.499996185302734 50.87311553955078 1.499996185302734 44.99999237060547 C 1.499996185302734 39.12686920166016 2.649921178817749 33.43021774291992 4.917821407318115 28.06829261779785 C 7.108683586120605 22.88851737976074 10.24540901184082 18.23630523681641 14.24084663391113 14.24085521697998 C 18.23629570007324 10.24540519714355 22.88852119445801 7.108692169189453 28.06829643249512 4.917829990386963 C 33.43022155761719 2.649929761886597 39.12687301635742 1.500004887580872 44.99999618530273 1.500004887580872 C 50.87311935424805 1.500004887580872 56.56977081298828 2.649929761886597 61.93169784545898 4.917829990386963 C 67.11147308349609 7.108692169189453 71.76369476318359 10.24540519714355 75.75914764404297 14.24085521697998 C 79.75458526611328 18.23630523681641 82.89131164550781 22.88851737976074 85.08216857910156 28.06829261779785 C 87.35007476806641 33.43021774291992 88.5 39.12686920166016 88.5 44.99999237060547 C 88.5 50.87311553955078 87.35007476806641 56.56976699829102 85.08216857910156 61.93169403076172 C 82.89131164550781 67.11146545410156 79.75458526611328 71.76369476318359 75.75914764404297 75.75914001464844 C 71.76369476318359 79.75457763671875 67.11147308349609 82.89130401611328 61.93169784545898 85.08216857910156 C 56.56977081298828 87.35006713867188 50.87311935424805 88.49999237060547 44.99999618530273 88.49999237060547 Z" stroke="none"/>
                    <path d="M 44.99999618530273 2.999992370605469 C 39.32870864868164 2.999992370605469 33.82865142822266 4.11004638671875 28.65262603759766 6.299331665039062 C 23.65165710449219 8.414566040039062 19.15968322753906 11.44333648681641 15.301513671875 15.30150604248047 C 11.44333648681641 19.15967559814453 8.414566040039062 23.65164947509766 6.299339294433594 28.65262222290039 C 4.110054016113281 33.82864761352539 2.999992370605469 39.32870483398438 2.999992370605469 44.99999237060547 C 2.999992370605469 50.67127990722656 4.110054016113281 56.17132186889648 6.299339294433594 61.34736633300781 C 8.414566040039062 66.34833526611328 11.44333648681641 70.84029388427734 15.301513671875 74.69846343994141 C 19.15968322753906 78.55663299560547 23.65165710449219 81.58540344238281 28.65262603759766 83.70063781738281 C 33.82865142822266 85.88992309570312 39.32870864868164 86.99997711181641 44.99999618530273 86.99997711181641 C 50.67128372192383 86.99997711181641 56.17134094238281 85.88992309570312 61.34736633300781 83.70063781738281 C 66.34834289550781 81.58540344238281 70.84030914306641 78.55663299560547 74.69847869873047 74.69846343994141 C 78.55665588378906 70.84029388427734 81.58542633056641 66.34833526611328 83.70065307617188 61.34736633300781 C 85.88993835449219 56.17132186889648 87 50.67127990722656 87 44.99999237060547 C 87 39.32870483398438 85.88993835449219 33.82864761352539 83.70065307617188 28.65262222290039 C 81.58542633056641 23.65164947509766 78.55665588378906 19.15967559814453 74.69847869873047 15.30150604248047 C 70.84030914306641 11.44333648681641 66.34834289550781 8.414566040039062 61.34736633300781 6.299331665039062 C 56.17134094238281 4.11004638671875 50.67128372192383 2.999992370605469 44.99999618530273 2.999992370605469 M 44.99999618530273 -7.62939453125e-06 C 69.85281372070312 -7.62939453125e-06 90 20.14717864990234 90 44.99999237060547 C 90 69.85279083251953 69.85281372070312 89.99997711181641 44.99999618530273 89.99997711181641 C 20.14717864990234 89.99997711181641 -7.62939453125e-06 69.85279083251953 -7.62939453125e-06 44.99999237060547 C -7.62939453125e-06 20.14717864990234 20.14717864990234 -7.62939453125e-06 44.99999618530273 -7.62939453125e-06 Z" stroke="none" fill="#83793c"/>
                  </g>
                </g>
              </g>
            </g>
          </g>
        </g>
      </g>
    </g>
    <g id="teacher_5190740_2_" data-name="teacher_5190740 (2)" transform="translate(224.296 442.456)">
      <path id="Trazado_1045961" data-name="Trazado 1045961" d="M149.079,328.491a.58.58,0,0,1-.58-.58v-15.6a5.245,5.245,0,0,1-3.1,1.006h-.59v4.549a.58.58,0,0,1-.871.5l-5.219-3.029a.581.581,0,0,0-.582,0l-5.219,3.029a.58.58,0,0,1-.871-.5v-4.549h-.59a5.245,5.245,0,0,1-3.1-1.006v15.6a.58.58,0,0,1-.58.58H123v3.915a.58.58,0,0,0,.58.58h29.7a.58.58,0,0,0,.58-.58v-3.915Z" transform="translate(-108.728 -263.717)" fill="#ffd15b"/>
      <path id="Trazado_1045962" data-name="Trazado 1045962" d="M127.641,455.7V451.78H123V455.7a.58.58,0,0,0,.58.58h4.641A.58.58,0,0,1,127.641,455.7Z" transform="translate(-108.728 -387.006)" fill="#fdb441"/>
      <path id="Trazado_1045963" data-name="Trazado 1045963" d="M236.77,337.811a.58.58,0,0,0-.582,0l-2.271,1.318,2.018,5.5a.58.58,0,0,0,1.089,0l2.018-5.5Z" transform="translate(-206.776 -286.192)" fill="#fff"/>
      <path id="Trazado_1045964" data-name="Trazado 1045964" d="M166.063,22.887a6.684,6.684,0,0,0-4.116-1.411H159.42a8.92,8.92,0,0,0-8.92,8.92V49.121h1.595a.58.58,0,0,1,.58.58v5.52a5.245,5.245,0,0,0,3.1,1.006h.59V52.358a.58.58,0,0,1,.256-.481l2.542-1.716a8.137,8.137,0,0,0,2.876.523h1.416a8.14,8.14,0,0,0,2.876-.523l2.542,1.716a.58.58,0,0,1,.256.481v3.869h.59a5.245,5.245,0,0,0,3.1-1.006V49.7a.58.58,0,0,1,.58-.58h1.595V31.807a8.92,8.92,0,0,0-8.92-8.92Z" transform="translate(-133.037 -6.631)" fill="#fe7701"/>
      <g id="Grupo_1201624" data-name="Grupo 1201624" transform="translate(17.463 14.845)">
        <path id="Trazado_1045965" data-name="Trazado 1045965" d="M151.582,37.2h2.292c0,.006,0,.011,0,.017a2.5,2.5,0,0,1,2.254-2.492V30.4a8.921,8.921,0,0,1,7.262-8.764,6.721,6.721,0,0,0-1.442-.156H159.42a8.92,8.92,0,0,0-8.92,8.92v6.983a3.326,3.326,0,0,1,1.082-.181Z" transform="translate(-150.5 -21.476)" fill="#f46700"/>
        <path id="Trazado_1045966" data-name="Trazado 1045966" d="M156.36,230a5.268,5.268,0,0,1-.232-1.55v-2.805a8.15,8.15,0,0,1-1.886-3.2h-2.659a3.326,3.326,0,0,1-1.082-.181v4.348h1.595a.58.58,0,0,1,.58.58v5.52a5.245,5.245,0,0,0,3.1,1.006h.59Z" transform="translate(-150.5 -198.968)" fill="#f46700"/>
      </g>
      <path id="Trazado_1045967" data-name="Trazado 1045967" d="M213.508,270.419l-2.542-1.716a8.137,8.137,0,0,1-2.876.523h-1.416a8.141,8.141,0,0,1-2.876-.523l-2.542,1.716a.58.58,0,0,0-.256.481v8.418a.58.58,0,0,0,.871.5l5.219-3.029a.58.58,0,0,1,.582,0l5.219,3.029a.58.58,0,0,0,.871-.5V270.9A.58.58,0,0,0,213.508,270.419Z" transform="translate(-177.678 -225.172)" fill="#eaf6ff"/>
      <path id="Trazado_1045968" data-name="Trazado 1045968" d="M203.8,268.7l-2.542,1.716a.58.58,0,0,0-.256.481v8.418a.58.58,0,0,0,.871.5l2.029-1.178V270.9a.58.58,0,0,1,.256-.481l1.815-1.225A8.113,8.113,0,0,1,203.8,268.7Z" transform="translate(-177.678 -225.172)" fill="#d8ecfe"/>
      <path id="Trazado_1045969" data-name="Trazado 1045969" d="M231.1,269.828h-1.416a8.144,8.144,0,0,1-2.654-.444v4.246l3.362,3.594,3.362-3.594v-4.246A8.144,8.144,0,0,1,231.1,269.828Z" transform="translate(-200.685 -225.774)" fill="#fed2a4"/>
      <path id="Trazado_1045970" data-name="Trazado 1045970" d="M229.931,269.828h-.25a8.144,8.144,0,0,1-2.654-.444v4.246l3.362,3.594,1.891-2.021-2.349-2.511Z" transform="translate(-200.685 -225.774)" fill="#ffbd86"/>
      <g id="Grupo_1201625" data-name="Grupo 1201625" transform="translate(15.213 30.567)">
        <path id="Trazado_1045971" data-name="Trazado 1045971" d="M136.738,162.3v-5.31c0-.006,0-.011,0-.017h-2.292a3.331,3.331,0,0,0-3.331,3.331V161.4a3.331,3.331,0,0,0,3.331,3.331h2.659A8.152,8.152,0,0,1,136.738,162.3Z" transform="translate(-131.115 -156.975)" fill="#ffe5c2"/>
        <path id="Trazado_1045972" data-name="Trazado 1045972" d="M331.914,156.976h-2.292V162.3a8.154,8.154,0,0,1-.368,2.429h2.659a3.331,3.331,0,0,0,3.331-3.331v-1.094A3.331,3.331,0,0,0,331.914,156.976Z" transform="translate(-306.265 -156.976)" fill="#ffe5c2"/>
      </g>
      <g id="Grupo_1201626" data-name="Grupo 1201626" transform="translate(20.836 24.934)">
        <path id="Trazado_1045973" data-name="Trazado 1045973" d="M193.049,108.908a2.473,2.473,0,0,1,2.92-.013,3.33,3.33,0,0,1,1.343,2.675v7.815a8.159,8.159,0,0,1-8.159,8.159h-1.416a8.159,8.159,0,0,1-8.159-8.159v-5.31a2.5,2.5,0,0,1,2.5-2.5h6.48a2.5,2.5,0,0,0,1.469-.476Z" transform="translate(-179.577 -108.425)" fill="#ffe5c2"/>
      </g>
      <g id="Grupo_1201628" data-name="Grupo 1201628" transform="translate(20.836 28.08)">
        <g id="Grupo_1201627" data-name="Grupo 1201627">
          <path id="Trazado_1045974" data-name="Trazado 1045974" d="M183.472,143.351v-5.31a2.5,2.5,0,0,1,2.5-2.5h-3.9a2.5,2.5,0,0,0-2.5,2.5v5.31a8.159,8.159,0,0,0,8.159,8.16h1.416a8.226,8.226,0,0,0,1.24-.094A8.162,8.162,0,0,1,183.472,143.351Z" transform="translate(-179.576 -135.536)" fill="#fed2a4"/>
        </g>
      </g>
      <path id="Trazado_1045975" data-name="Trazado 1045975" d="M225.191,216.388a.533.533,0,0,0-.526.628A3.392,3.392,0,0,0,228,219.779h.589a3.393,3.393,0,0,0,3.333-2.764.533.533,0,0,0-.526-.628Z" transform="translate(-198.589 -178.927)" fill="#fff"/>
      <g id="Grupo_1201632" data-name="Grupo 1201632" transform="translate(0.87 42.491)">
        <g id="Grupo_1201629" data-name="Grupo 1201629" transform="translate(1.479)">
          <path id="Trazado_1045976" data-name="Trazado 1045976" d="M36.951,259.736H20.823a.58.58,0,0,0-.58.58v16.55h2.523A1.334,1.334,0,0,1,24.1,278.2v3.819H36.951a.58.58,0,0,0,.58-.58V260.316a.58.58,0,0,0-.58-.58Z" transform="translate(-20.243 -259.736)" fill="#d8ecfe"/>
          <path id="Trazado_1045977" data-name="Trazado 1045977" d="M24.972,281.439V260.316a.58.58,0,0,1,.58-.58H20.823a.58.58,0,0,0-.58.58v16.55h2.523A1.334,1.334,0,0,1,24.1,278.2v3.819h1.452A.58.58,0,0,1,24.972,281.439Z" transform="translate(-20.243 -259.736)" fill="#c4e2ff"/>
        </g>
        <g id="Grupo_1201630" data-name="Grupo 1201630" transform="translate(0 17.13)">
          <path id="Trazado_1045978" data-name="Trazado 1045978" d="M11.5,414.173H8.834A1.334,1.334,0,0,1,7.5,412.839V408.7a1.334,1.334,0,0,1,1.334-1.334H11.5a1.334,1.334,0,0,1,1.334,1.334v4.135A1.334,1.334,0,0,1,11.5,414.173Z" transform="translate(-7.5 -407.37)" fill="#ffe5c2"/>
        </g>
        <g id="Grupo_1201631" data-name="Grupo 1201631" transform="translate(0 17.13)">
          <path id="Trazado_1045979" data-name="Trazado 1045979" d="M10.227,412.839V408.7a1.333,1.333,0,0,1,1.3-1.332h-2.7A1.334,1.334,0,0,0,7.5,408.7v4.135a1.334,1.334,0,0,0,1.334,1.334h2.7A1.333,1.333,0,0,1,10.227,412.839Z" transform="translate(-7.5 -407.37)" fill="#fed2a4"/>
        </g>
      </g>
      <g id="Grupo_1201641" data-name="Grupo 1201641" transform="translate(39.77 42.491)">
        <g id="Grupo_1201638" data-name="Grupo 1201638">
          <path id="Trazado_1045980" data-name="Trazado 1045980" d="M356.189,278.2a1.334,1.334,0,0,1,1.334-1.334h2.523v-16.55a.58.58,0,0,0-.58-.58H343.337a.58.58,0,0,0-.58.58v21.123a.58.58,0,0,0,.58.58h12.851V278.2Z" transform="translate(-342.757 -259.736)" fill="#0593fc"/>
          <g id="Grupo_1201633" data-name="Grupo 1201633">
            <path id="Trazado_1045981" data-name="Trazado 1045981" d="M347.891,281.439V260.316a.58.58,0,0,1,.58-.58h-5.133a.58.58,0,0,0-.58.58v21.123a.58.58,0,0,0,.58.58h5.133A.58.58,0,0,1,347.891,281.439Z" transform="translate(-342.757 -259.736)" fill="#0182fc"/>
          </g>
          <g id="Grupo_1201637" data-name="Grupo 1201637" transform="translate(3.195 5.911)">
            <path id="Trazado_1045982" data-name="Trazado 1045982" d="M378.776,327.11a1.868,1.868,0,1,1-3.035,1.445l0,0a3.156,3.156,0,0,0-2.72-1.49c-1.74.12-2.948,2.052-2.7,4.315s1.865,4,3.606,3.88h3.622c1.74.12,3.355-1.617,3.606-3.88C381.391,329.26,380.343,327.428,378.776,327.11Z" transform="translate(-370.289 -325.161)" fill="#fb2b3a"/>
            <g id="Grupo_1201635" data-name="Grupo 1201635" transform="translate(0 1.901)">
              <g id="Grupo_1201634" data-name="Grupo 1201634">
                <path id="Trazado_1045983" data-name="Trazado 1045983" d="M374.241,331.382a4.406,4.406,0,0,1,.966-3.442,2.9,2.9,0,0,0-2.188-.873c-1.74.12-2.948,2.052-2.7,4.315s1.865,4,3.606,3.88h3.583C375.9,335.155,374.476,333.5,374.241,331.382Z" transform="translate(-370.289 -327.061)" fill="#e41f2d"/>
              </g>
            </g>
            <g id="Grupo_1201636" data-name="Grupo 1201636" transform="translate(4.682 0)">
              <ellipse id="Elipse_12503" data-name="Elipse 12503" cx="2.136" cy="1.142" rx="2.136" ry="1.142" transform="translate(0 3.02) rotate(-45)" fill="#97d729"/>
            </g>
          </g>
        </g>
        <g id="Grupo_1201639" data-name="Grupo 1201639" transform="translate(13.431 17.13)">
          <path id="Trazado_1045984" data-name="Trazado 1045984" d="M462.517,414.173h-2.668a1.334,1.334,0,0,1-1.334-1.334V408.7a1.334,1.334,0,0,1,1.334-1.334h2.668a1.334,1.334,0,0,1,1.334,1.334v4.135A1.334,1.334,0,0,1,462.517,414.173Z" transform="translate(-458.515 -407.37)" fill="#ffe5c2"/>
        </g>
        <g id="Grupo_1201640" data-name="Grupo 1201640" transform="translate(13.431 17.13)">
          <path id="Trazado_1045985" data-name="Trazado 1045985" d="M461.242,412.839V408.7a1.333,1.333,0,0,1,1.3-1.332h-2.7a1.334,1.334,0,0,0-1.334,1.334v4.135a1.334,1.334,0,0,0,1.334,1.334h2.7A1.333,1.333,0,0,1,461.242,412.839Z" transform="translate(-458.515 -407.37)" fill="#fed2a4"/>
        </g>
      </g>
      <g id="Grupo_1201642" data-name="Grupo 1201642" transform="translate(0 13.975)">
        <path id="Trazado_1045986" data-name="Trazado 1045986" d="M224.764,208.889h-6.2a1.4,1.4,0,0,0-1.382,1.658,4.262,4.262,0,0,0,4.189,3.474h.589a4.262,4.262,0,0,0,4.189-3.474,1.4,1.4,0,0,0-1.381-1.658Zm-2.807,3.391h-.589A2.522,2.522,0,0,1,219,210.629h5.324A2.522,2.522,0,0,1,221.957,212.28Z" transform="translate(-191.959 -186.273)"/>
        <path id="Trazado_1045987" data-name="Trazado 1045987" d="M213.432,150.263v-2.2a.87.87,0,0,0-1.74,0v2.2a.87.87,0,0,0,1.74,0Z" transform="translate(-187.129 -131.739)"/>
        <path id="Trazado_1045988" data-name="Trazado 1045988" d="M286.178,147.2a.87.87,0,0,0-.87.87v2.2a.87.87,0,1,0,1.74,0v-2.2A.87.87,0,0,0,286.178,147.2Z" transform="translate(-252.204 -131.739)"/>
        <path id="Trazado_1045989" data-name="Trazado 1045989" d="M239.423,162.3a.87.87,0,0,0,1.3-1.156l-.732-.824.762-.952a.87.87,0,1,0-1.359-1.087l-1.22,1.525a.87.87,0,0,0,.029,1.122Z" transform="translate(-210.37 -141.251)"/>
        <path id="Trazado_1045990" data-name="Trazado 1045990" d="M57.615,309.014a.87.87,0,0,0-.8.52l-4,9.107a.87.87,0,1,0,1.593.7l.944-2.149h4.524l.944,2.149a.87.87,0,0,0,1.593-.7l-4-9.107a.87.87,0,0,0-.8-.52Zm1.5,6.438H56.118l1.5-3.406Z" transform="translate(-46.621 -274.78)"/>
        <path id="Trazado_1045991" data-name="Trazado 1045991" d="M373.1,308.1a3.455,3.455,0,0,0-.064-.724.87.87,0,0,0-.685-.685,3.439,3.439,0,0,0-2.37.385.87.87,0,0,0-1.74.016v1.115a3.521,3.521,0,0,0-1.91-.429,3.476,3.476,0,0,0-2.429,1.285,5.318,5.318,0,0,0-1.072,3.994c.291,2.624,2.2,4.66,4.305,4.66.064,0,.129,0,.193-.006h3.567c.065,0,.129.006.193.006,2.109,0,4.014-2.036,4.305-4.66a5.318,5.318,0,0,0-1.072-3.994A3.669,3.669,0,0,0,373.1,308.1Zm-2.62.763a.5.5,0,1,1-.46.844A1.695,1.695,0,0,1,370.475,308.862Zm3.184,4c-.191,1.72-1.354,3.112-2.572,3.112-.036,0-.073,0-.109,0l-.06,0H367.3l-.06,0c-1.259.086-2.484-1.337-2.681-3.108a3.631,3.631,0,0,1,.679-2.686,1.75,1.75,0,0,1,1.213-.665c.035,0,.071,0,.106,0a2.285,2.285,0,0,1,1.707.95c.011.092.024.183.042.275a.87.87,0,0,0,.685.685,3.439,3.439,0,0,0,3.615-1.6,2.093,2.093,0,0,1,.378.355A3.631,3.631,0,0,1,373.66,312.864Z" transform="translate(-320.693 -272.312)"/>
        <path id="Trazado_1045992" data-name="Trazado 1045992" d="M57.929,58.876V49.6a.87.87,0,1,0-1.74,0v9.151H54.536a2.207,2.207,0,0,0-2.2,2.2V63.9H40.64V43.361H56.189v2.177a.87.87,0,0,0,1.74,0V43.071a1.452,1.452,0,0,0-1.45-1.45H42.815V38.711a4.2,4.2,0,0,0,2.249-3.719V33.9a4.205,4.205,0,0,0-2.249-3.719v-5a9.8,9.8,0,0,0-9.5-9.786,7.505,7.505,0,0,0-4.41-1.415H26.382a9.8,9.8,0,0,0-9.79,9.79V30.18A4.2,4.2,0,0,0,14.343,33.9v1.094a4.2,4.2,0,0,0,2.249,3.719v2.909H15.2a.87.87,0,1,0,0,1.74h3.567V63.9H7.076V60.955a2.207,2.207,0,0,0-2.2-2.2H3.219V43.361h7.92a.87.87,0,1,0,0-1.74H2.929a1.452,1.452,0,0,0-1.45,1.45v15.8A2.206,2.206,0,0,0,0,60.955V65.09a2.207,2.207,0,0,0,2.2,2.2H4.872A2.206,2.206,0,0,0,7,65.644h6.4v3.045a1.452,1.452,0,0,0,1.45,1.45H34.925a.87.87,0,1,0,0-1.74H15.142V65.644h3.915a1.452,1.452,0,0,0,1.45-1.45V50.048a6.088,6.088,0,0,0,1.944.412v3.686A1.45,1.45,0,0,0,24.63,55.4l2.051-1.19,1.661,4.528a1.45,1.45,0,0,0,2.723,0l1.661-4.528,2.051,1.19a1.45,1.45,0,0,0,2.178-1.255V50.459a6.087,6.087,0,0,0,1.944-.412V64.194a1.452,1.452,0,0,0,1.45,1.45h3.915V68.4H38.986a.87.87,0,1,0,0,1.74h5.569a1.452,1.452,0,0,0,1.45-1.45V65.644h6.4a2.206,2.206,0,0,0,2.131,1.65H57.2a2.207,2.207,0,0,0,2.2-2.2V60.955a2.206,2.206,0,0,0-1.479-2.079ZM5.336,65.09a.464.464,0,0,1-.464.464H2.2a.464.464,0,0,1-.464-.464V60.955a.464.464,0,0,1,.464-.464H4.872a.464.464,0,0,1,.464.464V65.09Zm37.988-30.1a2.464,2.464,0,0,1-2.461,2.461H39.306a9.048,9.048,0,0,0,.135-1.559V31.438h1.421A2.464,2.464,0,0,1,43.324,33.9ZM18.333,23.765a8.059,8.059,0,0,1,8.05-8.05h2.527a5.787,5.787,0,0,1,3.582,1.228.87.87,0,0,0,.534.183,8.059,8.059,0,0,1,8.05,8.05V29.7q-.105-.005-.212-.005H39.442V28.08a4.226,4.226,0,0,0-1.693-3.373,3.322,3.322,0,0,0-3.951.006L30.779,26.9a1.624,1.624,0,0,1-.959.311H23.34A3.38,3.38,0,0,0,20.085,29.7h-1.54q-.107,0-.212.005V23.765ZM30.412,43.184H29a7.3,7.3,0,0,1-7.289-7.289v-5.31A1.636,1.636,0,0,1,23.34,28.95h6.48a3.355,3.355,0,0,0,1.979-.641l3.019-2.186a1.61,1.61,0,0,1,1.89-.02A2.446,2.446,0,0,1,37.7,28.08v7.815A7.3,7.3,0,0,1,30.412,43.184ZM32.2,44.747v2.766L29.7,50.176l-2.492-2.664V44.747A9.034,9.034,0,0,0,29,44.924h1.416A9.034,9.034,0,0,0,32.2,44.747ZM16.084,33.9a2.464,2.464,0,0,1,2.461-2.461h1.421v4.457a9.049,9.049,0,0,0,.135,1.559H18.545a2.464,2.464,0,0,1-2.461-2.461Zm7.007,10.627a1.448,1.448,0,0,0-.639,1.2v2.988a4.365,4.365,0,0,1-1.944-.6V43.071a1.452,1.452,0,0,0-1.45-1.45h-.724V39.188q.105.005.212.005h2.047a9.084,9.084,0,0,0,3.792,4.46Zm1.1,9.117v-7.76l1.279-.864v2.837a.871.871,0,0,0,.235.594l2.615,2.8ZM29.7,57.4,28.21,53.323l1.494-.867,1.494.867Zm5.511-3.753-4.129-2.4,2.615-2.8a.871.871,0,0,0,.235-.594V45.019l1.279.863ZM38.9,43.071V48.12a4.367,4.367,0,0,1-1.944.6V45.728a1.449,1.449,0,0,0-.639-1.2l-1.292-.872a9.085,9.085,0,0,0,3.792-4.46h2.047q.107,0,.212-.005v2.432H40.35A1.452,1.452,0,0,0,38.9,43.071ZM57.667,65.09a.464.464,0,0,1-.464.464H54.536a.464.464,0,0,1-.464-.464V60.955a.464.464,0,0,1,.464-.464H57.2a.464.464,0,0,1,.464.464Z" transform="translate(0 -13.975)"/>
      </g>
    </g>
  </g>
</svg>
