<svg xmlns="http://www.w3.org/2000/svg" width="400" height="143.946" viewBox="0 0 400 143.946">
  <g id="Grupo_1201647" data-name="Grupo 1201647" transform="translate(-1019.628 -1725.54)">
    <g id="Grupo_1177674" data-name="Grupo 1177674" transform="translate(-210.022 -2453)">
      <g id="Grupo_1177451" data-name="Grupo 1177451" transform="translate(1229.65 4191)">
        <rect id="Rect치ngulo_416021" data-name="Rect치ngulo 416021" width="400" height="91" transform="translate(0 18)" fill="#27454a"/>
        <rect id="Rect치ngulo_416022" data-name="Rect치ngulo 416022" width="340" height="127" transform="translate(30)" fill="#497f88"/>
      </g>
    </g>
    <g id="teacher_5190740_2_" data-name="teacher_5190740 (2)" transform="translate(1143.499 1711.565)">
      <path id="Trazado_1045961" data-name="Trazado 1045961" d="M189.838,353.784a1.487,1.487,0,0,1-1.487-1.487V312.308a13.441,13.441,0,0,1-7.933,2.578h-1.511v11.66a1.487,1.487,0,0,1-2.233,1.286L163.3,320.07a1.488,1.488,0,0,0-1.493,0l-13.376,7.762a1.487,1.487,0,0,1-2.233-1.286v-11.66h-1.511a13.441,13.441,0,0,1-7.933-2.578V352.3a1.487,1.487,0,0,1-1.487,1.487H123v10.035a1.487,1.487,0,0,0,1.487,1.487h76.129a1.487,1.487,0,0,0,1.487-1.487V353.784Z" transform="translate(-86.422 -209.615)" fill="#ffd15b"/>
      <path id="Trazado_1045962" data-name="Trazado 1045962" d="M134.9,461.815V451.78H123v10.035a1.487,1.487,0,0,0,1.487,1.487h11.9A1.487,1.487,0,0,1,134.9,461.815Z" transform="translate(-86.422 -307.611)" fill="#fdb441"/>
      <path id="Trazado_1045963" data-name="Trazado 1045963" d="M241.23,337.934a1.487,1.487,0,0,0-1.492,0l-5.821,3.377,5.171,14.1a1.487,1.487,0,0,0,2.792,0l5.171-14.1Z" transform="translate(-164.355 -227.479)" fill="#fff"/>
      <path id="Trazado_1045964" data-name="Trazado 1045964" d="M190.386,25.092a17.132,17.132,0,0,0-10.548-3.616h-6.477A22.861,22.861,0,0,0,150.5,44.337V92.33h4.087a1.487,1.487,0,0,1,1.487,1.487v14.147a13.442,13.442,0,0,0,7.933,2.578h1.511v-9.915a1.488,1.488,0,0,1,.655-1.233l6.516-4.4a20.855,20.855,0,0,0,7.37,1.34h3.63a20.863,20.863,0,0,0,7.37-1.34l6.516,4.4a1.488,1.488,0,0,1,.655,1.233v9.915h1.511a13.441,13.441,0,0,0,7.933-2.578V93.816a1.487,1.487,0,0,1,1.487-1.487h4.087V47.953a22.861,22.861,0,0,0-22.861-22.861Z" transform="translate(-105.744 -5.27)" fill="#fe7701"/>
      <g id="Grupo_1201624" data-name="Grupo 1201624" transform="translate(44.756 16.206)">
        <path id="Trazado_1045965" data-name="Trazado 1045965" d="M153.273,61.771h5.875c0,.014,0,.028,0,.043a6.418,6.418,0,0,1,5.777-6.386V44.337a22.863,22.863,0,0,1,18.612-22.46,17.225,17.225,0,0,0-3.7-.4h-6.477A22.861,22.861,0,0,0,150.5,44.337v17.9a8.525,8.525,0,0,1,2.773-.463Z" transform="translate(-150.5 -21.476)" fill="#f46700"/>
        <path id="Trazado_1045966" data-name="Trazado 1045966" d="M165.518,242.087a13.5,13.5,0,0,1-.595-3.972v-7.19a20.887,20.887,0,0,1-4.834-8.2h-6.816a8.523,8.523,0,0,1-2.773-.463v11.143h4.087a1.487,1.487,0,0,1,1.487,1.487v14.147a13.442,13.442,0,0,0,7.933,2.578h1.511Z" transform="translate(-150.5 -162.555)" fill="#f46700"/>
      </g>
      <path id="Trazado_1045967" data-name="Trazado 1045967" d="M233.057,273.1l-6.516-4.4a20.855,20.855,0,0,1-7.37,1.34h-3.63a20.863,20.863,0,0,1-7.37-1.34l-6.516,4.4a1.487,1.487,0,0,0-.655,1.233v21.575a1.487,1.487,0,0,0,2.233,1.286l13.376-7.762a1.487,1.487,0,0,1,1.493,0l13.376,7.762a1.487,1.487,0,0,0,2.233-1.286V274.333A1.486,1.486,0,0,0,233.057,273.1Z" transform="translate(-141.227 -178.977)" fill="#eaf6ff"/>
      <path id="Trazado_1045968" data-name="Trazado 1045968" d="M208.171,268.7l-6.516,4.4a1.487,1.487,0,0,0-.655,1.233v21.575a1.487,1.487,0,0,0,2.233,1.286l5.2-3.018V274.332a1.487,1.487,0,0,1,.655-1.233l4.652-3.139A20.792,20.792,0,0,1,208.171,268.7Z" transform="translate(-141.227 -178.977)" fill="#d8ecfe"/>
      <path id="Trazado_1045969" data-name="Trazado 1045969" d="M237.458,270.521h-3.63a20.874,20.874,0,0,1-6.8-1.137v10.882l8.616,9.212,8.616-9.212V269.384A20.873,20.873,0,0,1,237.458,270.521Z" transform="translate(-159.514 -179.456)" fill="#fed2a4"/>
      <path id="Trazado_1045970" data-name="Trazado 1045970" d="M234.47,270.521h-.641a20.874,20.874,0,0,1-6.8-1.137v10.882l8.616,9.212,4.846-5.181-6.02-6.436Z" transform="translate(-159.514 -179.456)" fill="#ffbd86"/>
      <g id="Grupo_1201625" data-name="Grupo 1201625" transform="translate(38.991 56.5)">
        <path id="Trazado_1045971" data-name="Trazado 1045971" d="M145.526,170.628v-13.61c0-.014,0-.028,0-.043h-5.875a8.538,8.538,0,0,0-8.538,8.538v2.8a8.538,8.538,0,0,0,8.538,8.538h6.816A20.894,20.894,0,0,1,145.526,170.628Z" transform="translate(-131.115 -156.975)" fill="#ffe5c2"/>
        <path id="Trazado_1045972" data-name="Trazado 1045972" d="M336.071,156.976H330.2v13.653a20.9,20.9,0,0,1-.943,6.226h6.816a8.538,8.538,0,0,0,8.538-8.538v-2.8A8.538,8.538,0,0,0,336.071,156.976Z" transform="translate(-270.332 -156.976)" fill="#ffe5c2"/>
      </g>
      <g id="Grupo_1201626" data-name="Grupo 1201626" transform="translate(53.402 42.062)">
        <path id="Trazado_1045973" data-name="Trazado 1045973" d="M214.1,109.664a6.338,6.338,0,0,1,7.484-.033,8.535,8.535,0,0,1,3.442,6.856v20.029a20.912,20.912,0,0,1-20.912,20.912h-3.63a20.912,20.912,0,0,1-20.912-20.912V122.9A6.418,6.418,0,0,1,186,116.487H202.6a6.417,6.417,0,0,0,3.764-1.22Z" transform="translate(-179.577 -108.425)" fill="#ffe5c2"/>
      </g>
      <g id="Grupo_1201628" data-name="Grupo 1201628" transform="translate(53.402 50.125)">
        <g id="Grupo_1201627" data-name="Grupo 1201627">
          <path id="Trazado_1045974" data-name="Trazado 1045974" d="M189.56,155.564v-13.61a6.418,6.418,0,0,1,6.418-6.418h-9.985a6.418,6.418,0,0,0-6.418,6.418v13.61a20.912,20.912,0,0,0,20.912,20.912h3.63a21.086,21.086,0,0,0,3.178-.24A20.917,20.917,0,0,1,189.56,155.564Z" transform="translate(-179.576 -135.536)" fill="#fed2a4"/>
        </g>
      </g>
      <path id="Trazado_1045975" data-name="Trazado 1045975" d="M226.028,216.388A1.367,1.367,0,0,0,224.679,218a8.7,8.7,0,0,0,8.543,7.083h1.509A8.7,8.7,0,0,0,243.275,218a1.367,1.367,0,0,0-1.349-1.609Z" transform="translate(-157.848 -142.219)" fill="#fff"/>
      <g id="Grupo_1201632" data-name="Grupo 1201632" transform="translate(2.23 87.059)">
        <g id="Grupo_1201629" data-name="Grupo 1201629" transform="translate(3.79)">
          <path id="Trazado_1045976" data-name="Trazado 1045976" d="M63.066,259.736H21.73a1.487,1.487,0,0,0-1.487,1.487v42.416H26.71a3.419,3.419,0,0,1,3.419,3.419v9.788H63.065a1.487,1.487,0,0,0,1.487-1.487V261.223a1.486,1.486,0,0,0-1.487-1.487Z" transform="translate(-20.243 -259.736)" fill="#d8ecfe"/>
          <path id="Trazado_1045977" data-name="Trazado 1045977" d="M32.363,315.359V261.223a1.487,1.487,0,0,1,1.487-1.487H21.73a1.487,1.487,0,0,0-1.487,1.487v42.416H26.71a3.419,3.419,0,0,1,3.419,3.419v9.788H33.85A1.487,1.487,0,0,1,32.363,315.359Z" transform="translate(-20.243 -259.736)" fill="#c4e2ff"/>
        </g>
        <g id="Grupo_1201630" data-name="Grupo 1201630" transform="translate(0 43.903)">
          <path id="Trazado_1045978" data-name="Trazado 1045978" d="M17.756,424.805H10.919A3.419,3.419,0,0,1,7.5,421.387v-10.6a3.419,3.419,0,0,1,3.419-3.419h6.838a3.419,3.419,0,0,1,3.419,3.419v10.6A3.419,3.419,0,0,1,17.756,424.805Z" transform="translate(-7.5 -407.37)" fill="#ffe5c2"/>
        </g>
        <g id="Grupo_1201631" data-name="Grupo 1201631" transform="translate(0 43.903)">
          <path id="Trazado_1045979" data-name="Trazado 1045979" d="M14.488,421.387v-10.6a3.417,3.417,0,0,1,3.343-3.415c-.025,0-.05,0-.076,0H10.919A3.419,3.419,0,0,0,7.5,410.789v10.6a3.419,3.419,0,0,0,3.419,3.419h6.838c.026,0,.05,0,.076,0A3.417,3.417,0,0,1,14.488,421.387Z" transform="translate(-7.5 -407.37)" fill="#fed2a4"/>
        </g>
      </g>
      <g id="Grupo_1201641" data-name="Grupo 1201641" transform="translate(101.929 87.059)">
        <g id="Grupo_1201638" data-name="Grupo 1201638">
          <path id="Trazado_1045980" data-name="Trazado 1045980" d="M377.181,307.058a3.419,3.419,0,0,1,3.419-3.419h6.467V261.223a1.487,1.487,0,0,0-1.487-1.487H344.244a1.487,1.487,0,0,0-1.487,1.487v54.136a1.487,1.487,0,0,0,1.487,1.487h32.937v-9.788Z" transform="translate(-342.757 -259.736)" fill="#0593fc"/>
          <g id="Grupo_1201633" data-name="Grupo 1201633">
            <path id="Trazado_1045981" data-name="Trazado 1045981" d="M355.914,315.359V261.223a1.487,1.487,0,0,1,1.487-1.487H344.244a1.487,1.487,0,0,0-1.487,1.487v54.136a1.487,1.487,0,0,0,1.487,1.487H357.4A1.487,1.487,0,0,1,355.914,315.359Z" transform="translate(-342.757 -259.736)" fill="#0182fc"/>
          </g>
          <g id="Grupo_1201637" data-name="Grupo 1201637" transform="translate(8.188 15.149)">
            <path id="Trazado_1045982" data-name="Trazado 1045982" d="M392.04,327.186A6.579,6.579,0,0,1,384.383,332a6.568,6.568,0,0,1-.122-1.108l0,.006c-1.758-2.486-4.307-4-6.971-3.818-4.46.308-7.555,5.259-6.911,11.06s4.781,10.253,9.241,9.945H388.9c4.46.308,8.6-4.145,9.241-9.945C398.743,332.695,396.057,328,392.04,327.186Z" transform="translate(-370.289 -322.19)" fill="#fb2b3a"/>
            <g id="Grupo_1201635" data-name="Grupo 1201635" transform="translate(0 4.872)">
              <g id="Grupo_1201634" data-name="Grupo 1201634">
                <path id="Trazado_1045983" data-name="Trazado 1045983" d="M380.418,338.135a11.293,11.293,0,0,1,2.475-8.822,7.436,7.436,0,0,0-5.608-2.237c-4.46.308-7.555,5.259-6.911,11.06s4.781,10.253,9.241,9.945H388.8C384.678,347.806,381.019,343.56,380.418,338.135Z" transform="translate(-370.289 -327.061)" fill="#e41f2d"/>
              </g>
            </g>
            <g id="Grupo_1201636" data-name="Grupo 1201636" transform="translate(12.001 0)">
              <ellipse id="Elipse_12503" data-name="Elipse 12503" cx="5.475" cy="2.927" rx="5.475" ry="2.927" transform="translate(0 7.741) rotate(-45)" fill="#97d729"/>
            </g>
          </g>
        </g>
        <g id="Grupo_1201639" data-name="Grupo 1201639" transform="translate(34.424 43.903)">
          <path id="Trazado_1045984" data-name="Trazado 1045984" d="M468.771,424.805h-6.838a3.419,3.419,0,0,1-3.419-3.419v-10.6a3.419,3.419,0,0,1,3.419-3.419h6.838a3.419,3.419,0,0,1,3.419,3.419v10.6A3.419,3.419,0,0,1,468.771,424.805Z" transform="translate(-458.515 -407.37)" fill="#ffe5c2"/>
        </g>
        <g id="Grupo_1201640" data-name="Grupo 1201640" transform="translate(34.424 43.903)">
          <path id="Trazado_1045985" data-name="Trazado 1045985" d="M465.5,421.387v-10.6a3.417,3.417,0,0,1,3.344-3.415c-.025,0-.05,0-.076,0h-6.838a3.419,3.419,0,0,0-3.419,3.419v10.6a3.419,3.419,0,0,0,3.419,3.419h6.838c.026,0,.05,0,.076,0A3.417,3.417,0,0,1,465.5,421.387Z" transform="translate(-458.515 -407.37)" fill="#fed2a4"/>
        </g>
      </g>
      <g id="Grupo_1201642" data-name="Grupo 1201642" transform="translate(0 13.975)">
        <path id="Trazado_1045986" data-name="Trazado 1045986" d="M236.656,208.889h-15.9a3.6,3.6,0,0,0-3.541,4.249,10.922,10.922,0,0,0,10.736,8.9h1.509a10.922,10.922,0,0,0,10.736-8.9,3.6,3.6,0,0,0-3.541-4.249Zm-7.195,8.692h-1.509a6.464,6.464,0,0,1-6.068-4.231H235.53A6.465,6.465,0,0,1,229.462,217.581Z" transform="translate(-152.578 -150.926)"/>
        <path id="Trazado_1045987" data-name="Trazado 1045987" d="M216.153,155.055v-5.628a2.23,2.23,0,0,0-4.461,0v5.628a2.23,2.23,0,0,0,4.461,0Z" transform="translate(-148.739 -107.58)"/>
        <path id="Trazado_1045988" data-name="Trazado 1045988" d="M287.538,147.2a2.23,2.23,0,0,0-2.23,2.23v5.628a2.23,2.23,0,0,0,4.461,0v-5.628A2.23,2.23,0,0,0,287.538,147.2Z" transform="translate(-200.463 -107.58)"/>
        <path id="Trazado_1045989" data-name="Trazado 1045989" d="M241.674,169.1a2.23,2.23,0,0,0,3.334-2.963l-1.877-2.113,1.952-2.44a2.23,2.23,0,1,0-3.483-2.787l-3.128,3.909a2.23,2.23,0,0,0,.075,2.875Z" transform="translate(-167.212 -115.14)"/>
        <path id="Trazado_1045990" data-name="Trazado 1045990" d="M65.232,309.014a2.231,2.231,0,0,0-2.042,1.333L52.93,333.688a2.23,2.23,0,1,0,4.084,1.795l2.421-5.507H71.029l2.421,5.507a2.23,2.23,0,0,0,4.084-1.795l-10.26-23.341a2.231,2.231,0,0,0-2.042-1.333Zm3.836,16.5H61.4l3.836-8.728Z" transform="translate(-37.057 -221.275)"/>
        <path id="Trazado_1045991" data-name="Trazado 1045991" d="M389.206,311.034a8.848,8.848,0,0,0-.164-1.856,2.23,2.23,0,0,0-1.755-1.755,8.813,8.813,0,0,0-6.073.986,2.229,2.229,0,0,0-4.459.042v2.858a9.024,9.024,0,0,0-4.895-1.1,8.909,8.909,0,0,0-6.226,3.294,13.631,13.631,0,0,0-2.749,10.237c.746,6.725,5.629,11.945,11.034,11.944.164,0,.33,0,.495-.015h9.141c.166.01.33.015.495.015,5.4,0,10.288-5.219,11.034-11.944a13.629,13.629,0,0,0-2.749-10.236A9.4,9.4,0,0,0,389.206,311.034Zm-6.715,1.956a4.344,4.344,0,0,1,2.162-1.178,4.356,4.356,0,0,1-3.34,3.34A4.35,4.35,0,0,1,382.491,312.991Zm8.161,10.257c-.489,4.409-3.469,7.976-6.591,7.975-.093,0-.187,0-.28-.01q-.077-.005-.154-.005h-9.283c-.051,0-.1,0-.153.005-3.228.22-6.367-3.426-6.871-7.966a9.306,9.306,0,0,1,1.739-6.885,4.485,4.485,0,0,1,3.109-1.7c.091-.006.181-.009.273-.009a5.856,5.856,0,0,1,4.376,2.434c.027.235.06.47.107.7a2.23,2.23,0,0,0,1.755,1.755,8.814,8.814,0,0,0,9.264-4.091,5.367,5.367,0,0,1,.97.911A9.307,9.307,0,0,1,390.652,323.247Z" transform="translate(-254.902 -219.313)"/>
        <path id="Trazado_1045992" data-name="Trazado 1045992" d="M148.469,129.053V105.278a2.23,2.23,0,1,0-4.461,0v23.454h-4.236a5.655,5.655,0,0,0-5.649,5.649v7.558H104.159V89.289h39.849v5.58a2.23,2.23,0,0,0,4.461,0V88.546a3.721,3.721,0,0,0-3.717-3.717H109.733V77.372a10.776,10.776,0,0,0,5.765-9.531v-2.8a10.777,10.777,0,0,0-5.765-9.531V42.683A25.121,25.121,0,0,0,85.4,17.6a19.236,19.236,0,0,0-11.3-3.627H67.617A25.12,25.12,0,0,0,42.525,39.067V55.508a10.777,10.777,0,0,0-5.765,9.531v2.8a10.777,10.777,0,0,0,5.765,9.531v7.457H38.957a2.23,2.23,0,0,0,0,4.461H48.1v52.649H18.136v-7.558a5.655,5.655,0,0,0-5.649-5.649H8.25V89.289h20.3a2.23,2.23,0,1,0,0-4.461H7.507a3.721,3.721,0,0,0-3.717,3.717v40.507A5.654,5.654,0,0,0,0,134.381v10.6a5.655,5.655,0,0,0,5.649,5.649h6.838a5.654,5.654,0,0,0,5.461-4.229h16.4v7.8a3.721,3.721,0,0,0,3.717,3.717H89.511a2.23,2.23,0,1,0,0-4.461h-50.7V146.4H48.842a3.721,3.721,0,0,0,3.717-3.717V106.428a15.6,15.6,0,0,0,4.983,1.055v9.448a3.717,3.717,0,0,0,5.583,3.215l5.258-3.051,4.256,11.6a3.717,3.717,0,0,0,6.98,0l4.256-11.6,5.258,3.051a3.717,3.717,0,0,0,5.583-3.215v-9.448a15.6,15.6,0,0,0,4.983-1.055v36.255a3.721,3.721,0,0,0,3.717,3.717H113.45v7.061H99.919a2.23,2.23,0,0,0,0,4.461h14.274a3.721,3.721,0,0,0,3.717-3.717v-7.8h16.4a5.654,5.654,0,0,0,5.461,4.229h6.838a5.655,5.655,0,0,0,5.649-5.649v-10.6a5.654,5.654,0,0,0-3.789-5.328ZM13.675,144.979a1.19,1.19,0,0,1-1.189,1.188H5.649a1.19,1.19,0,0,1-1.188-1.188v-10.6a1.19,1.19,0,0,1,1.188-1.188h6.838a1.19,1.19,0,0,1,1.189,1.188v10.6Zm97.362-77.138a6.315,6.315,0,0,1-6.307,6.307h-3.99a23.19,23.19,0,0,0,.347-4V58.731h3.643a6.315,6.315,0,0,1,6.307,6.308ZM46.986,39.067A20.654,20.654,0,0,1,67.617,18.436h6.477a14.832,14.832,0,0,1,9.18,3.147,2.23,2.23,0,0,0,1.369.469,20.654,20.654,0,0,1,20.631,20.631v11.6q-.27-.013-.543-.014h-3.643V50.125a10.831,10.831,0,0,0-4.34-8.644,8.514,8.514,0,0,0-10.126.014l-7.737,5.6a4.163,4.163,0,0,1-2.457.8H59.82a8.663,8.663,0,0,0-8.343,6.376H47.529q-.273,0-.543.014V39.067ZM77.944,88.835h-3.63A18.7,18.7,0,0,1,55.632,70.154V56.543a4.193,4.193,0,0,1,4.188-4.188H76.428A8.6,8.6,0,0,0,81.5,50.711l7.737-5.6a4.126,4.126,0,0,1,4.843-.051,6.269,6.269,0,0,1,2.546,5.068V70.154A18.7,18.7,0,0,1,77.944,88.835Zm4.571,4.005V99.93l-6.386,6.827L69.743,99.93V92.841a23.154,23.154,0,0,0,4.571.455h3.63A23.154,23.154,0,0,0,82.515,92.841Zm-41.293-27.8a6.315,6.315,0,0,1,6.307-6.308h3.643V70.154a23.191,23.191,0,0,0,.347,4h-3.99a6.315,6.315,0,0,1-6.307-6.307ZM59.181,92.274a3.712,3.712,0,0,0-1.638,3.081v7.659a11.188,11.188,0,0,1-4.983-1.529V88.546a3.721,3.721,0,0,0-3.717-3.717H46.986V78.6q.27.013.543.014h5.246a23.282,23.282,0,0,0,9.719,11.429ZM62,115.64V95.751l3.279-2.213v7.272a2.231,2.231,0,0,0,.6,1.523l6.7,7.165Zm14.126,9.62L72.3,114.822l3.828-2.221,3.828,2.221Zm14.126-9.62L79.672,109.5l6.7-7.165a2.231,2.231,0,0,0,.6-1.523V93.538l3.279,2.213ZM99.7,88.546v12.94a11.192,11.192,0,0,1-4.983,1.529V95.356a3.713,3.713,0,0,0-1.638-3.081l-3.312-2.235A23.284,23.284,0,0,0,99.483,78.61h5.246q.273,0,.543-.014v6.233h-1.857A3.721,3.721,0,0,0,99.7,88.546Zm48.1,56.433a1.19,1.19,0,0,1-1.188,1.188h-6.838a1.19,1.19,0,0,1-1.189-1.188v-10.6a1.19,1.19,0,0,1,1.189-1.188h6.838a1.19,1.19,0,0,1,1.188,1.188Z" transform="translate(0 -13.975)"/>
      </g>
    </g>
  </g>
</svg>
