<svg xmlns="http://www.w3.org/2000/svg" xmlns:xlink="http://www.w3.org/1999/xlink" width="113" height="113" viewBox="0 0 113 113">
  <defs>
    <filter id="Trazado_982547" x="0" y="0" width="113" height="113" filterUnits="userSpaceOnUse">
      <feOffset dy="3" input="SourceAlpha"/>
      <feGaussianBlur stdDeviation="3" result="blur"/>
      <feFlood flood-opacity="0.161"/>
      <feComposite operator="in" in2="blur"/>
      <feComposite in="SourceGraphic"/>
    </filter>
  </defs>
  <g id="Grupo_1177682" data-name="Grupo 1177682" transform="translate(-5286.49 -1920.273)">
    <g id="Grupo_1176928" data-name="Grupo 1176928" transform="translate(5295.49 1926.273)">
      <g id="Grupo_1172322" data-name="Grupo 1172322" transform="translate(0 0)">
        <g id="Grupo_1164700" data-name="Grupo 1164700">
          <g id="Grupo_1160931" data-name="Grupo 1160931">
            <g id="Grupo_1160749" data-name="Grupo 1160749">
              <g id="Grupo_1158891" data-name="Grupo 1158891">
                <g id="Grupo_1157406" data-name="Grupo 1157406">
                  <g id="Grupo_1155793" data-name="Grupo 1155793">
                    <g id="Grupo_1154704" data-name="Grupo 1154704">
                      <g id="Grupo_1150790" data-name="Grupo 1150790">
                        <g id="Grupo_1154214" data-name="Grupo 1154214">
                          <g id="Grupo_1152583" data-name="Grupo 1152583">
                            <g id="Grupo_1146973" data-name="Grupo 1146973">
                              <g id="Grupo_1146954" data-name="Grupo 1146954">
                                <g transform="matrix(1, 0, 0, 1, -9, -6)" filter="url(#Trazado_982547)">
                                  <g id="Trazado_982547-2" data-name="Trazado 982547" transform="translate(9 6)" fill="#f2f7e5">
                                    <path d="M 47.5000114440918 93.49987030029297 C 41.28938293457031 93.49987030029297 35.26534652709961 92.28384399414062 29.5951976776123 89.88558959960938 C 24.11773109436035 87.56881713867188 19.19814491271973 84.25183868408203 14.97310447692871 80.02680206298828 C 10.74805164337158 75.80176544189453 7.43107795715332 70.88218688964844 5.114304542541504 65.40472412109375 C 2.716038227081299 59.73458862304688 1.500011444091797 53.71054840087891 1.500011444091797 47.49993515014648 C 1.500011444091797 41.28932189941406 2.716038227081299 35.26528167724609 5.114304542541504 29.59514808654785 C 7.43107795715332 24.1176815032959 10.74805164337158 19.1981086730957 14.97310447692871 14.97306823730469 C 19.19814491271973 10.74802875518799 24.11773109436035 7.431055068969727 29.5951976776123 5.11428165435791 C 35.26534652709961 2.716028451919556 41.28938293457031 1.500001788139343 47.5000114440918 1.500001788139343 C 53.71063995361328 1.500001788139343 59.73467636108398 2.716028451919556 65.40482330322266 5.11428165435791 C 70.88229370117188 7.431055068969727 75.8018798828125 10.74802875518799 80.02691650390625 14.97306823730469 C 84.25196838378906 19.1981086730957 87.56894683837891 24.1176815032959 89.88571929931641 29.59514808654785 C 92.28398132324219 35.26528167724609 93.50001525878906 41.28932189941406 93.50001525878906 47.49993515014648 C 93.50001525878906 53.71054840087891 92.28398132324219 59.73458862304688 89.88571929931641 65.40472412109375 C 87.56894683837891 70.88218688964844 84.25196838378906 75.80176544189453 80.02691650390625 80.02680206298828 C 75.8018798828125 84.25183868408203 70.88229370117188 87.56881713867188 65.40482330322266 89.88558959960938 C 59.73467636108398 92.28384399414062 53.71063995361328 93.49987030029297 47.5000114440918 93.49987030029297 Z" stroke="none"/>
                                    <path d="M 47.5000114440918 3 C 41.49122619628906 3 35.66378021240234 4.1761474609375 30.17951965332031 6.495796203613281 C 24.880859375 8.7369384765625 20.12153625488281 11.94596862792969 16.03376770019531 16.03373718261719 C 11.94598388671875 20.12149047851562 8.736968994140625 24.88081359863281 6.495811462402344 30.17947387695312 C 4.176162719726562 35.66371917724609 3.000007629394531 41.49116516113281 3.000007629394531 47.49993515014648 C 3.000007629394531 53.50870513916016 4.176162719726562 59.33615112304688 6.495811462402344 64.82039642333984 C 8.736968994140625 70.11905670166016 11.94598388671875 74.87837982177734 16.03376770019531 78.96613311767578 C 20.12153625488281 83.05390167236328 24.880859375 86.26293182373047 30.17951965332031 88.50407409667969 C 35.66378021240234 90.82372283935547 41.49122619628906 91.99987030029297 47.5000114440918 91.99987030029297 C 53.50879669189453 91.99987030029297 59.33624267578125 90.82372283935547 64.82050323486328 88.50407409667969 C 70.11916351318359 86.26293182373047 74.87848663330078 83.05390167236328 78.96625518798828 78.96613311767578 C 83.05403900146484 74.87837982177734 86.2630615234375 70.11905670166016 88.50421142578125 64.82039642333984 C 90.82386016845703 59.33615112304688 92.00001525878906 53.50870513916016 92.00001525878906 47.49993515014648 C 92.00001525878906 41.49116516113281 90.82386016845703 35.66371917724609 88.50421142578125 30.17947387695312 C 86.2630615234375 24.88081359863281 83.05403900146484 20.12149047851562 78.96625518798828 16.03373718261719 C 74.87848663330078 11.94596862792969 70.11916351318359 8.7369384765625 64.82050323486328 6.495796203613281 C 59.33624267578125 4.1761474609375 53.50879669189453 3 47.5000114440918 3 M 47.5000114440918 0 C 73.73353576660156 0 95.00001525878906 21.26644134521484 95.00001525878906 47.49993515014648 C 95.00001525878906 73.73342895507812 73.73353576660156 94.99987030029297 47.5000114440918 94.99987030029297 C 21.26648712158203 94.99987030029297 7.62939453125e-06 73.73342895507812 7.62939453125e-06 47.49993515014648 C 7.62939453125e-06 21.26644134521484 21.26648712158203 0 47.5000114440918 0 Z" stroke="none" fill="#86b60c"/>
                                  </g>
                                </g>
                              </g>
                            </g>
                          </g>
                        </g>
                      </g>
                    </g>
                  </g>
                </g>
              </g>
            </g>
          </g>
        </g>
      </g>
    </g>
    <g id="learning_3212167" transform="translate(5309.938 1941.772)">
      <g id="Grupo_1201586" data-name="Grupo 1201586">
        <g id="Grupo_1201572" data-name="Grupo 1201572">
          <path id="Trazado_1045850" data-name="Trazado 1045850" d="M47.4,48,47,52H36a4,4,0,1,1-8,0H23.33L23,50a9.055,9.055,0,0,0,.73-2h3.44A6.835,6.835,0,0,0,32,46a6.835,6.835,0,0,0,4.83,2Z" fill="#cf9e76"/>
        </g>
        <g id="Grupo_1201573" data-name="Grupo 1201573">
          <path id="Trazado_1045851" data-name="Trazado 1045851" d="M8,25.24V26h2V46a2.006,2.006,0,0,0,2,2h2.27A9.055,9.055,0,0,0,15,50l-.33,2H11a5,5,0,0,1-5-5V24.83l.29-.29A1,1,0,0,1,8,25.24Z" fill="#cf9e76"/>
        </g>
        <g id="Grupo_1201574" data-name="Grupo 1201574">
          <path id="Trazado_1045852" data-name="Trazado 1045852" d="M49,28A12.979,12.979,0,0,1,36.05,16H32l-2,4H22v8H14V24.83l-.29-.29a1,1,0,0,0-1.71.7V26H10V46a2.006,2.006,0,0,0,2,2H27.17A6.835,6.835,0,0,0,32,46a6.835,6.835,0,0,0,4.83,2H47.4l.6-6a6.835,6.835,0,0,1-2-4.83V30a1,1,0,0,1,1-1,3,3,0,0,1,3,3V27.96c-.33.03-.66.04-1,.04Z" fill="#ffeaa7"/>
        </g>
        <g id="Grupo_1201575" data-name="Grupo 1201575">
          <circle id="Elipse_12493" data-name="Elipse 12493" cx="13" cy="13" r="13" transform="translate(36 2)" fill="#ccd1d9"/>
        </g>
        <g id="Grupo_1201576" data-name="Grupo 1201576">
          <path id="Trazado_1045853" data-name="Trazado 1045853" d="M40.06,16A8.262,8.262,0,0,1,40,15a9,9,0,1,1,13.57,7.76,1.288,1.288,0,0,0-.16-.17A1.955,1.955,0,0,0,52,22a2.007,2.007,0,0,0-2,1.94A8.262,8.262,0,0,1,49,24,8.993,8.993,0,0,1,40.06,16Z" fill="#e6e9ed"/>
        </g>
        <g id="Grupo_1201577" data-name="Grupo 1201577">
          <path id="Trazado_1045854" data-name="Trazado 1045854" d="M44.1,16a4.712,4.712,0,0,1-.1-1,4.994,4.994,0,1,1,.1,1Z" fill="#ff826e"/>
        </g>
        <g id="Grupo_1201578" data-name="Grupo 1201578">
          <path id="Trazado_1045855" data-name="Trazado 1045855" d="M30,12H22l2,4-1,2-1,2h8l2-4Z" fill="#cf9e76"/>
        </g>
        <g id="Grupo_1201579" data-name="Grupo 1201579">
          <path id="Trazado_1045856" data-name="Trazado 1045856" d="M23,18l-1,2v8H14V24.83l.24.24,2.83-2.83-.53-.53a1,1,0,0,1,.7-1.71H18V18Z" fill="#ff826e"/>
        </g>
        <g id="Grupo_1201580" data-name="Grupo 1201580">
          <path id="Trazado_1045857" data-name="Trazado 1045857" d="M36,32h6V42H36Z" fill="#e6e9ed"/>
        </g>
        <g id="Grupo_1201581" data-name="Grupo 1201581">
          <path id="Trazado_1045858" data-name="Trazado 1045858" d="M60,42l2,20H46l1-10,.4-4,.6-6Z" fill="#b4dd7f"/>
        </g>
        <g id="Grupo_1201582" data-name="Grupo 1201582">
          <path id="Trazado_1045859" data-name="Trazado 1045859" d="M23.33,52,25,62H13l1.67-10L15,50h8Z" fill="#b4dd7f"/>
        </g>
        <g id="Grupo_1201583" data-name="Grupo 1201583">
          <path id="Trazado_1045860" data-name="Trazado 1045860" d="M58,30a2.006,2.006,0,0,1,2-2,2.015,2.015,0,0,1,2,2v7.17A6.835,6.835,0,0,1,60,42H48a6.835,6.835,0,0,1-2-4.83V30a1,1,0,0,1,1-1,3,3,0,0,1,3,3V23.94A2.007,2.007,0,0,1,52,22a1.955,1.955,0,0,1,1.41.59,1.288,1.288,0,0,1,.16.17A1.984,1.984,0,0,1,54,24v6a2.006,2.006,0,0,1,2-2,2.015,2.015,0,0,1,2,2Z" fill="#f0d0b4"/>
        </g>
        <g id="Grupo_1201584" data-name="Grupo 1201584">
          <path id="Trazado_1045861" data-name="Trazado 1045861" d="M20,44a2.015,2.015,0,0,1,2-2,2.006,2.006,0,0,1,2,2v1.76A9.342,9.342,0,0,1,23.73,48,9.055,9.055,0,0,1,23,50H15a9.055,9.055,0,0,1-.73-2A9.342,9.342,0,0,1,14,45.76V41a3,3,0,0,1,6,0Z" fill="#f0d0b4"/>
        </g>
        <g id="Grupo_1201585" data-name="Grupo 1201585">
          <path id="Trazado_1045862" data-name="Trazado 1045862" d="M12,25.24V26H8v-.76a1,1,0,0,0-1.71-.7L6,24.83l-.24.24L2.93,22.24l.53-.53A1,1,0,0,0,2.76,20H2V16h.76a1,1,0,0,0,.7-1.71l-.53-.53,2.83-2.83.53.53A1,1,0,0,0,8,10.76V10h4v.76a1,1,0,0,0,1.71.7l.53-.53,2.83,2.83-.53.53a1,1,0,0,0,.7,1.71H18v4h-.76a1,1,0,0,0-.7,1.71l.53.53-2.83,2.83L14,24.83l-.29-.29A1,1,0,0,0,12,25.24ZM10,22a4,4,0,1,0-4-4A4,4,0,0,0,10,22Z" fill="#fcd770"/>
        </g>
      </g>
      <g id="Grupo_1201587" data-name="Grupo 1201587">
        <path id="Trazado_1045863" data-name="Trazado 1045863" d="M10,23a5,5,0,1,0-5-5A5.006,5.006,0,0,0,10,23Zm0-8a3,3,0,1,1-3,3A3,3,0,0,1,10,15Z"/>
        <path id="Trazado_1045864" data-name="Trazado 1045864" d="M25,23h4v2H25Z"/>
        <path id="Trazado_1045865" data-name="Trazado 1045865" d="M25,27h4v2H25Z"/>
        <path id="Trazado_1045866" data-name="Trazado 1045866" d="M13,31H29v2H13Z"/>
        <path id="Trazado_1045867" data-name="Trazado 1045867" d="M21,35h8v2H21Z"/>
        <path id="Trazado_1045868" data-name="Trazado 1045868" d="M43,43V31H35V43ZM37,33h4v8H37Z"/>
        <path id="Trazado_1045869" data-name="Trazado 1045869" d="M35,27h6v2H35Z"/>
        <path id="Trazado_1045870" data-name="Trazado 1045870" d="M9,61v2H63.1L61.039,42.341A7.761,7.761,0,0,0,63,37.172V30a2.987,2.987,0,0,0-5-2.22,2.973,2.973,0,0,0-1.817-.762A14,14,0,1,0,35,15H32.618l-2-4H20.382l2.5,5-.5,1H19V15H17.242l1.244-1.242L14.242,9.514,13,10.757V9H7v1.758L5.758,9.514,1.514,13.758,2.757,15H1v6H2.758L1.514,22.242,5,25.728V47a6.006,6.006,0,0,0,6,6h2.486l-1.333,8Zm2-34h2v2H23V21h7.618L31,20.236v25.33A5.783,5.783,0,0,1,27.171,47H24.924A10.214,10.214,0,0,0,25,45.764V44a3,3,0,0,0-4-2.829V41a4,4,0,0,0-8,0v4.764A10.214,10.214,0,0,0,13.076,47H12a1,1,0,0,1-1-1ZM24.618,17h1.764l-1,2H23.618ZM46.1,51H35v1a3,3,0,0,1-6,0V51H24.18l-.146-.878A10.461,10.461,0,0,0,24.471,49h2.7A7.771,7.771,0,0,0,32,47.327,7.767,7.767,0,0,0,36.829,49h9.466ZM30.382,17l-1,2H27.618l1-2ZM15.643,49A8.517,8.517,0,0,1,15,45.764V41a2,2,0,0,1,4,0v4h2V44a1,1,0,0,1,2,0v1.764A8.517,8.517,0,0,1,22.357,49ZM27.1,53a5,5,0,0,0,9.8,0h8.995l-.8,8H25.847l-1.333-8Zm20,8,1.8-18h10.19l1.8,18ZM57,30v5h2V30a1,1,0,0,1,2,0v7.172A5.781,5.781,0,0,1,59.567,41H48.433A5.783,5.783,0,0,1,47,37.172V30a2,2,0,0,1,2,2v3h2V24a1,1,0,1,1,2,0V35h2V30a1,1,0,1,1,2,0ZM45,15a4.048,4.048,0,1,1,.556,2H49V15Zm4,6a6,6,0,1,0-6-6H41a8,8,0,1,1,12.644,6.5,2.98,2.98,0,0,0-4.457,1.494c-.063,0-.124.01-.187.01a8.008,8.008,0,0,1-7.737-6H43.35A6,6,0,0,0,49,21Zm0,4v2A12.009,12.009,0,0,1,37.181,17H39.2A10.016,10.016,0,0,0,49,25ZM49,3a12,12,0,0,1,6,22.389V24a2.965,2.965,0,0,0-.155-.907A9.993,9.993,0,1,0,39,15H37A12.013,12.013,0,0,1,49,3ZM35.16,17a13.905,13.905,0,0,0,2.368,6H35v2h4.221a13.984,13.984,0,0,0,6.389,3.568A1.988,1.988,0,0,0,45,30v7.172a7.761,7.761,0,0,0,1.961,5.169L46.495,47H36.829A5.788,5.788,0,0,1,33,45.559V17Zm-4.778-2H28.618l-1-2h1.764Zm-5-2,1,2H24.618l-1-2Zm-8.139,8H19V19h2.382l-1,2H21v6H15V25.728l3.486-3.486ZM4.605,20.234A2,2,0,0,0,3,19.015V16.986a2,2,0,0,0,1.333-3.218l1.435-1.435A2,2,0,0,0,8.986,11h2.029a2,2,0,0,0,3.218,1.333l1.435,1.435A2,2,0,0,0,17,16.986v2.029a2,2,0,0,0-1.333,3.218l-1.435,1.435A2,2,0,0,0,11.015,25H8.985a2,2,0,0,0-3.218-1.333L4.332,22.232a1.992,1.992,0,0,0,.273-2ZM11,51a4,4,0,0,1-4-4V27H9V46a3,3,0,0,0,3,3h1.529a10.461,10.461,0,0,0,.437,1.122L13.82,51Zm4.847,0h6.306L23.82,61H14.18Z"/>
      </g>
    </g>
  </g>
</svg>
