<svg xmlns="http://www.w3.org/2000/svg" xmlns:xlink="http://www.w3.org/1999/xlink" width="113" height="113" viewBox="0 0 113 113">
  <defs>
    <filter id="Trazado_982547" x="0" y="0" width="113" height="113" filterUnits="userSpaceOnUse">
      <feOffset dy="3" input="SourceAlpha"/>
      <feGaussianBlur stdDeviation="3" result="blur"/>
      <feFlood flood-opacity="0.161"/>
      <feComposite operator="in" in2="blur"/>
      <feComposite in="SourceGraphic"/>
    </filter>
  </defs>
  <g id="Grupo_1177683" data-name="Grupo 1177683" transform="translate(-1112 -1163.623)">
    <g id="Grupo_1177337" data-name="Grupo 1177337" transform="translate(318.51 -325.812)">
      <g id="Grupo_1176922" data-name="Grupo 1176922" transform="translate(802.49 1495.435)">
        <g id="Grupo_1172322" data-name="Grupo 1172322" transform="translate(0 0)">
          <g id="Grupo_1164700" data-name="Grupo 1164700">
            <g id="Grupo_1160931" data-name="Grupo 1160931">
              <g id="Grupo_1160749" data-name="Grupo 1160749">
                <g id="Grupo_1158891" data-name="Grupo 1158891">
                  <g id="Grupo_1157406" data-name="Grupo 1157406">
                    <g id="Grupo_1155793" data-name="Grupo 1155793">
                      <g id="Grupo_1154704" data-name="Grupo 1154704">
                        <g id="Grupo_1150790" data-name="Grupo 1150790">
                          <g id="Grupo_1154214" data-name="Grupo 1154214">
                            <g id="Grupo_1152583" data-name="Grupo 1152583">
                              <g id="Grupo_1146973" data-name="Grupo 1146973">
                                <g id="Grupo_1146954" data-name="Grupo 1146954">
                                  <g transform="matrix(1, 0, 0, 1, -9, -6)" filter="url(#Trazado_982547)">
                                    <g id="Trazado_982547-2" data-name="Trazado 982547" transform="translate(9 6)" fill="#f2f7e5">
                                      <path d="M 47.5000114440918 93.49987030029297 C 41.28938293457031 93.49987030029297 35.26534652709961 92.28384399414062 29.5951976776123 89.88558959960938 C 24.11773109436035 87.56881713867188 19.19814491271973 84.25183868408203 14.97310447692871 80.02680206298828 C 10.74805164337158 75.80176544189453 7.43107795715332 70.88218688964844 5.114304542541504 65.40472412109375 C 2.716038227081299 59.73458862304688 1.500011444091797 53.71054840087891 1.500011444091797 47.49993515014648 C 1.500011444091797 41.28932189941406 2.716038227081299 35.26528167724609 5.114304542541504 29.59514808654785 C 7.43107795715332 24.1176815032959 10.74805164337158 19.1981086730957 14.97310447692871 14.97306823730469 C 19.19814491271973 10.74802875518799 24.11773109436035 7.431055068969727 29.5951976776123 5.11428165435791 C 35.26534652709961 2.716028451919556 41.28938293457031 1.500001788139343 47.5000114440918 1.500001788139343 C 53.71063995361328 1.500001788139343 59.73467636108398 2.716028451919556 65.40482330322266 5.11428165435791 C 70.88229370117188 7.431055068969727 75.8018798828125 10.74802875518799 80.02691650390625 14.97306823730469 C 84.25196838378906 19.1981086730957 87.56894683837891 24.1176815032959 89.88571929931641 29.59514808654785 C 92.28398132324219 35.26528167724609 93.50001525878906 41.28932189941406 93.50001525878906 47.49993515014648 C 93.50001525878906 53.71054840087891 92.28398132324219 59.73458862304688 89.88571929931641 65.40472412109375 C 87.56894683837891 70.88218688964844 84.25196838378906 75.80176544189453 80.02691650390625 80.02680206298828 C 75.8018798828125 84.25183868408203 70.88229370117188 87.56881713867188 65.40482330322266 89.88558959960938 C 59.73467636108398 92.28384399414062 53.71063995361328 93.49987030029297 47.5000114440918 93.49987030029297 Z" stroke="none"/>
                                      <path d="M 47.5000114440918 3 C 41.49122619628906 3 35.66378021240234 4.1761474609375 30.17951965332031 6.495796203613281 C 24.880859375 8.7369384765625 20.12153625488281 11.94596862792969 16.03376770019531 16.03373718261719 C 11.94598388671875 20.12149047851562 8.736968994140625 24.88081359863281 6.495811462402344 30.17947387695312 C 4.176162719726562 35.66371917724609 3.000007629394531 41.49116516113281 3.000007629394531 47.49993515014648 C 3.000007629394531 53.50870513916016 4.176162719726562 59.33615112304688 6.495811462402344 64.82039642333984 C 8.736968994140625 70.11905670166016 11.94598388671875 74.87837982177734 16.03376770019531 78.96613311767578 C 20.12153625488281 83.05390167236328 24.880859375 86.26293182373047 30.17951965332031 88.50407409667969 C 35.66378021240234 90.82372283935547 41.49122619628906 91.99987030029297 47.5000114440918 91.99987030029297 C 53.50879669189453 91.99987030029297 59.33624267578125 90.82372283935547 64.82050323486328 88.50407409667969 C 70.11916351318359 86.26293182373047 74.87848663330078 83.05390167236328 78.96625518798828 78.96613311767578 C 83.05403900146484 74.87837982177734 86.2630615234375 70.11905670166016 88.50421142578125 64.82039642333984 C 90.82386016845703 59.33615112304688 92.00001525878906 53.50870513916016 92.00001525878906 47.49993515014648 C 92.00001525878906 41.49116516113281 90.82386016845703 35.66371917724609 88.50421142578125 30.17947387695312 C 86.2630615234375 24.88081359863281 83.05403900146484 20.12149047851562 78.96625518798828 16.03373718261719 C 74.87848663330078 11.94596862792969 70.11916351318359 8.7369384765625 64.82050323486328 6.495796203613281 C 59.33624267578125 4.1761474609375 53.50879669189453 3 47.5000114440918 3 M 47.5000114440918 0 C 73.73353576660156 0 95.00001525878906 21.26644134521484 95.00001525878906 47.49993515014648 C 95.00001525878906 73.73342895507812 73.73353576660156 94.99987030029297 47.5000114440918 94.99987030029297 C 21.26648712158203 94.99987030029297 7.62939453125e-06 73.73342895507812 7.62939453125e-06 47.49993515014648 C 7.62939453125e-06 21.26644134521484 21.26648712158203 0 47.5000114440918 0 Z" stroke="none" fill="#86b60c"/>
                                    </g>
                                  </g>
                                </g>
                              </g>
                            </g>
                          </g>
                        </g>
                      </g>
                    </g>
                  </g>
                </g>
              </g>
            </g>
          </g>
        </g>
      </g>
    </g>
    <g id="project_17931487" transform="translate(1135.621 1140.41)">
      <g id="Grupo_1201603" data-name="Grupo 1201603" transform="translate(1.095 51.95)">
        <g id="Grupo_1201588" data-name="Grupo 1201588" transform="translate(8.738 7.109)">
          <path id="Trazado_1045871" data-name="Trazado 1045871" d="M71.065,110.912h46.113V147.34H71.065Z" transform="translate(-71.065 -110.912)" fill="#e8f0fe" fill-rule="evenodd"/>
        </g>
        <g id="Grupo_1201589" data-name="Grupo 1201589" transform="translate(8.738 7.109)">
          <path id="Trazado_1045872" data-name="Trazado 1045872" d="M71.065,110.912h46.113v1.636H71.065Z" transform="translate(-71.065 -110.912)" fill="#cce4ff" fill-rule="evenodd"/>
        </g>
        <g id="Grupo_1201590" data-name="Grupo 1201590" transform="translate(5.971 3.594)">
          <path id="Trazado_1045873" data-name="Trazado 1045873" d="M50.148,84.337h51.646v3.515H50.148Z" transform="translate(-50.148 -84.337)" fill="#fe646f" fill-rule="evenodd"/>
        </g>
        <g id="Grupo_1201591" data-name="Grupo 1201591" transform="translate(29.742 48.532)">
          <path id="Trazado_1045874" data-name="Trazado 1045874" d="M231.935,428.226a2.052,2.052,0,1,0-2.052-2.052A2.056,2.056,0,0,0,231.935,428.226Z" transform="translate(-229.883 -424.122)" fill="#26a6fe" fill-rule="evenodd"/>
        </g>
        <g id="Grupo_1201592" data-name="Grupo 1201592" transform="translate(34.817 31.17)">
          <path id="Trazado_1045875" data-name="Trazado 1045875" d="M299.115,300.457h-25.6l-5.253-3.806,5.253-3.806h25.6c.393,0,.718.533.718,1.187v5.242C299.833,299.925,299.508,300.457,299.115,300.457Z" transform="translate(-268.258 -292.846)" fill="#ffd54f" fill-rule="evenodd"/>
        </g>
        <g id="Grupo_1201593" data-name="Grupo 1201593" transform="translate(0 28.521)">
          <path id="Trazado_1045876" data-name="Trazado 1045876" d="M15.65,294.115A10.65,10.65,0,1,0,5,283.465a10.671,10.671,0,0,0,10.65,10.65Z" transform="translate(-5 -272.815)" fill="#26a6fe" fill-rule="evenodd"/>
        </g>
        <g id="Grupo_1201594" data-name="Grupo 1201594" transform="translate(2.778 31.295)">
          <path id="Trazado_1045877" data-name="Trazado 1045877" d="M33.874,309.538A7.874,7.874,0,1,0,26,301.666,7.889,7.889,0,0,0,33.874,309.538Z" transform="translate(-26.002 -293.79)" fill="#e8f0fe" fill-rule="evenodd"/>
        </g>
        <g id="Grupo_1201595" data-name="Grupo 1201595" transform="translate(13.065 0)">
          <path id="Trazado_1045878" data-name="Trazado 1045878" d="M118.817,76.366v3.726h-9.5V76.521a2.038,2.038,0,0,0-1.005-1.772,9.467,9.467,0,0,1-4.527-7.989c0-5.3,4.55-9.6,10.162-9.6s10.162,4.3,10.162,9.6a9.442,9.442,0,0,1-4.331,7.861A2.037,2.037,0,0,0,118.817,76.366Z" transform="translate(-103.783 -57.164)" fill="#ffd54f" fill-rule="evenodd"/>
        </g>
        <g id="Grupo_1201596" data-name="Grupo 1201596" transform="translate(18.597 22.928)">
          <path id="Trazado_1045879" data-name="Trazado 1045879" d="M145.615,230.526h9.5v2.328a2.337,2.337,0,0,1-2.332,2.328h-4.837a2.337,2.337,0,0,1-2.332-2.328v-2.328Z" transform="translate(-145.615 -230.526)" fill="#b1beeb" fill-rule="evenodd"/>
        </g>
        <g id="Grupo_1201597" data-name="Grupo 1201597" transform="translate(26.33 0.578)">
          <path id="Trazado_1045880" data-name="Trazado 1045880" d="M205.849,80.159v3.726H204.08V79.966a2.107,2.107,0,0,1,.994-1.8,9.626,9.626,0,0,0-.62-16.628,9.641,9.641,0,0,1,6.685,9.017,9.442,9.442,0,0,1-4.331,7.861A2.037,2.037,0,0,0,205.849,80.159Z" transform="translate(-204.08 -61.535)" fill="#ffc328" fill-rule="evenodd"/>
        </g>
        <g id="Grupo_1201598" data-name="Grupo 1201598" transform="translate(25.362 22.928)">
          <path id="Trazado_1045881" data-name="Trazado 1045881" d="M197.732,230.526H199.5v2.328a2.337,2.337,0,0,1-2.332,2.328h-.4a2.763,2.763,0,0,0,.967-2.1v-2.555Z" transform="translate(-196.764 -230.526)" fill="#99a8e5" fill-rule="evenodd"/>
        </g>
        <g id="Grupo_1201599" data-name="Grupo 1201599" transform="translate(34.817 31.171)">
          <path id="Trazado_1045882" data-name="Trazado 1045882" d="M273.511,292.847l-5.253,3.806,5.253,3.806v-7.611Z" transform="translate(-268.258 -292.847)" fill="#365e7d" fill-rule="evenodd"/>
        </g>
        <g id="Grupo_1201600" data-name="Grupo 1201600" transform="translate(62.776 31.171)">
          <path id="Trazado_1045883" data-name="Trazado 1045883" d="M479.654,292.847v7.611h2.9c.393,0,.718-.533.718-1.183v-5.242c0-.654-.325-1.187-.718-1.187Z" transform="translate(-479.654 -292.847)" fill="#fe646f" fill-rule="evenodd"/>
        </g>
        <g id="Grupo_1201601" data-name="Grupo 1201601" transform="translate(10.128 28.517)">
          <path id="Trazado_1045884" data-name="Trazado 1045884" d="M82.1,272.787a10.652,10.652,0,0,1,0,21.3c-.174,0-.348,0-.521-.015a10.649,10.649,0,0,0,0-21.273C81.754,272.795,81.928,272.787,82.1,272.787Z" transform="translate(-81.58 -272.787)" fill="#0593fc" fill-rule="evenodd"/>
        </g>
        <g id="Grupo_1201602" data-name="Grupo 1201602" transform="translate(10.211 31.295)">
          <path id="Trazado_1045885" data-name="Trazado 1045885" d="M82.646,293.79a7.874,7.874,0,0,1,0,15.748c-.147,0-.295,0-.438-.011a7.873,7.873,0,0,0,0-15.721C82.352,293.8,82.5,293.79,82.646,293.79Z" transform="translate(-82.208 -293.79)" fill="#cce4ff" fill-rule="evenodd"/>
        </g>
      </g>
      <path id="Trazado_1045886" data-name="Trazado 1045886" d="M37.977,65.321A.924.924,0,0,1,38.9,64.4H49.909a.924.924,0,1,1,0,1.848H38.9A.924.924,0,0,1,37.977,65.321ZM38.9,69.43H49.909a.924.924,0,1,0,0-1.848H38.9a.924.924,0,1,0,0,1.848Zm0,3.188H49.909a.924.924,0,1,0,0-1.848H38.9a.924.924,0,1,0,0,1.848Zm0,3.184H49.909a.924.924,0,1,0,0-1.848H38.9a.924.924,0,1,0,0,1.848Zm29.182,8.314v5.19c0,1.195-.7,2.1-1.635,2.1H56.656v3.787a.924.924,0,0,1-.924.924h-21.9v3.463a2.957,2.957,0,1,1-1.848,0V96.112H22.163A11.468,11.468,0,1,1,9.155,79.743v-19.7H7.336a.924.924,0,0,1-.924-.924v-3.48a.924.924,0,0,1,.924-.924h8.832a11.353,11.353,0,0,1,16.509,0H58.47a.924.924,0,0,1,.924.924v3.48a.924.924,0,0,1-.924.924H56.656V82.02h9.792C67.38,82.02,68.083,82.921,68.083,84.116ZM34.014,102.383A1.109,1.109,0,1,0,32.9,103.49,1.111,1.111,0,0,0,34.014,102.383Zm28.643-12.83V87.794H42.022v1.758Zm-22.484-.887V84.755l-2.7,1.955Zm22.484-4.8H42.022v2.077H62.657ZM34.047,56.562a10.117,10.117,0,0,1,.762,1.631H57.546V56.562ZM15.287,61.579a8.448,8.448,0,0,0,4.051,7.128,2.961,2.961,0,0,1,1.427,2.537v2.612h1.471V66.129H21.05A3.033,3.033,0,1,1,24.084,63.1V73.856h.677V63.1A3.034,3.034,0,1,1,27.8,66.129H26.61v7.727h1.71V71.091a2.967,2.967,0,0,1,1.363-2.5,8.449,8.449,0,0,0,3.876-7.013c0-4.729-4.1-8.576-9.137-8.576a8.878,8.878,0,0,0-9.134,8.576Zm5.478,15.506a1.382,1.382,0,0,0,1.381,1.381h4.793a1.382,1.382,0,0,0,1.381-1.381V75.7H20.765v1.381ZM22.236,63.1a1.186,1.186,0,1,0-1.186,1.182h1.186Zm5.56,1.182A1.184,1.184,0,1,0,26.61,63.1v1.182ZM8.26,58.193h5.777a10.116,10.116,0,0,1,.761-1.631H8.26ZM21.588,90.862a9.62,9.62,0,1,0-9.62,9.62A9.631,9.631,0,0,0,21.588,90.862Zm33.219.539H41.1a.927.927,0,0,1-.131-.01l-.026,0a.9.9,0,0,1-.127-.031l-.006,0a.936.936,0,0,1-.119-.049l-.016-.008a.929.929,0,0,1-.11-.067l-.008,0-5.2-3.768a.924.924,0,0,1,0-1.5l5.2-3.764.008,0a.929.929,0,0,1,.11-.067l.016-.008a.9.9,0,0,1,.119-.049l.006,0a.917.917,0,0,1,.127-.03l.026,0a.928.928,0,0,1,.131-.01h13.71V60.042H35.286a9.938,9.938,0,0,1,.12,1.538,10.291,10.291,0,0,1-4.7,8.553,1.1,1.1,0,0,0-.537.958v5.994a3.233,3.233,0,0,1-3.229,3.229H22.146a3.233,3.233,0,0,1-3.229-3.229V71.244a1.1,1.1,0,0,0-.565-.973,10.286,10.286,0,0,1-4.913-8.691,9.939,9.939,0,0,1,.12-1.538H11V79.435c.318-.027.64-.041.965-.041a11.471,11.471,0,0,1,10.953,14.87H54.807V91.4Zm11.427-7.285a.884.884,0,0,0-.033-.247h-1.7v5.684h1.7a.885.885,0,0,0,.033-.247ZM20.686,90.862a8.718,8.718,0,1,1-8.718-8.718A8.728,8.728,0,0,1,20.686,90.862Zm-1.848,0a6.87,6.87,0,1,0-6.87,6.87A6.877,6.877,0,0,0,18.838,90.862ZM12.89,90.5l-.035-4.785a.924.924,0,0,0-.924-.918h-.007a.924.924,0,0,0-.917.931l.037,5.141a.924.924,0,0,0,.244.619L13.11,93.47a.924.924,0,0,0,1.361-1.251Z" transform="translate(0 0)"/>
    </g>
  </g>
</svg>
