<svg xmlns="http://www.w3.org/2000/svg" xmlns:xlink="http://www.w3.org/1999/xlink" width="113" height="113" viewBox="0 0 113 113">
  <defs>
    <filter id="Trazado_982547" x="0" y="0" width="113" height="113" filterUnits="userSpaceOnUse">
      <feOffset dy="3" input="SourceAlpha"/>
      <feGaussianBlur stdDeviation="3" result="blur"/>
      <feFlood flood-opacity="0.161"/>
      <feComposite operator="in" in2="blur"/>
      <feComposite in="SourceGraphic"/>
    </filter>
  </defs>
  <g id="Grupo_1201529" data-name="Grupo 1201529" transform="translate(1129.51 -1150.518)">
    <g id="Grupo_1177679" data-name="Grupo 1177679" transform="translate(-6416 -769.755)">
      <g id="Grupo_1176928" data-name="Grupo 1176928" transform="translate(5295.49 1926.273)">
        <g id="Grupo_1172322" data-name="Grupo 1172322" transform="translate(0 0)">
          <g id="Grupo_1164700" data-name="Grupo 1164700">
            <g id="Grupo_1160931" data-name="Grupo 1160931">
              <g id="Grupo_1160749" data-name="Grupo 1160749">
                <g id="Grupo_1158891" data-name="Grupo 1158891">
                  <g id="Grupo_1157406" data-name="Grupo 1157406">
                    <g id="Grupo_1155793" data-name="Grupo 1155793">
                      <g id="Grupo_1154704" data-name="Grupo 1154704">
                        <g id="Grupo_1150790" data-name="Grupo 1150790">
                          <g id="Grupo_1154214" data-name="Grupo 1154214">
                            <g id="Grupo_1152583" data-name="Grupo 1152583">
                              <g id="Grupo_1146973" data-name="Grupo 1146973">
                                <g id="Grupo_1146954" data-name="Grupo 1146954">
                                  <g transform="matrix(1, 0, 0, 1, -9, -6)" filter="url(#Trazado_982547)">
                                    <g id="Trazado_982547-2" data-name="Trazado 982547" transform="translate(9 6)" fill="#ebe9f0">
                                      <path d="M 47.5000114440918 93.49987030029297 C 41.28938293457031 93.49987030029297 35.26534652709961 92.28384399414062 29.5951976776123 89.88558959960938 C 24.11773109436035 87.56881713867188 19.19814491271973 84.25183868408203 14.97310447692871 80.02680206298828 C 10.74805164337158 75.80176544189453 7.43107795715332 70.88218688964844 5.114304542541504 65.40472412109375 C 2.716038227081299 59.73458862304688 1.500011444091797 53.71054840087891 1.500011444091797 47.49993515014648 C 1.500011444091797 41.28932189941406 2.716038227081299 35.26528167724609 5.114304542541504 29.59514808654785 C 7.43107795715332 24.1176815032959 10.74805164337158 19.1981086730957 14.97310447692871 14.97306823730469 C 19.19814491271973 10.74802875518799 24.11773109436035 7.431055068969727 29.5951976776123 5.11428165435791 C 35.26534652709961 2.716028451919556 41.28938293457031 1.500001788139343 47.5000114440918 1.500001788139343 C 53.71063995361328 1.500001788139343 59.73467636108398 2.716028451919556 65.40482330322266 5.11428165435791 C 70.88229370117188 7.431055068969727 75.8018798828125 10.74802875518799 80.02691650390625 14.97306823730469 C 84.25196838378906 19.1981086730957 87.56894683837891 24.1176815032959 89.88571929931641 29.59514808654785 C 92.28398132324219 35.26528167724609 93.50001525878906 41.28932189941406 93.50001525878906 47.49993515014648 C 93.50001525878906 53.71054840087891 92.28398132324219 59.73458862304688 89.88571929931641 65.40472412109375 C 87.56894683837891 70.88218688964844 84.25196838378906 75.80176544189453 80.02691650390625 80.02680206298828 C 75.8018798828125 84.25183868408203 70.88229370117188 87.56881713867188 65.40482330322266 89.88558959960938 C 59.73467636108398 92.28384399414062 53.71063995361328 93.49987030029297 47.5000114440918 93.49987030029297 Z" stroke="none"/>
                                      <path d="M 47.5000114440918 3 C 41.49122619628906 3 35.66378021240234 4.1761474609375 30.17951965332031 6.495796203613281 C 24.880859375 8.7369384765625 20.12153625488281 11.94596862792969 16.03376770019531 16.03373718261719 C 11.94598388671875 20.12149047851562 8.736968994140625 24.88081359863281 6.495811462402344 30.17947387695312 C 4.176162719726562 35.66371917724609 3.000007629394531 41.49116516113281 3.000007629394531 47.49993515014648 C 3.000007629394531 53.50870513916016 4.176162719726562 59.33615112304688 6.495811462402344 64.82039642333984 C 8.736968994140625 70.11905670166016 11.94598388671875 74.87837982177734 16.03376770019531 78.96613311767578 C 20.12153625488281 83.05390167236328 24.880859375 86.26293182373047 30.17951965332031 88.50407409667969 C 35.66378021240234 90.82372283935547 41.49122619628906 91.99987030029297 47.5000114440918 91.99987030029297 C 53.50879669189453 91.99987030029297 59.33624267578125 90.82372283935547 64.82050323486328 88.50407409667969 C 70.11916351318359 86.26293182373047 74.87848663330078 83.05390167236328 78.96625518798828 78.96613311767578 C 83.05403900146484 74.87837982177734 86.2630615234375 70.11905670166016 88.50421142578125 64.82039642333984 C 90.82386016845703 59.33615112304688 92.00001525878906 53.50870513916016 92.00001525878906 47.49993515014648 C 92.00001525878906 41.49116516113281 90.82386016845703 35.66371917724609 88.50421142578125 30.17947387695312 C 86.2630615234375 24.88081359863281 83.05403900146484 20.12149047851562 78.96625518798828 16.03373718261719 C 74.87848663330078 11.94596862792969 70.11916351318359 8.7369384765625 64.82050323486328 6.495796203613281 C 59.33624267578125 4.1761474609375 53.50879669189453 3 47.5000114440918 3 M 47.5000114440918 0 C 73.73353576660156 0 95.00001525878906 21.26644134521484 95.00001525878906 47.49993515014648 C 95.00001525878906 73.73342895507812 73.73353576660156 94.99987030029297 47.5000114440918 94.99987030029297 C 21.26648712158203 94.99987030029297 7.62939453125e-06 73.73342895507812 7.62939453125e-06 47.49993515014648 C 7.62939453125e-06 21.26644134521484 21.26648712158203 0 47.5000114440918 0 Z" stroke="none" fill="#453179"/>
                                    </g>
                                  </g>
                                </g>
                              </g>
                            </g>
                          </g>
                        </g>
                      </g>
                    </g>
                  </g>
                </g>
              </g>
            </g>
          </g>
        </g>
      </g>
    </g>
    <g id="Layer_x0020_1" transform="translate(-1102.757 1167.445)">
      <path id="Trazado_1045799" data-name="Trazado 1045799" d="M29.729,35.531a.688.688,0,0,1-.488-.209l-3.555-3.555a.7.7,0,0,1-.139-.732.638.638,0,0,1,.627-.418H27.29V26.26a.7.7,0,0,1,.7-.7h3.52a.7.7,0,0,1,.7.7v4.357h1.115a.638.638,0,0,1,.627.418.648.648,0,0,1-.174.732l-3.555,3.555A.688.688,0,0,1,29.729,35.531ZM58.8,64.145H7.075C3.172,64.145,0,61.531,0,58.29V56.861c0-3.241,3.172-5.855,7.075-5.855H58.831a.656.656,0,0,1,.279.07c.07.07.174.1.209.209a.729.729,0,0,1,.139.209c0,.07.035.174.035.244-.035.1-.035.209-.1.279a.512.512,0,0,1-.174.209.034.034,0,0,1-.035.035c-.139.1-3.1,2.231-3.206,5.158-.07,1.847,1.046,3.694,3.241,5.507h.035a.625.625,0,0,1,.174.244.646.646,0,0,1,.07.244c0,.1-.035.174-.035.244v.035h-.035v.035a.762.762,0,0,1-.1.174.625.625,0,0,1-.244.174.5.5,0,0,1-.244.07ZM7.075,52.365c-3.137,0-5.716,2.021-5.716,4.5V58.29c0,2.475,2.579,4.5,5.716,4.5H57.019a8.925,8.925,0,0,1-1.847-2.649H30.113a.7.7,0,1,1,0-1.394H54.719a6.114,6.114,0,0,1-.1-1.394,8.469,8.469,0,0,1,.279-1.638H21.365v4.357a.628.628,0,0,1-.314.558.7.7,0,0,1-.383.1.593.593,0,0,1-.244-.035l-2.719-1.15-2.684,1.15a.749.749,0,0,1-.662-.07.71.71,0,0,1-.314-.558V55.711H8.121a.67.67,0,0,1-.662-.7.662.662,0,0,1,.662-.662h47.4a9.177,9.177,0,0,1,1.464-1.987Zm12.93,3.346H15.44v3.311l1.987-.871a1.133,1.133,0,0,1,.558,0l2.021.871ZM35.828,23.925H24.85a.67.67,0,0,1-.662-.7V18.383l-3.276-1.011V19.5A1.911,1.911,0,0,1,22.1,21.276v.035a1.882,1.882,0,1,1-3.764,0v-.035A1.911,1.911,0,0,1,19.517,19.5V16.4l.035-.035v-.139h.035v-.07h.035v-.035c0-.035.035-.035.035-.07a.034.034,0,0,1,.035-.035c.035-.07.1-.1.139-.139h.07v-.035h.035l.035-.035h.07l10.107-3.1a.713.713,0,0,1,.383,0l10.142,3.1a.68.68,0,0,1,.488.662.67.67,0,0,1-.488.627l-4.147,1.29v4.845A.7.7,0,0,1,35.828,23.925ZM25.547,18.8v3.764h9.584V18.8l-4.6,1.429h-.383Zm-3-2.335,2.475.767h.035l5.3,1.6,5.263-1.6h.035l2.475-.767-7.772-2.4Zm-2.335,4.287a.513.513,0,0,0-.523.523v.035a.523.523,0,1,0,1.046,0v-.035A.513.513,0,0,0,20.215,20.753ZM37.257,39.539H22.2a2.216,2.216,0,0,1-2.2-2.231c0-5.542-1.359-7.668-2.649-9.759a12.547,12.547,0,0,1-2.37-7.807,14.76,14.76,0,0,1,29.52,0,12.771,12.771,0,0,1-2.37,7.807c-1.324,2.091-2.649,4.217-2.649,9.759a2.262,2.262,0,0,1-2.231,2.231ZM29.729,6.359A13.387,13.387,0,0,0,16.346,19.743a11.289,11.289,0,0,0,2.161,7.075c1.359,2.126,2.858,4.566,2.858,10.491a.826.826,0,0,0,.836.836H37.257a.805.805,0,0,0,.836-.836c0-5.925,1.534-8.365,2.893-10.491a11.289,11.289,0,0,0,2.161-7.075A13.417,13.417,0,0,0,29.729,6.359Zm5.576,38.059H24.188a2.178,2.178,0,0,1,0-4.357H35.306a2.178,2.178,0,0,1,0,4.357Zm-11.118-3a.819.819,0,0,0,0,1.638H35.306a.819.819,0,0,0,0-1.638ZM32.169,49.3H27.324a2.178,2.178,0,1,1,0-4.357h4.845a2.178,2.178,0,1,1,0,4.357Zm-4.845-3a.819.819,0,1,0,0,1.638h4.845a.819.819,0,0,0,0-1.638Zm.488-14.324,1.917,1.917,1.917-1.917h-.139a.7.7,0,0,1-.7-.7V26.922H28.649v4.357a.67.67,0,0,1-.662.7Z" transform="translate(0 0)" fill-rule="evenodd"/>
      <path id="Trazado_1045800" data-name="Trazado 1045800" d="M485.973,68.257a.663.663,0,0,1,.453,1.15l-3.555,3.555a.674.674,0,0,1-.976,0l-3.555-3.555a.681.681,0,0,1,.488-1.15h1.115V63.9a.7.7,0,0,1,.7-.7h3.52a.7.7,0,0,1,.7.7v4.357Zm3.938,7.528a.805.805,0,0,0,.836-.836c0-10.944,5.054-9.619,5.054-17.566a13.4,13.4,0,0,0-26.8,0c0,7.946,5.019,6.622,5.019,17.566a.826.826,0,0,0,.836.836Zm-1.429-14.22H477.5a.67.67,0,0,1-.662-.7V56.024l-3.276-1.011v2.126a1.93,1.93,0,1,1-1.394,0V54.107l.139-.418.383-.244,10.107-3.1a.713.713,0,0,1,.383,0l10.142,3.1a.677.677,0,0,1,0,1.29l-4.147,1.29v4.845A.7.7,0,0,1,488.483,61.566Z" transform="translate(-452.654 -37.641)" fill="#ffc738" fill-rule="evenodd"/>
      <path id="Trazado_1045801" data-name="Trazado 1045801" d="M92.534,1367.346H59.005v4.357a.691.691,0,0,1-.941.627l-2.718-1.15-2.684,1.15a.71.71,0,0,1-.976-.627v-4.357H45.761a.68.68,0,1,1,0-1.359h47.4A9.182,9.182,0,0,1,94.625,1364H44.716c-3.137,0-5.716,2.022-5.716,4.5v1.429c0,2.475,2.579,4.5,5.716,4.5H94.66a8.925,8.925,0,0,1-1.847-2.649H67.753a.7.7,0,0,1,0-1.394H92.359A5.967,5.967,0,0,1,92.534,1367.346Z" transform="translate(-37.641 -1311.635)" fill="#1aa1ff" fill-rule="evenodd"/>
      <path id="Trazado_1045802" data-name="Trazado 1045802" d="M447.566,1463.311V1460H443v3.311a14.587,14.587,0,0,1,2.265-.906A16.422,16.422,0,0,1,447.566,1463.311Z" transform="translate(-427.56 -1404.289)" fill="#fc6559" fill-rule="evenodd"/>
      <path id="Trazado_1045803" data-name="Trazado 1045803" d="M761.56,1191.638H766.4a.819.819,0,0,0,0-1.638H761.56A.819.819,0,0,0,761.56,1191.638Z" transform="translate(-734.236 -1143.7)" fill="#e4e8eb" fill-rule="evenodd"/>
      <path id="Trazado_1045804" data-name="Trazado 1045804" d="M672.284,1051.638H683.4a.82.82,0,0,0,0-1.638H672.284A.82.82,0,0,0,672.284,1051.638Z" transform="translate(-648.097 -1008.579)" fill="#cad0d7" fill-rule="evenodd"/>
      <path id="Trazado_1045805" data-name="Trazado 1045805" d="M798,639.054l1.917,1.917,1.917-1.917h-.14a.7.7,0,0,1-.7-.7V634h-2.161v4.357a.67.67,0,0,1-.662.7Z" transform="translate(-770.188 -607.078)" fill="#fc6559" fill-rule="evenodd"/>
      <path id="Trazado_1045806" data-name="Trazado 1045806" d="M654.807,269.775l7.772-2.37-7.772-2.4L647,267.4Z" transform="translate(-624.45 -250.938)" fill="#2c3033" fill-rule="evenodd"/>
      <path id="Trazado_1045807" data-name="Trazado 1045807" d="M742.585,401c-.558.174-4.531,1.429-4.775,1.429S733.558,401.174,733,401v3.764h9.584Z" transform="translate(-707.453 -382.198)" fill="#545859" fill-rule="evenodd"/>
      <path id="Trazado_1045808" data-name="Trazado 1045808" d="M565.523,458.08a.541.541,0,0,0,0-1.08A.541.541,0,0,0,565.523,458.08Z" transform="translate(-545.308 -436.247)" fill="#fa762e" fill-rule="evenodd"/>
    </g>
  </g>
</svg>
