<svg xmlns="http://www.w3.org/2000/svg" xmlns:xlink="http://www.w3.org/1999/xlink" width="113" height="113" viewBox="0 0 113 113">
  <defs>
    <filter id="Trazado_982547" x="0" y="0" width="113" height="113" filterUnits="userSpaceOnUse">
      <feOffset dy="3" input="SourceAlpha"/>
      <feGaussianBlur stdDeviation="3" result="blur"/>
      <feFlood flood-opacity="0.161"/>
      <feComposite operator="in" in2="blur"/>
      <feComposite in="SourceGraphic"/>
    </filter>
  </defs>
  <g id="Grupo_1201571" data-name="Grupo 1201571" transform="translate(1457.51 -1542.518)">
    <g id="Grupo_1177680" data-name="Grupo 1177680" transform="translate(-6744 -377.755)">
      <g id="Grupo_1176928" data-name="Grupo 1176928" transform="translate(5295.49 1926.273)">
        <g id="Grupo_1172322" data-name="Grupo 1172322" transform="translate(0 0)">
          <g id="Grupo_1164700" data-name="Grupo 1164700">
            <g id="Grupo_1160931" data-name="Grupo 1160931">
              <g id="Grupo_1160749" data-name="Grupo 1160749">
                <g id="Grupo_1158891" data-name="Grupo 1158891">
                  <g id="Grupo_1157406" data-name="Grupo 1157406">
                    <g id="Grupo_1155793" data-name="Grupo 1155793">
                      <g id="Grupo_1154704" data-name="Grupo 1154704">
                        <g id="Grupo_1150790" data-name="Grupo 1150790">
                          <g id="Grupo_1154214" data-name="Grupo 1154214">
                            <g id="Grupo_1152583" data-name="Grupo 1152583">
                              <g id="Grupo_1146973" data-name="Grupo 1146973">
                                <g id="Grupo_1146954" data-name="Grupo 1146954">
                                  <g transform="matrix(1, 0, 0, 1, -9, -6)" filter="url(#Trazado_982547)">
                                    <g id="Trazado_982547-2" data-name="Trazado 982547" transform="translate(9 6)" fill="#ebe9f0">
                                      <path d="M 47.5000114440918 93.49987030029297 C 41.28938293457031 93.49987030029297 35.26534652709961 92.28384399414062 29.5951976776123 89.88558959960938 C 24.11773109436035 87.56881713867188 19.19814491271973 84.25183868408203 14.97310447692871 80.02680206298828 C 10.74805164337158 75.80176544189453 7.43107795715332 70.88218688964844 5.114304542541504 65.40472412109375 C 2.716038227081299 59.73458862304688 1.500011444091797 53.71054840087891 1.500011444091797 47.49993515014648 C 1.500011444091797 41.28932189941406 2.716038227081299 35.26528167724609 5.114304542541504 29.59514808654785 C 7.43107795715332 24.1176815032959 10.74805164337158 19.1981086730957 14.97310447692871 14.97306823730469 C 19.19814491271973 10.74802875518799 24.11773109436035 7.431055068969727 29.5951976776123 5.11428165435791 C 35.26534652709961 2.716028451919556 41.28938293457031 1.500001788139343 47.5000114440918 1.500001788139343 C 53.71063995361328 1.500001788139343 59.73467636108398 2.716028451919556 65.40482330322266 5.11428165435791 C 70.88229370117188 7.431055068969727 75.8018798828125 10.74802875518799 80.02691650390625 14.97306823730469 C 84.25196838378906 19.1981086730957 87.56894683837891 24.1176815032959 89.88571929931641 29.59514808654785 C 92.28398132324219 35.26528167724609 93.50001525878906 41.28932189941406 93.50001525878906 47.49993515014648 C 93.50001525878906 53.71054840087891 92.28398132324219 59.73458862304688 89.88571929931641 65.40472412109375 C 87.56894683837891 70.88218688964844 84.25196838378906 75.80176544189453 80.02691650390625 80.02680206298828 C 75.8018798828125 84.25183868408203 70.88229370117188 87.56881713867188 65.40482330322266 89.88558959960938 C 59.73467636108398 92.28384399414062 53.71063995361328 93.49987030029297 47.5000114440918 93.49987030029297 Z" stroke="none"/>
                                      <path d="M 47.5000114440918 3 C 41.49122619628906 3 35.66378021240234 4.1761474609375 30.17951965332031 6.495796203613281 C 24.880859375 8.7369384765625 20.12153625488281 11.94596862792969 16.03376770019531 16.03373718261719 C 11.94598388671875 20.12149047851562 8.736968994140625 24.88081359863281 6.495811462402344 30.17947387695312 C 4.176162719726562 35.66371917724609 3.000007629394531 41.49116516113281 3.000007629394531 47.49993515014648 C 3.000007629394531 53.50870513916016 4.176162719726562 59.33615112304688 6.495811462402344 64.82039642333984 C 8.736968994140625 70.11905670166016 11.94598388671875 74.87837982177734 16.03376770019531 78.96613311767578 C 20.12153625488281 83.05390167236328 24.880859375 86.26293182373047 30.17951965332031 88.50407409667969 C 35.66378021240234 90.82372283935547 41.49122619628906 91.99987030029297 47.5000114440918 91.99987030029297 C 53.50879669189453 91.99987030029297 59.33624267578125 90.82372283935547 64.82050323486328 88.50407409667969 C 70.11916351318359 86.26293182373047 74.87848663330078 83.05390167236328 78.96625518798828 78.96613311767578 C 83.05403900146484 74.87837982177734 86.2630615234375 70.11905670166016 88.50421142578125 64.82039642333984 C 90.82386016845703 59.33615112304688 92.00001525878906 53.50870513916016 92.00001525878906 47.49993515014648 C 92.00001525878906 41.49116516113281 90.82386016845703 35.66371917724609 88.50421142578125 30.17947387695312 C 86.2630615234375 24.88081359863281 83.05403900146484 20.12149047851562 78.96625518798828 16.03373718261719 C 74.87848663330078 11.94596862792969 70.11916351318359 8.7369384765625 64.82050323486328 6.495796203613281 C 59.33624267578125 4.1761474609375 53.50879669189453 3 47.5000114440918 3 M 47.5000114440918 0 C 73.73353576660156 0 95.00001525878906 21.26644134521484 95.00001525878906 47.49993515014648 C 95.00001525878906 73.73342895507812 73.73353576660156 94.99987030029297 47.5000114440918 94.99987030029297 C 21.26648712158203 94.99987030029297 7.62939453125e-06 73.73342895507812 7.62939453125e-06 47.49993515014648 C 7.62939453125e-06 21.26644134521484 21.26648712158203 0 47.5000114440918 0 Z" stroke="none" fill="#453179"/>
                                    </g>
                                  </g>
                                </g>
                              </g>
                            </g>
                          </g>
                        </g>
                      </g>
                    </g>
                  </g>
                </g>
              </g>
            </g>
          </g>
        </g>
      </g>
    </g>
    <g id="performance_11501693" transform="translate(-1450.336 1558.93)">
      <g id="Grupo_1201569" data-name="Grupo 1201569" transform="translate(22.807 8.942)">
        <g id="Grupo_1201536" data-name="Grupo 1201536" transform="translate(47.063 9.272)">
          <g id="Grupo_1201530" data-name="Grupo 1201530" transform="translate(0)">
            <path id="Trazado_1045809" data-name="Trazado 1045809" d="M437.15,122.845V97.552a2.494,2.494,0,0,0-2.49-2.49h-1a2.494,2.494,0,0,0-2.489,2.49v25.293l2.987,5.174Z" transform="translate(-431.175 -95.062)" fill="#e3a76f" fill-rule="evenodd"/>
          </g>
          <g id="Grupo_1201531" data-name="Grupo 1201531" transform="translate(0 0)">
            <path id="Trazado_1045810" data-name="Trazado 1045810" d="M435.014,95.088a2.488,2.488,0,0,0-.353-.025h-1a2.494,2.494,0,0,0-2.489,2.489v25.293l2.987,5.174.851-1.474-2.136-3.7V97.552A2.5,2.5,0,0,1,435.014,95.088Z" transform="translate(-431.176 -95.063)" fill="#c48958" fill-rule="evenodd"/>
          </g>
          <g id="Grupo_1201532" data-name="Grupo 1201532" transform="translate(0 27.783)">
            <path id="Trazado_1045811" data-name="Trazado 1045811" d="M434.162,337.136l2.987-5.174h-5.975Z" transform="translate(-431.175 -331.962)" fill="#837683" fill-rule="evenodd"/>
          </g>
          <g id="Grupo_1201533" data-name="Grupo 1201533" transform="translate(0 27.783)">
            <path id="Trazado_1045812" data-name="Trazado 1045812" d="M434.162,337.136l.851-1.474-2.136-3.7h-1.7Z" transform="translate(-431.175 -331.962)" fill="#685e68" fill-rule="evenodd"/>
          </g>
          <g id="Grupo_1201534" data-name="Grupo 1201534" transform="translate(0 0)">
            <path id="Trazado_1045813" data-name="Trazado 1045813" d="M437.151,99.643v-2.09a2.494,2.494,0,0,0-2.49-2.489h-1a2.494,2.494,0,0,0-2.489,2.49v2.09h5.975Z" transform="translate(-431.176 -95.063)" fill="#837683" fill-rule="evenodd"/>
          </g>
          <g id="Grupo_1201535" data-name="Grupo 1201535" transform="translate(0 0)">
            <path id="Trazado_1045814" data-name="Trazado 1045814" d="M435.014,95.088a2.489,2.489,0,0,0-.353-.025h-1a2.5,2.5,0,0,0-2.49,2.49v2.09h1.7v-2.09A2.5,2.5,0,0,1,435.014,95.088Z" transform="translate(-431.175 -95.063)" fill="#685e68" fill-rule="evenodd"/>
          </g>
        </g>
        <g id="Grupo_1201568" data-name="Grupo 1201568" transform="translate(0 0)">
          <g id="Grupo_1201548" data-name="Grupo 1201548">
            <g id="Grupo_1201539" data-name="Grupo 1201539" transform="translate(0 4.806)">
              <g id="Grupo_1201537" data-name="Grupo 1201537" transform="translate(0)">
                <path id="Trazado_1045815" data-name="Trazado 1045815" d="M71.269,56.984a2.529,2.529,0,0,1,2.524,2.524v46.439a2.529,2.529,0,0,1-2.524,2.524H32.4a2.529,2.529,0,0,1-2.524-2.524V59.508A2.529,2.529,0,0,1,32.4,56.984H71.269Z" transform="translate(-29.878 -56.984)" fill="#837683" fill-rule="evenodd"/>
              </g>
              <g id="Grupo_1201538" data-name="Grupo 1201538" transform="translate(0 0)">
                <path id="Trazado_1045816" data-name="Trazado 1045816" d="M34.992,108.471H32.4a2.529,2.529,0,0,1-2.524-2.524V59.509A2.529,2.529,0,0,1,32.4,56.985h2.59v51.486Z" transform="translate(-29.878 -56.985)" fill="#685e68" fill-rule="evenodd"/>
              </g>
            </g>
            <g id="Grupo_1201544" data-name="Grupo 1201544" transform="translate(3.511 8.317)">
              <g id="Grupo_1201542" data-name="Grupo 1201542">
                <g id="Grupo_1201540" data-name="Grupo 1201540">
                  <path id="Trazado_1045817" data-name="Trazado 1045817" d="M60.4,86.922h35.72a.588.588,0,0,1,.586.586v38.513a.566.566,0,0,1-.161.4L92,131.2a.567.567,0,0,1-.425.182H60.4a.587.587,0,0,1-.586-.586V87.508a.588.588,0,0,1,.586-.586Z" transform="translate(-59.815 -86.922)" fill="#eceff1" fill-rule="evenodd"/>
                </g>
                <g id="Grupo_1201541" data-name="Grupo 1201541" transform="translate(0)">
                  <path id="Trazado_1045818" data-name="Trazado 1045818" d="M60.4,86.922h1.017v44.464H60.4a.588.588,0,0,1-.586-.586V87.508A.588.588,0,0,1,60.4,86.922Zm18.087,0H96.121a.583.583,0,0,1,.236.05H78.489Z" transform="translate(-59.815 -86.922)" fill="#d1d1d6" fill-rule="evenodd"/>
                </g>
              </g>
              <g id="Grupo_1201543" data-name="Grupo 1201543" transform="translate(31.911 39.334)">
                <path id="Trazado_1045819" data-name="Trazado 1045819" d="M331.914,427.451a.774.774,0,0,0,.241-.17l4.494-4.718a.888.888,0,0,0,.17-.241l-4.455.073a.417.417,0,0,0-.412.412Z" transform="translate(-331.914 -422.321)" fill="#a79ba7" fill-rule="evenodd"/>
              </g>
            </g>
            <g id="Grupo_1201547" data-name="Grupo 1201547" transform="translate(12.24)">
              <g id="Grupo_1201545" data-name="Grupo 1201545" transform="translate(0)">
                <path id="Trazado_1045820" data-name="Trazado 1045820" d="M134.837,19.281h4.521a.578.578,0,0,0,.554-.395,4.292,4.292,0,0,1,8.11,0,.578.578,0,0,0,.554.395H153.1a.588.588,0,0,1,.586.586v5.389a.588.588,0,0,1-.586.586H134.837a.587.587,0,0,1-.586-.586V19.867A.587.587,0,0,1,134.837,19.281Z" transform="translate(-134.251 -16)" fill="#e3a76f" fill-rule="evenodd"/>
              </g>
              <g id="Grupo_1201546" data-name="Grupo 1201546" transform="translate(0 3.281)">
                <path id="Trazado_1045821" data-name="Trazado 1045821" d="M134.837,43.977h.586v4.8a.588.588,0,0,0,.586.586h17.674v.586a.588.588,0,0,1-.586.586H134.837a.588.588,0,0,1-.586-.586V44.563A.587.587,0,0,1,134.837,43.977Z" transform="translate(-134.251 -43.977)" fill="#c48958" fill-rule="evenodd"/>
              </g>
            </g>
          </g>
          <g id="Grupo_1201567" data-name="Grupo 1201567" transform="translate(5.973 14.341)">
            <g id="Grupo_1201551" data-name="Grupo 1201551" transform="translate(11.08)">
              <g id="Grupo_1201549" data-name="Grupo 1201549" transform="translate(0 0)">
                <path id="Trazado_1045822" data-name="Trazado 1045822" d="M179.923,138.418l1.011,2.662a.207.207,0,0,0,.187.136l2.844.139a.211.211,0,0,1,.122.374l-2.22,1.784a.207.207,0,0,0-.071.219l.747,2.748a.211.211,0,0,1-.319.231l-2.383-1.56a.207.207,0,0,0-.231,0l-2.383,1.56a.211.211,0,0,1-.319-.231l.747-2.748a.207.207,0,0,0-.071-.219l-2.22-1.784a.211.211,0,0,1,.122-.374l2.844-.139a.207.207,0,0,0,.187-.136l1.011-2.662A.211.211,0,0,1,179.923,138.418Z" transform="translate(-175.287 -138.283)" fill="#ffe177" fill-rule="evenodd"/>
              </g>
              <g id="Grupo_1201550" data-name="Grupo 1201550" transform="translate(1.615)">
                <path id="Trazado_1045823" data-name="Trazado 1045823" d="M195.222,141.31l.9.044a.211.211,0,0,1,.122.374l-2.22,1.784a.207.207,0,0,0-.071.219l.747,2.748a.211.211,0,0,1-.319.231l-.617-.4-.712-2.62a.207.207,0,0,1,.071-.219l2.22-1.784A.211.211,0,0,0,195.222,141.31Zm-3.143-2.893,1.011,2.662a.207.207,0,0,0,.185.135l-.9-.044a.207.207,0,0,1-.187-.136l-.749-1.973.245-.645a.211.211,0,0,1,.394,0ZM192,145.151a.207.207,0,0,0-.231,0l-2.383,1.56a.211.211,0,0,1-.319-.231l.064-.235,2.154-1.41a.207.207,0,0,1,.231,0Z" transform="translate(-189.058 -138.282)" fill="#ffd064" fill-rule="evenodd"/>
              </g>
            </g>
            <g id="Grupo_1201554" data-name="Grupo 1201554" transform="translate(23.054)">
              <g id="Grupo_1201552" data-name="Grupo 1201552" transform="translate(0 0)">
                <path id="Trazado_1045824" data-name="Trazado 1045824" d="M282.027,138.418l1.011,2.662a.207.207,0,0,0,.187.136l2.844.139a.211.211,0,0,1,.122.374l-2.22,1.784a.207.207,0,0,0-.071.219l.747,2.748a.211.211,0,0,1-.319.231l-2.383-1.56a.207.207,0,0,0-.231,0l-2.383,1.56a.211.211,0,0,1-.319-.231l.747-2.748a.207.207,0,0,0-.071-.219l-2.22-1.784a.211.211,0,0,1,.122-.374l2.844-.139a.207.207,0,0,0,.187-.136l1.011-2.662a.211.211,0,0,1,.394,0Z" transform="translate(-277.391 -138.283)" fill="#ffe177" fill-rule="evenodd"/>
              </g>
              <g id="Grupo_1201553" data-name="Grupo 1201553" transform="translate(1.615)">
                <path id="Trazado_1045825" data-name="Trazado 1045825" d="M297.325,141.31l.9.044a.211.211,0,0,1,.122.374l-2.22,1.784a.207.207,0,0,0-.071.219l.747,2.748a.211.211,0,0,1-.319.231l-.617-.4-.712-2.62a.207.207,0,0,1,.071-.219l2.22-1.784A.211.211,0,0,0,297.325,141.31Zm-3.143-2.893,1.011,2.662a.207.207,0,0,0,.185.135l-.9-.044a.207.207,0,0,1-.187-.136l-.749-1.973.245-.645a.211.211,0,0,1,.394,0Zm-.082,6.734a.207.207,0,0,0-.231,0l-2.383,1.56a.211.211,0,0,1-.319-.231l.064-.235,2.154-1.41a.207.207,0,0,1,.231,0Z" transform="translate(-291.161 -138.282)" fill="#ffd064" fill-rule="evenodd"/>
              </g>
            </g>
            <g id="Grupo_1201557" data-name="Grupo 1201557" transform="translate(11.08 12.388)">
              <g id="Grupo_1201555" data-name="Grupo 1201555">
                <path id="Trazado_1045826" data-name="Trazado 1045826" d="M179.924,244.052l1.011,2.662a.206.206,0,0,0,.187.136l2.844.139a.211.211,0,0,1,.122.374l-2.22,1.784a.207.207,0,0,0-.071.219l.747,2.748a.211.211,0,0,1-.319.231l-2.383-1.56a.207.207,0,0,0-.231,0l-2.383,1.56a.211.211,0,0,1-.319-.231l.747-2.748a.207.207,0,0,0-.071-.219l-2.219-1.784a.211.211,0,0,1,.122-.374l2.844-.139a.207.207,0,0,0,.187-.136l1.011-2.662A.211.211,0,0,1,179.924,244.052Z" transform="translate(-175.288 -243.917)" fill="#ffe177" fill-rule="evenodd"/>
              </g>
              <g id="Grupo_1201556" data-name="Grupo 1201556" transform="translate(1.615)">
                <path id="Trazado_1045827" data-name="Trazado 1045827" d="M195.222,246.944l.9.044a.211.211,0,0,1,.122.374l-2.22,1.784a.207.207,0,0,0-.071.219l.747,2.748a.211.211,0,0,1-.319.231l-.617-.4-.712-2.62a.207.207,0,0,1,.071-.219l2.22-1.784A.211.211,0,0,0,195.222,246.944Zm-3.143-2.893,1.011,2.662a.207.207,0,0,0,.185.135l-.9-.044a.207.207,0,0,1-.187-.136l-.749-1.973.245-.645A.211.211,0,0,1,192.079,244.052ZM192,250.786a.207.207,0,0,0-.231,0l-2.383,1.56a.211.211,0,0,1-.319-.231l.064-.235,2.154-1.41a.207.207,0,0,1,.231,0Z" transform="translate(-189.058 -243.917)" fill="#ffd064" fill-rule="evenodd"/>
              </g>
            </g>
            <g id="Grupo_1201560" data-name="Grupo 1201560" transform="translate(0 1.058)">
              <g id="Grupo_1201558" data-name="Grupo 1201558" transform="translate(0 0)">
                <ellipse id="Elipse_12488" data-name="Elipse 12488" cx="4.001" cy="4.002" rx="4.001" ry="4.002" transform="translate(0 0.088) rotate(-0.63)" fill="#6cf5c2"/>
              </g>
              <g id="Grupo_1201559" data-name="Grupo 1201559" transform="translate(3.451 0.048)">
                <path id="Trazado_1045828" data-name="Trazado 1045828" d="M110.821,147.711a4,4,0,1,1-.586,7.96,4,4,0,0,0,0-7.917A4.062,4.062,0,0,1,110.821,147.711Z" transform="translate(-110.235 -147.711)" fill="#00e499" fill-rule="evenodd"/>
              </g>
            </g>
            <g id="Grupo_1201563" data-name="Grupo 1201563" transform="translate(0.005 13.447)">
              <g id="Grupo_1201561" data-name="Grupo 1201561" transform="translate(0 0)">
                <ellipse id="Elipse_12489" data-name="Elipse 12489" cx="4.001" cy="4.002" rx="4.001" ry="4.002" transform="translate(0 0.088) rotate(-0.63)" fill="#8ac9fe"/>
              </g>
              <g id="Grupo_1201562" data-name="Grupo 1201562" transform="translate(3.446 0.047)">
                <path id="Trazado_1045829" data-name="Trazado 1045829" d="M110.821,253.346a4,4,0,1,1-.586,7.96,4,4,0,0,0,0-7.917A4.046,4.046,0,0,1,110.821,253.346Z" transform="translate(-110.235 -253.346)" fill="#60b7ff" fill-rule="evenodd"/>
              </g>
            </g>
            <g id="Grupo_1201566" data-name="Grupo 1201566" transform="translate(0.009 25.836)">
              <g id="Grupo_1201564" data-name="Grupo 1201564" transform="translate(0 0)">
                <ellipse id="Elipse_12490" data-name="Elipse 12490" cx="4.001" cy="4.002" rx="4.001" ry="4.002" transform="translate(0 0.088) rotate(-0.63)" fill="#ffe177"/>
              </g>
              <g id="Grupo_1201565" data-name="Grupo 1201565" transform="translate(3.442 0.046)">
                <path id="Trazado_1045830" data-name="Trazado 1045830" d="M110.821,358.98a4,4,0,1,1-.586,7.96,4,4,0,0,0,0-7.917A4.038,4.038,0,0,1,110.821,358.98Z" transform="translate(-110.235 -358.98)" fill="#ffd064" fill-rule="evenodd"/>
              </g>
            </g>
          </g>
        </g>
      </g>
      <g id="Grupo_1201570" data-name="Grupo 1201570" transform="translate(21.868 8.004)">
        <path id="Trazado_1045831" data-name="Trazado 1045831" d="M32.818,56.23a3.063,3.063,0,1,1,3.063-3.063A3.066,3.066,0,0,1,32.818,56.23Zm0-8a4.94,4.94,0,1,0,4.939,4.94A4.945,4.945,0,0,0,32.818,48.227Zm2.212-9.056a.938.938,0,0,1-.065,1.325L32.815,42.45a.937.937,0,0,1-1.294-.031l-.885-.886a.938.938,0,1,1,1.326-1.327l.254.254,1.49-1.352a.938.938,0,0,1,1.325.064Zm-2.212,4.671a3.063,3.063,0,1,0-3.064-3.063A3.067,3.067,0,0,0,32.818,43.842Zm0-8a4.94,4.94,0,1,0,4.939,4.94A4.945,4.945,0,0,0,32.818,35.839Zm10.132,3.7a1.149,1.149,0,0,0,1.018-.74l.331-.871.331.871a1.148,1.148,0,0,0,1.018.74l.93.045-.725.583a1.152,1.152,0,0,0-.391,1.2l.245.9-.779-.511a1.146,1.146,0,0,0-1.258,0l-.78.511.244-.9a1.147,1.147,0,0,0-.388-1.2l-.726-.583Zm-3.6.307L41.2,41.334l-.622,2.289a1.148,1.148,0,0,0,1.737,1.262l1.984-1.3,1.984,1.3a1.149,1.149,0,0,0,1.738-1.262L47.4,41.334l1.848-1.485a1.149,1.149,0,0,0-.663-2.043l-2.368-.115-.842-2.217a1.15,1.15,0,0,0-2.149,0l-.841,2.217-2.369.115a1.149,1.149,0,0,0-.664,2.043ZM32.215,28.071l1.49-1.352a.938.938,0,1,1,1.26,1.389l-2.151,1.953a.939.939,0,0,1-1.294-.031l-.885-.886a.938.938,0,0,1,1.326-1.327Zm3.665.319a3.063,3.063,0,1,0-3.063,3.064A3.067,3.067,0,0,0,35.881,28.39Zm-8,0a4.94,4.94,0,1,0,4.94-4.94,4.945,4.945,0,0,0-4.94,4.94Zm27.047-1.238a1.149,1.149,0,0,0,1.018-.739l.33-.871.331.871a1.148,1.148,0,0,0,1.018.739l.93.045-.726.584a1.149,1.149,0,0,0-.388,1.2l.244.9-.779-.51a1.149,1.149,0,0,0-1.258,0l-.78.51.245-.9a1.149,1.149,0,0,0-.39-1.2l-.725-.583Zm-3.6.307,1.848,1.485-.622,2.289A1.148,1.148,0,0,0,54.29,32.5l1.983-1.3,1.985,1.3A1.149,1.149,0,0,0,60,31.234l-.623-2.289,1.849-1.485a1.149,1.149,0,0,0-.662-2.042L58.189,25.3l-.842-2.217a1.148,1.148,0,0,0-2.147,0L54.357,25.3l-2.369.116a1.148,1.148,0,0,0-.664,2.042Zm-8.375-.307a1.149,1.149,0,0,0,1.018-.739l.331-.871.331.871a1.148,1.148,0,0,0,1.018.739l.93.045-.726.583a1.153,1.153,0,0,0-.39,1.2l.245.9-.779-.509a1.148,1.148,0,0,0-1.258,0l-.78.51.244-.9a1.147,1.147,0,0,0-.388-1.2L42.02,27.2Zm-3.6.307L41.2,28.945l-.622,2.288A1.147,1.147,0,0,0,42.314,32.5L44.3,31.2l1.984,1.3a1.149,1.149,0,0,0,1.738-1.262L47.4,28.945l1.848-1.485a1.148,1.148,0,0,0-.663-2.042L46.215,25.3l-.842-2.217a1.15,1.15,0,0,0-2.149,0L42.384,25.3l-2.369.116a1.149,1.149,0,0,0-.664,2.042Zm6.548-15a1.135,1.135,0,1,1-1.135-1.135A1.138,1.138,0,0,1,45.9,12.459ZM65.782,62.711V16.272A1.587,1.587,0,0,0,64.2,14.687H55.419v1.634H63.21a.939.939,0,0,1,.938.938V56.593a.933.933,0,0,1-.259.646L59.01,62.37a.941.941,0,0,1-.68.292H26.317a.94.94,0,0,1-.938-.938V17.259a.939.939,0,0,1,.938-.938h7.792V14.687H25.33a1.587,1.587,0,0,0-1.585,1.586V62.711A1.586,1.586,0,0,0,25.33,64.3H64.2a1.586,1.586,0,0,0,1.585-1.585Zm-4.793-5.144-1.8,1.9L59.2,57.6ZM54.48,19.723H35.047a.938.938,0,0,1-.938-.938V18.2H27.255V60.786H57.3l.03-3.716a1.348,1.348,0,0,1,1.336-1.343l3.608-.059V18.2H55.419v.587a.938.938,0,0,1-.938.938Zm-18.5-6.562v4.686H53.543V13.161H48.934a.938.938,0,0,1-.912-.718,3.353,3.353,0,0,0-6.517,0,.938.938,0,0,1-.913.718ZM64.2,12.81H55.419v-.587a.938.938,0,0,0-.938-.938H49.618a5.232,5.232,0,0,0-9.709,0H35.047a.938.938,0,0,0-.938.938v.587H25.33a3.466,3.466,0,0,0-3.462,3.462V62.711a3.465,3.465,0,0,0,3.462,3.462H64.2a3.465,3.465,0,0,0,3.462-3.462V16.272A3.465,3.465,0,0,0,64.2,12.81ZM72.854,49.3,71.5,46.936h2.721Zm-2.046-4.236V24.548h4.1V45.059Zm1.549-25.907h1A1.553,1.553,0,0,1,74.908,20.7v1.968h-4.1V20.7a1.551,1.551,0,0,1,1.549-1.551Zm1-1.877h-1A3.431,3.431,0,0,0,68.931,20.7V46a.943.943,0,0,0,.125.469l2.986,5.174a.941.941,0,0,0,1.628,0l2.986-5.174A.938.938,0,0,0,76.784,46V20.7a3.433,3.433,0,0,0-3.428-3.428Z" transform="translate(-21.868 -8.004)" fill="#242222" fill-rule="evenodd"/>
      </g>
    </g>
  </g>
</svg>
