<svg xmlns="http://www.w3.org/2000/svg" xmlns:xlink="http://www.w3.org/1999/xlink" width="113" height="113" viewBox="0 0 113 113">
  <defs>
    <filter id="Trazado_982547" x="0" y="0" width="113" height="113" filterUnits="userSpaceOnUse">
      <feOffset dy="3" input="SourceAlpha"/>
      <feGaussianBlur stdDeviation="3" result="blur"/>
      <feFlood flood-opacity="0.161"/>
      <feComposite operator="in" in2="blur"/>
      <feComposite in="SourceGraphic"/>
    </filter>
  </defs>
  <g id="Grupo_1177686" data-name="Grupo 1177686" transform="translate(-1112 -1163.623)">
    <g id="Grupo_1177337" data-name="Grupo 1177337" transform="translate(318.51 -325.812)">
      <g id="Grupo_1176922" data-name="Grupo 1176922" transform="translate(802.49 1495.435)">
        <g id="Grupo_1172322" data-name="Grupo 1172322" transform="translate(0 0)">
          <g id="Grupo_1164700" data-name="Grupo 1164700">
            <g id="Grupo_1160931" data-name="Grupo 1160931">
              <g id="Grupo_1160749" data-name="Grupo 1160749">
                <g id="Grupo_1158891" data-name="Grupo 1158891">
                  <g id="Grupo_1157406" data-name="Grupo 1157406">
                    <g id="Grupo_1155793" data-name="Grupo 1155793">
                      <g id="Grupo_1154704" data-name="Grupo 1154704">
                        <g id="Grupo_1150790" data-name="Grupo 1150790">
                          <g id="Grupo_1154214" data-name="Grupo 1154214">
                            <g id="Grupo_1152583" data-name="Grupo 1152583">
                              <g id="Grupo_1146973" data-name="Grupo 1146973">
                                <g id="Grupo_1146954" data-name="Grupo 1146954">
                                  <g transform="matrix(1, 0, 0, 1, -9, -6)" filter="url(#Trazado_982547)">
                                    <g id="Trazado_982547-2" data-name="Trazado 982547" transform="translate(9 6)" fill="#f2f7e5">
                                      <path d="M 47.5000114440918 93.49987030029297 C 41.28938293457031 93.49987030029297 35.26534652709961 92.28384399414062 29.5951976776123 89.88558959960938 C 24.11773109436035 87.56881713867188 19.19814491271973 84.25183868408203 14.97310447692871 80.02680206298828 C 10.74805164337158 75.80176544189453 7.43107795715332 70.88218688964844 5.114304542541504 65.40472412109375 C 2.716038227081299 59.73458862304688 1.500011444091797 53.71054840087891 1.500011444091797 47.49993515014648 C 1.500011444091797 41.28932189941406 2.716038227081299 35.26528167724609 5.114304542541504 29.59514808654785 C 7.43107795715332 24.1176815032959 10.74805164337158 19.1981086730957 14.97310447692871 14.97306823730469 C 19.19814491271973 10.74802875518799 24.11773109436035 7.431055068969727 29.5951976776123 5.11428165435791 C 35.26534652709961 2.716028451919556 41.28938293457031 1.500001788139343 47.5000114440918 1.500001788139343 C 53.71063995361328 1.500001788139343 59.73467636108398 2.716028451919556 65.40482330322266 5.11428165435791 C 70.88229370117188 7.431055068969727 75.8018798828125 10.74802875518799 80.02691650390625 14.97306823730469 C 84.25196838378906 19.1981086730957 87.56894683837891 24.1176815032959 89.88571929931641 29.59514808654785 C 92.28398132324219 35.26528167724609 93.50001525878906 41.28932189941406 93.50001525878906 47.49993515014648 C 93.50001525878906 53.71054840087891 92.28398132324219 59.73458862304688 89.88571929931641 65.40472412109375 C 87.56894683837891 70.88218688964844 84.25196838378906 75.80176544189453 80.02691650390625 80.02680206298828 C 75.8018798828125 84.25183868408203 70.88229370117188 87.56881713867188 65.40482330322266 89.88558959960938 C 59.73467636108398 92.28384399414062 53.71063995361328 93.49987030029297 47.5000114440918 93.49987030029297 Z" stroke="none"/>
                                      <path d="M 47.5000114440918 3 C 41.49122619628906 3 35.66378021240234 4.1761474609375 30.17951965332031 6.495796203613281 C 24.880859375 8.7369384765625 20.12153625488281 11.94596862792969 16.03376770019531 16.03373718261719 C 11.94598388671875 20.12149047851562 8.736968994140625 24.88081359863281 6.495811462402344 30.17947387695312 C 4.176162719726562 35.66371917724609 3.000007629394531 41.49116516113281 3.000007629394531 47.49993515014648 C 3.000007629394531 53.50870513916016 4.176162719726562 59.33615112304688 6.495811462402344 64.82039642333984 C 8.736968994140625 70.11905670166016 11.94598388671875 74.87837982177734 16.03376770019531 78.96613311767578 C 20.12153625488281 83.05390167236328 24.880859375 86.26293182373047 30.17951965332031 88.50407409667969 C 35.66378021240234 90.82372283935547 41.49122619628906 91.99987030029297 47.5000114440918 91.99987030029297 C 53.50879669189453 91.99987030029297 59.33624267578125 90.82372283935547 64.82050323486328 88.50407409667969 C 70.11916351318359 86.26293182373047 74.87848663330078 83.05390167236328 78.96625518798828 78.96613311767578 C 83.05403900146484 74.87837982177734 86.2630615234375 70.11905670166016 88.50421142578125 64.82039642333984 C 90.82386016845703 59.33615112304688 92.00001525878906 53.50870513916016 92.00001525878906 47.49993515014648 C 92.00001525878906 41.49116516113281 90.82386016845703 35.66371917724609 88.50421142578125 30.17947387695312 C 86.2630615234375 24.88081359863281 83.05403900146484 20.12149047851562 78.96625518798828 16.03373718261719 C 74.87848663330078 11.94596862792969 70.11916351318359 8.7369384765625 64.82050323486328 6.495796203613281 C 59.33624267578125 4.1761474609375 53.50879669189453 3 47.5000114440918 3 M 47.5000114440918 0 C 73.73353576660156 0 95.00001525878906 21.26644134521484 95.00001525878906 47.49993515014648 C 95.00001525878906 73.73342895507812 73.73353576660156 94.99987030029297 47.5000114440918 94.99987030029297 C 21.26648712158203 94.99987030029297 7.62939453125e-06 73.73342895507812 7.62939453125e-06 47.49993515014648 C 7.62939453125e-06 21.26644134521484 21.26648712158203 0 47.5000114440918 0 Z" stroke="none" fill="#86b60c"/>
                                    </g>
                                  </g>
                                </g>
                              </g>
                            </g>
                          </g>
                        </g>
                      </g>
                    </g>
                  </g>
                </g>
              </g>
            </g>
          </g>
        </g>
      </g>
    </g>
    <g id="association_6416937_1_" data-name="association_6416937 (1)" transform="translate(1099.744 1178.925)">
      <g id="Grupo_1201620" data-name="Grupo 1201620" transform="translate(40.806 7.5)">
        <path id="Trazado_1045914" data-name="Trazado 1045914" d="M96.618,120.731l-23.3,17.255,21.4,20.418h3.8l21.4-20.418Z" transform="translate(-69.168 -106.287)" fill="#f0d289"/>
        <path id="Trazado_1045915" data-name="Trazado 1045915" d="M279.306,113.076h-8.2v3.132a3.127,3.127,0,0,1-6.253,0v-3.132H256v-6h3.132a3.127,3.127,0,0,0,0-6.253H256V95.821h0C268.686,85.963,285.153,97.592,279.306,113.076Z" transform="translate(-228.55 -81.378)" fill="#8ed275"/>
        <path id="Trazado_1045916" data-name="Trazado 1045916" d="M236.509,256s0,.007,0,.011c-3.311,8.758-12.886,15.847-21.4,20.407a4.027,4.027,0,0,1-1.9.479v-7.76h-3.132a3.126,3.126,0,0,1,0-6.253H213.2V256h8.856v3.132a3.127,3.127,0,0,0,6.253,0V256Z" transform="translate(-185.753 -224.302)" fill="#fded80"/>
        <path id="Trazado_1045917" data-name="Trazado 1045917" d="M90.361,223.213a3.126,3.126,0,0,0,3.126,3.127h3.132v7.76a4.023,4.023,0,0,1-1.9-.479c-8.429-4.515-18.071-11.608-21.4-20.407,0,0,0-.007,0-.011h8.194v-3.132a3.126,3.126,0,0,1,6.253,0V213.2h8.857v6.884H93.486A3.125,3.125,0,0,0,90.361,223.213Z" transform="translate(-69.168 -181.504)" fill="#71daf9"/>
        <path id="Trazado_1045918" data-name="Trazado 1045918" d="M94.546,104.032a3.126,3.126,0,0,1-3.126,3.127H88.288v6H79.432v-3.132a3.126,3.126,0,0,0-6.253,0v3.132H64.985C59.122,97.618,75.661,86.088,88.288,95.9V100.9H91.42A3.126,3.126,0,0,1,94.546,104.032Z" transform="translate(-60.838 -81.456)" fill="#f37a86"/>
        <path id="Trazado_1045919" data-name="Trazado 1045919" d="M262.583,377.529a24.538,24.538,0,0,1-6.583-.9v5.509a4.027,4.027,0,0,0,1.9-.479,75.273,75.273,0,0,0,7.006-4.245C264.143,377.491,263.368,377.529,262.583,377.529Z" transform="translate(-228.55 -329.548)" fill="#fbcc83"/>
        <path id="Trazado_1045920" data-name="Trazado 1045920" d="M328.053,349.37h-1.919v-2.809a2.66,2.66,0,0,0-2.66-2.66h0a2.66,2.66,0,0,0-2.66,2.66,2.66,2.66,0,0,0-2.66-2.66h0a2.66,2.66,0,0,0-2.66,2.66,2.66,2.66,0,0,0-2.66-2.66h0a2.66,2.66,0,0,0-2.66,2.66v17.826h15.961v-9.7h1.919a2.66,2.66,0,0,0,2.66-2.66h0A2.66,2.66,0,0,0,328.053,349.37Z" transform="translate(-275.814 -300.99)" fill="#d89b80"/>
        <path id="Trazado_1045921" data-name="Trazado 1045921" d="M70.35,110.586a24.41,24.41,0,0,1,3.031-11.817c-7.172,2.526-11.987,10.539-8.4,20.056H71.77A24.477,24.477,0,0,1,70.35,110.586Z" transform="translate(-60.839 -87.127)" fill="#dd5c70"/>
        <path id="Trazado_1045922" data-name="Trazado 1045922" d="M82.023,25.326a2.66,2.66,0,0,1-2.66,2.66h0a2.66,2.66,0,0,1-2.66-2.66V7.5H92.664V25.326A2.66,2.66,0,0,1,90,27.986h0a2.66,2.66,0,0,1-2.66-2.66,2.66,2.66,0,0,1-2.66,2.66h0A2.66,2.66,0,0,1,82.023,25.326Z" transform="translate(-72.124 -7.5)" fill="#fddacc"/>
        <path id="Trazado_1045923" data-name="Trazado 1045923" d="M80.1,256H73.315s0,.007,0,.011c3.327,8.8,12.969,15.892,21.4,20.407a4.022,4.022,0,0,0,1.9.479v-5.509A24.577,24.577,0,0,1,80.1,256Z" transform="translate(-69.168 -224.302)" fill="#30c3ef"/>
        <path id="Trazado_1045924" data-name="Trazado 1045924" d="M49.679,15.355A17.376,17.376,0,0,1,51.544,7.5H45.385v9.7H43.466a2.66,2.66,0,0,0-2.66,2.66h0a2.66,2.66,0,0,0,2.66,2.66h1.919v2.809a2.66,2.66,0,0,0,2.66,2.66h0a2.66,2.66,0,0,0,2.66-2.66,2.66,2.66,0,0,0,2.66,2.66h0a2.644,2.644,0,0,0,1.349-.37A17.393,17.393,0,0,1,49.679,15.355Z" transform="translate(-40.806 -7.5)" fill="#fdc8bb"/>
        <path id="Trazado_1045925" data-name="Trazado 1045925" d="M312.68,346.742a15.8,15.8,0,0,1,.256-2.837c-.034,0-.068-.005-.1-.005h0a2.66,2.66,0,0,0-2.66,2.66v17.826h15.961v-2.1A15.708,15.708,0,0,1,312.68,346.742Z" transform="translate(-275.813 -300.989)" fill="#c5836a"/>
      </g>
      <g id="Grupo_1201621" data-name="Grupo 1201621" transform="translate(40.806 7.5)">
        <path id="Trazado_1045926" data-name="Trazado 1045926" d="M82.973,225.774a68.444,68.444,0,0,0,11.744,7.846,4.023,4.023,0,0,0,1.9.479v-7.76H93.486a3.126,3.126,0,0,1,0-6.253h3.132V213.2H87.761v-3.132a3.126,3.126,0,0,0-6.252,0V213.2H73.315s0,.007,0,.011a28.858,28.858,0,0,0,6.83,9.973" transform="translate(-69.168 -181.504)" fill="none" stroke="#000" stroke-linecap="round" stroke-linejoin="round" stroke-miterlimit="10" stroke-width="1.5"/>
        <path id="Trazado_1045927" data-name="Trazado 1045927" d="M275.093,95.318c-4.974-3.946-12.537-4.589-19.091.505h0v5.005h3.132a3.127,3.127,0,0,1,0,6.253H256v6h8.856v3.132a3.127,3.127,0,0,0,6.254,0v-3.132h8.2c2.219-5.877,1.224-11.2-1.559-15" transform="translate(-228.55 -81.379)" fill="none" stroke="#000" stroke-linecap="round" stroke-linejoin="round" stroke-miterlimit="10" stroke-width="1.5"/>
        <path id="Trazado_1045928" data-name="Trazado 1045928" d="M91.422,103.192H88.29V98.187a17.064,17.064,0,0,0-6.91-3.3v6.678a2.66,2.66,0,0,1-2.66,2.66h0a2.66,2.66,0,0,1-2.66-2.66,2.66,2.66,0,0,1-2.66,2.66h0a2.66,2.66,0,0,1-2.66-2.66,2.66,2.66,0,0,1-2.66,2.66h0a2.66,2.66,0,0,1-2.6-2.1,15.83,15.83,0,0,0-.493,13.309h8.194V112.31a3.126,3.126,0,0,1,6.252,0v3.132H88.29v-6h3.132a3.127,3.127,0,0,0,0-6.253Z" transform="translate(-60.84 -83.743)" fill="none" stroke="#000" stroke-linecap="round" stroke-linejoin="round" stroke-miterlimit="10" stroke-width="1.5"/>
        <path id="Trazado_1045929" data-name="Trazado 1045929" d="M45.385,7.5v9.7H43.466a2.66,2.66,0,0,0,0,5.32h1.919v2.809a2.66,2.66,0,1,0,5.32,0,2.66,2.66,0,0,0,5.32,0,2.66,2.66,0,1,0,5.32,0V7.5Z" transform="translate(-40.806 -7.5)" fill="none" stroke="#000" stroke-linecap="round" stroke-linejoin="round" stroke-miterlimit="10" stroke-width="1.5"/>
        <path id="Trazado_1045930" data-name="Trazado 1045930" d="M228.311,256v3.132a3.127,3.127,0,0,1-6.253,0V256H213.2v6.884h-3.132a3.126,3.126,0,0,0,0,6.253H213.2v7.76a4.028,4.028,0,0,0,1.9-.479c1.647-.882,3.334-1.86,5.007-2.925v-3.621a2.66,2.66,0,0,1,2.66-2.66h0a2.658,2.658,0,0,1,2.653,2.524l.014-.011a2.658,2.658,0,0,1,2.653-2.512h0a2.656,2.656,0,0,1,.283.015,30.356,30.356,0,0,0,8.129-11.217s0-.007,0-.011h-8.2Z" transform="translate(-185.753 -224.302)" fill="none" stroke="#000" stroke-linecap="round" stroke-linejoin="round" stroke-miterlimit="10" stroke-width="1.5"/>
        <path id="Trazado_1045931" data-name="Trazado 1045931" d="M328.053,349.37h-1.919v-2.809a2.66,2.66,0,1,0-5.32,0,2.66,2.66,0,1,0-5.32,0,2.66,2.66,0,1,0-5.32,0v17.826h15.961v-9.7h1.919a2.66,2.66,0,0,0,2.66-2.66h0A2.66,2.66,0,0,0,328.053,349.37Z" transform="translate(-275.814 -300.99)" fill="none" stroke="#000" stroke-linecap="round" stroke-linejoin="round" stroke-miterlimit="10" stroke-width="1.5"/>
      </g>
    </g>
  </g>
</svg>
